<?xml version="1.0" encoding="UTF-8" standalone="no"?><!DOCTYPE svg PUBLIC "-//W3C//DTD SVG 1.1//EN" "http://www.w3.org/Graphics/SVG/1.1/DTD/svg11.dtd"><svg width="100%" height="100%" viewBox="0 0 437 170" version="1.1" xmlns="http://www.w3.org/2000/svg" xmlns:xlink="http://www.w3.org/1999/xlink" xml:space="preserve" style="fill-rule:evenodd;clip-rule:evenodd;stroke-linecap:round;stroke-linejoin:round;stroke-miterlimit:1.5;"><g><rect x="0" y="0" width="437" height="169.63" style="fill:#75dbe1;"/><g><rect x="0" y="0" width="8" height="63" style="fill:#fff;fill-opacity:0.639216;"/><rect x="10" y="0" width="8" height="109" style="fill:#fff;fill-opacity:0.639216;"/><rect x="20" y="0" width="8" height="119" style="fill:#fff;fill-opacity:0.639216;"/><rect x="30" y="0" width="8" height="134" style="fill:#fff;fill-opacity:0.639216;"/><rect x="40" y="0" width="8" height="150" style="fill:#fff;fill-opacity:0.639216;"/><rect x="50" y="0" width="8" height="162" style="fill:#fff;fill-opacity:0.639216;"/><rect x="60" y="0" width="8" height="166" style="fill:#fff;fill-opacity:0.639216;"/><rect x="70" y="0" width="8" height="169.63" style="fill:#fff;fill-opacity:0.639216;"/><rect x="80" y="0" width="8" height="135" style="fill:#fff;fill-opacity:0.639216;"/><rect x="90" y="30" width="8" height="103" style="fill:#fff;fill-opacity:0.639216;"/><rect x="100" y="34" width="8" height="99" style="fill:#fff;fill-opacity:0.639216;"/><rect x="110" y="39" width="8" height="94" style="fill:#fff;fill-opacity:0.639216;"/><rect x="120" y="56.259" width="8" height="86" style="fill:#fff;fill-opacity:0.639216;"/><rect x="130" y="3" width="8" height="113.259" style="fill:#fff;fill-opacity:0.639216;"/><rect x="140" y="6" width="8" height="90.259" style="fill:#fff;fill-opacity:0.639216;"/><rect x="150" y="22" width="8" height="61.259" style="fill:#fff;fill-opacity:0.639216;"/><rect x="160" y="17" width="8" height="45.259" style="fill:#fff;fill-opacity:0.639216;"/><rect x="170" y="28" width="8" height="31.63" style="fill:#fff;fill-opacity:0.639216;"/><rect x="180" y="41" width="8" height="18.63" style="fill:#fff;fill-opacity:0.639216;"/><rect x="289" y="147" width="8" height="22.63" style="fill:#fff;fill-opacity:0.639216;"/><rect x="299" y="135" width="8" height="34.63" style="fill:#fff;fill-opacity:0.639216;"/><rect x="309" y="120" width="8" height="49.63" style="fill:#fff;fill-opacity:0.639216;"/><rect x="319" y="115" width="8" height="54.63" style="fill:#fff;fill-opacity:0.639216;"/><rect x="329" y="113" width="8" height="56.63" style="fill:#fff;fill-opacity:0.639216;"/><rect x="339" y="110" width="8" height="59.63" style="fill:#fff;fill-opacity:0.639216;"/><rect x="349" y="110" width="8" height="59.63" style="fill:#fff;fill-opacity:0.639216;"/><rect x="359" y="113" width="8" height="56.63" style="fill:#fff;fill-opacity:0.639216;"/><rect x="369" y="123" width="8" height="46.63" style="fill:#fff;fill-opacity:0.639216;"/><rect x="379" y="130" width="8" height="39.63" style="fill:#fff;fill-opacity:0.639216;"/><rect x="389" y="123" width="8" height="46.63" style="fill:#fff;fill-opacity:0.639216;"/><rect x="399" y="126" width="8" height="43.63" style="fill:#fff;fill-opacity:0.639216;"/><rect x="409" y="130" width="8" height="39.63" style="fill:#fff;fill-opacity:0.639216;"/><rect x="419" y="145" width="8" height="24.63" style="fill:#fff;fill-opacity:0.639216;"/><rect x="429" y="0" width="8" height="147.815" style="fill:#fff;fill-opacity:0.639216;"/><rect x="419" y="93.185" width="8" height="43.63" style="fill:#fff;fill-opacity:0.639216;"/><rect x="419" y="0" width="8" height="81.815" style="fill:#fff;fill-opacity:0.639216;"/><rect x="409" y="0" width="8" height="81.815" style="fill:#fff;fill-opacity:0.639216;"/><rect x="409" y="93.185" width="8" height="18.63" style="fill:#fff;fill-opacity:0.639216;"/><rect x="399" y="0" width="8" height="111.815" style="fill:#fff;fill-opacity:0.639216;"/><rect x="389" y="0" width="8" height="111.815" style="fill:#fff;fill-opacity:0.639216;"/><rect x="379" y="42.5" width="8" height="52.315" style="fill:#fff;fill-opacity:0.639216;"/><rect x="369" y="42.5" width="8" height="52.315" style="fill:#fff;fill-opacity:0.639216;"/><rect x="359" y="0" width="8" height="94.815" style="fill:#fff;fill-opacity:0.639216;"/><rect x="349" y="46.5" width="8" height="39.759" style="fill:#fff;fill-opacity:0.639216;"/><rect x="339" y="56.5" width="8" height="30.759" style="fill:#fff;fill-opacity:0.639216;"/><rect x="329" y="38.5" width="8" height="59.759" style="fill:#fff;fill-opacity:0.639216;"/><rect x="319" y="23.5" width="8" height="35.759" style="fill:#fff;fill-opacity:0.639216;"/><rect x="309" y="38.5" width="8" height="20.759" style="fill:#fff;fill-opacity:0.639216;"/><rect x="309" y="87.259" width="8" height="20.759" style="fill:#fff;fill-opacity:0.639216;"/><rect x="319" y="87.259" width="8" height="20.759" style="fill:#fff;fill-opacity:0.639216;"/><rect x="369" y="0" width="8" height="37.945" style="fill:#fff;fill-opacity:0.639216;"/><rect x="349" y="0" width="8" height="24.945" style="fill:#fff;fill-opacity:0.639216;"/><rect x="204" y="0" width="8" height="12.63" style="fill:#fff;fill-opacity:0.639216;"/><rect x="214" y="0" width="8" height="16.63" style="fill:#fff;fill-opacity:0.639216;"/><rect x="80" y="161.63" width="8" height="8" style="fill:#fff;fill-opacity:0.639216;"/><rect x="120" y="150" width="8" height="8" style="fill:#fff;fill-opacity:0.639216;"/><rect x="150" y="161.63" width="8" height="8" style="fill:#fff;fill-opacity:0.639216;"/><rect x="160" y="65" width="8" height="8" style="fill:#fff;fill-opacity:0.639216;"/><rect x="180" y="65" width="8" height="8" style="fill:#fff;fill-opacity:0.639216;"/><rect x="160" y="75.75" width="8" height="8" style="fill:#fff;fill-opacity:0.639216;"/><rect x="90" y="161.63" width="8" height="8" style="fill:#fff;fill-opacity:0.639216;"/><rect x="100" y="156.63" width="8" height="13" style="fill:#fff;fill-opacity:0.639216;"/></g><circle cx="19.055" cy="113.093" r="4.055" style="fill:#f73;"/><circle cx="105.665" cy="84.666" r="4.149" style="fill:#f73;"/><circle cx="125.928" cy="79.297" r="4.031" style="fill:#f73;"/><circle cx="337.928" cy="68.328" r="4.031" style="fill:#f73;"/><circle cx="368.969" cy="71.236" r="4.031" style="fill:#f73;"/><circle cx="427.969" cy="38.469" r="4.031" style="fill:#f73;"/><circle cx="125.62" cy="101.634" r="7.403" style="fill:#f73;"/><rect x="9" y="74" width="46" height="89" style="fill:none;stroke:#595959;stroke-width:1px;"/><rect x="88" y="59" width="64" height="86.815" style="fill:none;stroke:#595959;stroke-width:1px;"/><g><path d="M1.638,3.133l0.941,0c0.101,0 0.185,0.025 0.251,0.075c0.066,0.051 0.111,0.115 0.134,0.193l1.729,5.818c0.031,0.105 0.06,0.218 0.085,0.339c0.025,0.121 0.05,0.247 0.073,0.38c0.027,-0.133 0.055,-0.26 0.082,-0.383c0.027,-0.123 0.058,-0.235 0.093,-0.336l1.969,-5.818c0.023,-0.066 0.069,-0.127 0.137,-0.184c0.068,-0.056 0.151,-0.084 0.248,-0.084l0.327,0c0.102,0 0.184,0.025 0.249,0.075c0.064,0.051 0.11,0.115 0.137,0.193l1.957,5.818c0.07,0.203 0.132,0.434 0.187,0.695c0.023,-0.128 0.044,-0.251 0.064,-0.368c0.019,-0.117 0.045,-0.226 0.076,-0.327l1.735,-5.818c0.019,-0.07 0.063,-0.132 0.131,-0.187c0.068,-0.054 0.151,-0.081 0.248,-0.081l0.882,0l-2.611,8.37l-1.016,0l-2.12,-6.384c-0.043,-0.121 -0.082,-0.261 -0.117,-0.421c-0.02,0.078 -0.038,0.153 -0.056,0.225c-0.017,0.072 -0.036,0.137 -0.055,0.196l-2.132,6.384l-1.017,0l-2.611,-8.37Z" style="fill:#595959;fill-rule:nonzero;"/><path d="M22.252,7.321c0,0.627 -0.099,1.202 -0.298,1.726c-0.198,0.524 -0.479,0.974 -0.841,1.352c-0.362,0.378 -0.797,0.671 -1.306,0.879c-0.508,0.208 -1.069,0.313 -1.685,0.313c-0.615,0 -1.176,-0.105 -1.682,-0.313c-0.506,-0.208 -0.94,-0.501 -1.303,-0.879c-0.362,-0.378 -0.642,-0.828 -0.841,-1.352c-0.198,-0.524 -0.298,-1.099 -0.298,-1.726c0,-0.627 0.1,-1.203 0.298,-1.726c0.199,-0.524 0.479,-0.976 0.841,-1.356c0.363,-0.379 0.797,-0.674 1.303,-0.884c0.506,-0.211 1.067,-0.316 1.682,-0.316c0.616,0 1.177,0.105 1.685,0.316c0.509,0.21 0.944,0.505 1.306,0.884c0.362,0.38 0.643,0.832 0.841,1.356c0.199,0.523 0.298,1.099 0.298,1.726Zm-1.162,0c0,-0.514 -0.07,-0.976 -0.211,-1.385c-0.14,-0.409 -0.338,-0.754 -0.595,-1.036c-0.257,-0.283 -0.569,-0.5 -0.935,-0.652c-0.366,-0.152 -0.775,-0.228 -1.227,-0.228c-0.448,0 -0.854,0.076 -1.221,0.228c-0.366,0.152 -0.678,0.369 -0.937,0.652c-0.259,0.282 -0.459,0.627 -0.599,1.036c-0.14,0.409 -0.21,0.871 -0.21,1.385c0,0.514 0.07,0.974 0.21,1.381c0.14,0.407 0.34,0.752 0.599,1.034c0.259,0.282 0.571,0.499 0.937,0.648c0.367,0.15 0.773,0.225 1.221,0.225c0.452,0 0.861,-0.075 1.227,-0.225c0.366,-0.149 0.678,-0.366 0.935,-0.648c0.257,-0.282 0.455,-0.627 0.595,-1.034c0.141,-0.407 0.211,-0.867 0.211,-1.381Z" style="fill:#595959;fill-rule:nonzero;"/><path d="M25.044,8.01l0,3.493l-1.127,0l0,-8.37l2.365,0c0.53,0 0.988,0.053 1.373,0.16c0.386,0.107 0.704,0.262 0.955,0.465c0.251,0.202 0.437,0.446 0.558,0.733c0.121,0.286 0.181,0.606 0.181,0.961c0,0.295 -0.047,0.572 -0.14,0.829c-0.094,0.257 -0.229,0.488 -0.406,0.692c-0.177,0.205 -0.393,0.379 -0.648,0.523c-0.255,0.144 -0.545,0.253 -0.868,0.327c0.14,0.082 0.265,0.201 0.374,0.356l2.442,3.324l-1.005,0c-0.206,0 -0.358,-0.08 -0.456,-0.239l-2.173,-2.991c-0.066,-0.094 -0.138,-0.161 -0.216,-0.202c-0.078,-0.041 -0.194,-0.061 -0.35,-0.061l-0.859,0Zm0,-0.824l1.186,0c0.331,0 0.622,-0.04 0.873,-0.119c0.251,-0.08 0.462,-0.193 0.631,-0.339c0.169,-0.146 0.297,-0.32 0.383,-0.523c0.085,-0.202 0.128,-0.426 0.128,-0.672c0,-0.498 -0.164,-0.874 -0.493,-1.127c-0.33,-0.253 -0.819,-0.38 -1.47,-0.38l-1.238,0l0,3.16Z" style="fill:#595959;fill-rule:nonzero;"/><path d="M32.457,10.551l3.621,0l0,0.952l-4.755,0l0,-8.37l1.134,0l0,7.418Z" style="fill:#595959;fill-rule:nonzero;"/><path d="M44.583,7.321c0,0.627 -0.099,1.197 -0.298,1.711c-0.198,0.514 -0.479,0.954 -0.841,1.32c-0.362,0.366 -0.796,0.65 -1.303,0.85c-0.506,0.201 -1.067,0.301 -1.682,0.301l-3.131,0l0,-8.37l3.131,0c0.615,0 1.176,0.1 1.682,0.3c0.507,0.201 0.941,0.485 1.303,0.853c0.362,0.368 0.643,0.809 0.841,1.323c0.199,0.514 0.298,1.085 0.298,1.712Zm-1.162,0c0,-0.514 -0.07,-0.974 -0.211,-1.379c-0.14,-0.405 -0.338,-0.747 -0.595,-1.028c-0.257,-0.28 -0.569,-0.494 -0.935,-0.642c-0.366,-0.148 -0.773,-0.222 -1.221,-0.222l-1.992,0l0,6.536l1.992,0c0.448,0 0.855,-0.074 1.221,-0.222c0.366,-0.148 0.678,-0.361 0.935,-0.64c0.257,-0.278 0.455,-0.62 0.595,-1.025c0.141,-0.405 0.211,-0.864 0.211,-1.378Z" style="fill:#595959;fill-rule:nonzero;"/></g><rect x="0" y="65.63" width="144" height="86.815" style="fill:none;stroke:#595959;stroke-width:1px;"/><g><path d="M68.565,76.372c0.356,0 0.674,-0.06 0.954,-0.18c0.28,-0.12 0.517,-0.288 0.711,-0.504c0.194,-0.216 0.342,-0.474 0.444,-0.774c0.102,-0.3 0.153,-0.63 0.153,-0.99l0,-5.226l1.158,0l0,5.226c0,0.496 -0.079,0.956 -0.237,1.38c-0.158,0.424 -0.384,0.791 -0.678,1.101c-0.294,0.31 -0.653,0.553 -1.077,0.729c-0.424,0.176 -0.9,0.264 -1.428,0.264c-0.528,0 -1.004,-0.088 -1.428,-0.264c-0.424,-0.176 -0.784,-0.419 -1.08,-0.729c-0.296,-0.31 -0.523,-0.677 -0.681,-1.101c-0.158,-0.424 -0.237,-0.884 -0.237,-1.38l0,-5.226l1.158,0l0,5.22c0,0.36 0.051,0.69 0.153,0.99c0.102,0.3 0.25,0.558 0.444,0.774c0.194,0.216 0.432,0.385 0.714,0.507c0.282,0.122 0.601,0.183 0.957,0.183Z" style="fill:#4d4d4d;fill-rule:nonzero;"/><path d="M78.387,70.042c-0.036,0.06 -0.074,0.105 -0.114,0.135c-0.04,0.03 -0.092,0.045 -0.156,0.045c-0.068,0 -0.147,-0.034 -0.237,-0.102c-0.09,-0.068 -0.204,-0.143 -0.342,-0.225c-0.138,-0.082 -0.304,-0.157 -0.498,-0.225c-0.194,-0.068 -0.429,-0.102 -0.705,-0.102c-0.26,0 -0.49,0.035 -0.69,0.105c-0.2,0.07 -0.367,0.165 -0.501,0.285c-0.134,0.12 -0.235,0.261 -0.303,0.423c-0.068,0.162 -0.102,0.337 -0.102,0.525c0,0.24 0.059,0.439 0.177,0.597c0.118,0.158 0.274,0.293 0.468,0.405c0.194,0.112 0.414,0.209 0.66,0.291c0.246,0.082 0.498,0.167 0.756,0.255c0.258,0.088 0.51,0.187 0.756,0.297c0.246,0.11 0.466,0.249 0.66,0.417c0.194,0.168 0.35,0.374 0.468,0.618c0.118,0.244 0.177,0.544 0.177,0.9c0,0.376 -0.064,0.729 -0.192,1.059c-0.128,0.33 -0.315,0.617 -0.561,0.861c-0.246,0.244 -0.548,0.436 -0.906,0.576c-0.358,0.14 -0.765,0.21 -1.221,0.21c-0.556,0 -1.063,-0.101 -1.521,-0.303c-0.458,-0.202 -0.849,-0.475 -1.173,-0.819l0.336,-0.552c0.032,-0.044 0.071,-0.081 0.117,-0.111c0.046,-0.03 0.097,-0.045 0.153,-0.045c0.084,0 0.18,0.045 0.288,0.135c0.108,0.09 0.243,0.189 0.405,0.297c0.162,0.108 0.358,0.207 0.588,0.297c0.23,0.09 0.511,0.135 0.843,0.135c0.276,0 0.522,-0.038 0.738,-0.114c0.216,-0.076 0.399,-0.183 0.549,-0.321c0.15,-0.138 0.265,-0.303 0.345,-0.495c0.08,-0.192 0.12,-0.406 0.12,-0.642c0,-0.26 -0.059,-0.473 -0.177,-0.639c-0.118,-0.166 -0.273,-0.305 -0.465,-0.417c-0.192,-0.112 -0.411,-0.207 -0.657,-0.285c-0.246,-0.078 -0.498,-0.158 -0.756,-0.24c-0.258,-0.082 -0.51,-0.177 -0.756,-0.285c-0.246,-0.108 -0.465,-0.248 -0.657,-0.42c-0.192,-0.172 -0.347,-0.387 -0.465,-0.645c-0.118,-0.258 -0.177,-0.577 -0.177,-0.957c0,-0.304 0.059,-0.598 0.177,-0.882c0.118,-0.284 0.289,-0.536 0.513,-0.756c0.224,-0.22 0.501,-0.396 0.831,-0.528c0.33,-0.132 0.709,-0.198 1.137,-0.198c0.48,0 0.918,0.076 1.314,0.228c0.396,0.152 0.742,0.372 1.038,0.66l-0.282,0.552Z" style="fill:#4d4d4d;fill-rule:nonzero;"/></g><g><path d="M12.624,77.494l0.966,0c0.104,0 0.19,0.026 0.258,0.078c0.068,0.052 0.114,0.118 0.138,0.198l1.776,5.976c0.032,0.108 0.061,0.224 0.087,0.348c0.026,0.124 0.051,0.254 0.075,0.39c0.028,-0.136 0.056,-0.267 0.084,-0.393c0.028,-0.126 0.06,-0.241 0.096,-0.345l2.022,-5.976c0.024,-0.068 0.071,-0.131 0.141,-0.189c0.07,-0.058 0.155,-0.087 0.255,-0.087l0.336,0c0.104,0 0.189,0.026 0.255,0.078c0.066,0.052 0.113,0.118 0.141,0.198l2.01,5.976c0.072,0.208 0.136,0.446 0.192,0.714c0.024,-0.132 0.046,-0.258 0.066,-0.378c0.02,-0.12 0.046,-0.232 0.078,-0.336l1.782,-5.976c0.02,-0.072 0.065,-0.136 0.135,-0.192c0.07,-0.056 0.155,-0.084 0.255,-0.084l0.906,0l-2.682,8.598l-1.044,0l-2.178,-6.558c-0.044,-0.124 -0.084,-0.268 -0.12,-0.432c-0.02,0.08 -0.039,0.157 -0.057,0.231c-0.018,0.074 -0.037,0.141 -0.057,0.201l-2.19,6.558l-1.044,0l-2.682,-8.598Z" style="fill:#595959;fill-rule:nonzero;"/><path d="M31.11,77.494l0,0.948l-4.128,0l0,2.856l3.342,0l0,0.912l-3.342,0l0,2.934l4.128,0l0,0.948l-5.298,0l0,-8.598l5.298,0Z" style="fill:#595959;fill-rule:nonzero;"/><path d="M37.188,78.838c-0.036,0.06 -0.074,0.105 -0.114,0.135c-0.04,0.03 -0.092,0.045 -0.156,0.045c-0.068,0 -0.147,-0.034 -0.237,-0.102c-0.09,-0.068 -0.204,-0.143 -0.342,-0.225c-0.138,-0.082 -0.304,-0.157 -0.498,-0.225c-0.194,-0.068 -0.429,-0.102 -0.705,-0.102c-0.26,0 -0.49,0.035 -0.69,0.105c-0.2,0.07 -0.367,0.165 -0.501,0.285c-0.134,0.12 -0.235,0.261 -0.303,0.423c-0.068,0.162 -0.102,0.337 -0.102,0.525c0,0.24 0.059,0.439 0.177,0.597c0.118,0.158 0.274,0.293 0.468,0.405c0.194,0.112 0.414,0.209 0.66,0.291c0.246,0.082 0.498,0.167 0.756,0.255c0.258,0.088 0.51,0.187 0.756,0.297c0.246,0.11 0.466,0.249 0.66,0.417c0.194,0.168 0.35,0.374 0.468,0.618c0.118,0.244 0.177,0.544 0.177,0.9c0,0.376 -0.064,0.729 -0.192,1.059c-0.128,0.33 -0.315,0.617 -0.561,0.861c-0.246,0.244 -0.548,0.436 -0.906,0.576c-0.358,0.14 -0.765,0.21 -1.221,0.21c-0.556,0 -1.063,-0.101 -1.521,-0.303c-0.458,-0.202 -0.849,-0.475 -1.173,-0.819l0.336,-0.552c0.032,-0.044 0.071,-0.081 0.117,-0.111c0.046,-0.03 0.097,-0.045 0.153,-0.045c0.084,0 0.18,0.045 0.288,0.135c0.108,0.09 0.243,0.189 0.405,0.297c0.162,0.108 0.358,0.207 0.588,0.297c0.23,0.09 0.511,0.135 0.843,0.135c0.276,0 0.522,-0.038 0.738,-0.114c0.216,-0.076 0.399,-0.183 0.549,-0.321c0.15,-0.138 0.265,-0.303 0.345,-0.495c0.08,-0.192 0.12,-0.406 0.12,-0.642c0,-0.26 -0.059,-0.473 -0.177,-0.639c-0.118,-0.166 -0.273,-0.305 -0.465,-0.417c-0.192,-0.112 -0.411,-0.207 -0.657,-0.285c-0.246,-0.078 -0.498,-0.158 -0.756,-0.24c-0.258,-0.082 -0.51,-0.177 -0.756,-0.285c-0.246,-0.108 -0.465,-0.248 -0.657,-0.42c-0.192,-0.172 -0.347,-0.387 -0.465,-0.645c-0.118,-0.258 -0.177,-0.577 -0.177,-0.957c0,-0.304 0.059,-0.598 0.177,-0.882c0.118,-0.284 0.289,-0.536 0.513,-0.756c0.224,-0.22 0.501,-0.396 0.831,-0.528c0.33,-0.132 0.709,-0.198 1.137,-0.198c0.48,0 0.918,0.076 1.314,0.228c0.396,0.152 0.742,0.372 1.038,0.66l-0.282,0.552Z" style="fill:#595959;fill-rule:nonzero;"/><path d="M45,77.494l0,0.978l-2.778,0l0,7.62l-1.164,0l0,-7.62l-2.79,0l0,-0.978l6.732,0Z" style="fill:#595959;fill-rule:nonzero;"/></g><g transform="matrix(1,0,0,1,130.856,-370.776)"><text x="169.684px" y="406.868px" style="font-family:'Lato-Regular', 'Lato', sans-serif;font-size:12px;fill:none;">EU</text><text x="169.684px" y="406.868px" style="font-family:'Lato-Regular', 'Lato', sans-serif;font-size:12px;fill:#595959;">EU</text></g><g><path d="M97.95,133.494l0,0.948l-4.128,0l0,2.856l3.342,0l0,0.912l-3.342,0l0,2.934l4.128,0l0,0.948l-5.298,0l0,-8.598l5.298,0Z" style="fill:#595959;fill-rule:nonzero;"/><path d="M106.698,142.092l-0.9,0c-0.104,0 -0.188,-0.026 -0.252,-0.078c-0.064,-0.052 -0.112,-0.118 -0.144,-0.198l-0.804,-2.076l-3.858,0l-0.804,2.076c-0.028,0.072 -0.076,0.136 -0.144,0.192c-0.068,0.056 -0.152,0.084 -0.252,0.084l-0.9,0l3.438,-8.598l1.182,0l3.438,8.598Zm-5.634,-3.192l3.21,0l-1.35,-3.498c-0.088,-0.216 -0.174,-0.486 -0.258,-0.81c-0.044,0.164 -0.087,0.315 -0.129,0.453c-0.042,0.138 -0.083,0.259 -0.123,0.363l-1.35,3.492Z" style="fill:#595959;fill-rule:nonzero;"/><path d="M112.188,134.838c-0.036,0.06 -0.074,0.105 -0.114,0.135c-0.04,0.03 -0.092,0.045 -0.156,0.045c-0.068,0 -0.147,-0.034 -0.237,-0.102c-0.09,-0.068 -0.204,-0.143 -0.342,-0.225c-0.138,-0.082 -0.304,-0.157 -0.498,-0.225c-0.194,-0.068 -0.429,-0.102 -0.705,-0.102c-0.26,0 -0.49,0.035 -0.69,0.105c-0.2,0.07 -0.367,0.165 -0.501,0.285c-0.134,0.12 -0.235,0.261 -0.303,0.423c-0.068,0.162 -0.102,0.337 -0.102,0.525c0,0.24 0.059,0.439 0.177,0.597c0.118,0.158 0.274,0.293 0.468,0.405c0.194,0.112 0.414,0.209 0.66,0.291c0.246,0.082 0.498,0.167 0.756,0.255c0.258,0.088 0.51,0.187 0.756,0.297c0.246,0.11 0.466,0.249 0.66,0.417c0.194,0.168 0.35,0.374 0.468,0.618c0.118,0.244 0.177,0.544 0.177,0.9c0,0.376 -0.064,0.729 -0.192,1.059c-0.128,0.33 -0.315,0.617 -0.561,0.861c-0.246,0.244 -0.548,0.436 -0.906,0.576c-0.358,0.14 -0.765,0.21 -1.221,0.21c-0.556,0 -1.063,-0.101 -1.521,-0.303c-0.458,-0.202 -0.849,-0.475 -1.173,-0.819l0.336,-0.552c0.032,-0.044 0.071,-0.081 0.117,-0.111c0.046,-0.03 0.097,-0.045 0.153,-0.045c0.084,0 0.18,0.045 0.288,0.135c0.108,0.09 0.243,0.189 0.405,0.297c0.162,0.108 0.358,0.207 0.588,0.297c0.23,0.09 0.511,0.135 0.843,0.135c0.276,0 0.522,-0.038 0.738,-0.114c0.216,-0.076 0.399,-0.183 0.549,-0.321c0.15,-0.138 0.265,-0.303 0.345,-0.495c0.08,-0.192 0.12,-0.406 0.12,-0.642c0,-0.26 -0.059,-0.473 -0.177,-0.639c-0.118,-0.166 -0.273,-0.305 -0.465,-0.417c-0.192,-0.112 -0.411,-0.207 -0.657,-0.285c-0.246,-0.078 -0.498,-0.158 -0.756,-0.24c-0.258,-0.082 -0.51,-0.177 -0.756,-0.285c-0.246,-0.108 -0.465,-0.248 -0.657,-0.42c-0.192,-0.172 -0.347,-0.387 -0.465,-0.645c-0.118,-0.258 -0.177,-0.577 -0.177,-0.957c0,-0.304 0.059,-0.598 0.177,-0.882c0.118,-0.284 0.289,-0.536 0.513,-0.756c0.224,-0.22 0.501,-0.396 0.831,-0.528c0.33,-0.132 0.709,-0.198 1.137,-0.198c0.48,0 0.918,0.076 1.314,0.228c0.396,0.152 0.742,0.372 1.038,0.66l-0.282,0.552Z" style="fill:#595959;fill-rule:nonzero;"/><path d="M120,133.494l0,0.978l-2.778,0l0,7.62l-1.164,0l0,-7.62l-2.79,0l0,-0.978l6.732,0Z" style="fill:#595959;fill-rule:nonzero;"/></g><rect x="297" y="18.293" width="140" height="87" style="fill:none;stroke:#595959;stroke-width:1px;"/></g></svg>