<?xml version="1.0" encoding="UTF-8" standalone="no"?><!DOCTYPE svg PUBLIC "-//W3C//DTD SVG 1.1//EN" "http://www.w3.org/Graphics/SVG/1.1/DTD/svg11.dtd"><svg width="100%" height="100%" viewBox="0 0 728 420" version="1.1" xmlns="http://www.w3.org/2000/svg" xmlns:xlink="http://www.w3.org/1999/xlink" xml:space="preserve" style="fill-rule:evenodd;clip-rule:evenodd;stroke-linejoin:round;stroke-miterlimit:1.41421;"><rect x="0" y="0" width="728" height="420" style="fill:#ebebeb;"/><g><path d="M46.471,34.685l4.96,0l0,1.304l-6.512,0l0,-11.464l1.552,0l0,10.16Z" style="fill-rule:nonzero;"/><path d="M62.575,35.989l-1.2,0c-0.138,0 -0.25,-0.035 -0.336,-0.104c-0.085,-0.069 -0.149,-0.157 -0.192,-0.264l-1.072,-2.768l-5.144,0l-1.072,2.768c-0.037,0.096 -0.101,0.181 -0.192,0.256c-0.09,0.075 -0.202,0.112 -0.336,0.112l-1.2,0l4.584,-11.464l1.576,0l4.584,11.464Zm-7.512,-4.256l4.28,0l-1.8,-4.664c-0.117,-0.288 -0.232,-0.648 -0.344,-1.08c-0.058,0.219 -0.116,0.42 -0.172,0.604c-0.056,0.184 -0.11,0.345 -0.164,0.484l-1.8,4.656Z" style="fill-rule:nonzero;"/><path d="M66.687,30.101l-3.784,-5.576l1.544,0c0.112,0 0.195,0.019 0.248,0.056c0.054,0.037 0.102,0.091 0.144,0.16l2.992,4.592c0.038,-0.112 0.094,-0.235 0.168,-0.368l2.824,-4.192c0.048,-0.075 0.1,-0.135 0.156,-0.18c0.056,-0.045 0.124,-0.068 0.204,-0.068l1.48,0l-3.8,5.504l3.928,5.96l-1.536,0c-0.117,0 -0.209,-0.031 -0.276,-0.092c-0.066,-0.061 -0.121,-0.129 -0.164,-0.204l-3.072,-4.808c-0.037,0.112 -0.085,0.219 -0.144,0.32l-2.992,4.488c-0.048,0.075 -0.102,0.143 -0.164,0.204c-0.061,0.061 -0.148,0.092 -0.26,0.092l-1.44,0l3.944,-5.888Z" style="fill-rule:nonzero;"/><path d="M73.623,35.109c0,-0.139 0.026,-0.269 0.076,-0.392c0.051,-0.123 0.12,-0.229 0.208,-0.32c0.088,-0.091 0.194,-0.163 0.316,-0.216c0.123,-0.053 0.254,-0.08 0.392,-0.08c0.139,0 0.27,0.027 0.392,0.08c0.123,0.053 0.23,0.125 0.32,0.216c0.091,0.091 0.162,0.197 0.212,0.32c0.051,0.123 0.076,0.253 0.076,0.392c0,0.144 -0.025,0.276 -0.076,0.396c-0.05,0.12 -0.121,0.225 -0.212,0.316c-0.09,0.091 -0.197,0.161 -0.32,0.212c-0.122,0.051 -0.253,0.076 -0.392,0.076c-0.138,0 -0.269,-0.025 -0.392,-0.076c-0.122,-0.051 -0.228,-0.121 -0.316,-0.212c-0.088,-0.091 -0.157,-0.196 -0.208,-0.316c-0.05,-0.12 -0.076,-0.252 -0.076,-0.396Z" style="fill-rule:nonzero;"/><path d="M77.479,35.989l0,-8.104l0.848,0c0.203,0 0.331,0.099 0.384,0.296l0.112,0.88c0.352,-0.389 0.746,-0.704 1.18,-0.944c0.435,-0.24 0.938,-0.36 1.508,-0.36c0.443,0 0.834,0.073 1.172,0.22c0.339,0.147 0.622,0.355 0.848,0.624c0.227,0.269 0.399,0.593 0.516,0.972c0.118,0.379 0.176,0.797 0.176,1.256l0,5.16l-1.424,0l0,-5.16c0,-0.613 -0.14,-1.089 -0.42,-1.428c-0.28,-0.339 -0.708,-0.508 -1.284,-0.508c-0.421,0 -0.814,0.101 -1.18,0.304c-0.365,0.203 -0.702,0.477 -1.012,0.824l0,5.968l-1.424,0Z" style="fill-rule:nonzero;"/><path d="M89.655,27.757c0.592,0 1.127,0.099 1.604,0.296c0.478,0.197 0.883,0.477 1.216,0.84c0.334,0.363 0.59,0.801 0.768,1.316c0.179,0.515 0.268,1.089 0.268,1.724c0,0.64 -0.089,1.216 -0.268,1.728c-0.178,0.512 -0.434,0.949 -0.768,1.312c-0.333,0.363 -0.738,0.641 -1.216,0.836c-0.477,0.195 -1.012,0.292 -1.604,0.292c-0.592,0 -1.126,-0.097 -1.604,-0.292c-0.477,-0.195 -0.884,-0.473 -1.22,-0.836c-0.336,-0.363 -0.594,-0.8 -0.776,-1.312c-0.181,-0.512 -0.272,-1.088 -0.272,-1.728c0,-0.635 0.091,-1.209 0.272,-1.724c0.182,-0.515 0.44,-0.953 0.776,-1.316c0.336,-0.363 0.743,-0.643 1.22,-0.84c0.478,-0.197 1.012,-0.296 1.604,-0.296Zm0,7.232c0.8,0 1.398,-0.268 1.792,-0.804c0.395,-0.536 0.592,-1.284 0.592,-2.244c0,-0.965 -0.197,-1.717 -0.592,-2.256c-0.394,-0.539 -0.992,-0.808 -1.792,-0.808c-0.405,0 -0.757,0.069 -1.056,0.208c-0.298,0.139 -0.548,0.339 -0.748,0.6c-0.2,0.261 -0.349,0.583 -0.448,0.964c-0.098,0.381 -0.148,0.812 -0.148,1.292c0,0.48 0.05,0.909 0.148,1.288c0.099,0.379 0.248,0.697 0.448,0.956c0.2,0.259 0.45,0.457 0.748,0.596c0.299,0.139 0.651,0.208 1.056,0.208Z" style="fill-rule:nonzero;"/><path d="M100.799,29.325c-0.042,0.059 -0.085,0.104 -0.128,0.136c-0.042,0.032 -0.104,0.048 -0.184,0.048c-0.08,0 -0.166,-0.033 -0.26,-0.1c-0.093,-0.067 -0.212,-0.14 -0.356,-0.22c-0.144,-0.08 -0.318,-0.153 -0.524,-0.22c-0.205,-0.067 -0.457,-0.1 -0.756,-0.1c-0.394,0 -0.744,0.071 -1.048,0.212c-0.304,0.141 -0.558,0.345 -0.764,0.612c-0.205,0.267 -0.36,0.589 -0.464,0.968c-0.104,0.379 -0.156,0.803 -0.156,1.272c0,0.491 0.056,0.927 0.168,1.308c0.112,0.381 0.27,0.701 0.472,0.96c0.203,0.259 0.45,0.456 0.74,0.592c0.291,0.136 0.618,0.204 0.98,0.204c0.347,0 0.632,-0.041 0.856,-0.124c0.224,-0.083 0.411,-0.175 0.56,-0.276c0.15,-0.101 0.272,-0.193 0.368,-0.276c0.096,-0.083 0.192,-0.124 0.288,-0.124c0.123,0 0.214,0.045 0.272,0.136l0.4,0.52c-0.352,0.432 -0.792,0.748 -1.32,0.948c-0.528,0.2 -1.085,0.3 -1.672,0.3c-0.506,0 -0.977,-0.093 -1.412,-0.28c-0.434,-0.187 -0.812,-0.457 -1.132,-0.812c-0.32,-0.355 -0.572,-0.791 -0.756,-1.308c-0.184,-0.517 -0.276,-1.107 -0.276,-1.768c0,-0.603 0.084,-1.16 0.252,-1.672c0.168,-0.512 0.414,-0.953 0.736,-1.324c0.323,-0.371 0.722,-0.66 1.196,-0.868c0.475,-0.208 1.019,-0.312 1.632,-0.312c0.566,0 1.067,0.092 1.504,0.276c0.438,0.184 0.824,0.444 1.16,0.78l-0.376,0.512Z" style="fill-rule:nonzero;"/></g><rect x="44.919" y="62.5" width="295" height="295" style="fill:#fad861;"/><rect x="388.081" y="62.605" width="295" height="295" style="fill:#fad861;"/><g><path d="M62.835,75.389c0,0.751 -0.119,1.435 -0.357,2.051c-0.238,0.616 -0.574,1.143 -1.008,1.582c-0.434,0.439 -0.955,0.778 -1.561,1.018c-0.607,0.241 -1.279,0.361 -2.016,0.361l-3.752,0l0,-10.031l3.752,0c0.737,0 1.409,0.12 2.016,0.36c0.606,0.241 1.127,0.581 1.561,1.022c0.434,0.441 0.77,0.97 1.008,1.586c0.238,0.616 0.357,1.3 0.357,2.051Zm-1.393,0c0,-0.616 -0.084,-1.167 -0.252,-1.652c-0.168,-0.485 -0.406,-0.896 -0.714,-1.232c-0.308,-0.336 -0.682,-0.593 -1.12,-0.77c-0.439,-0.177 -0.927,-0.266 -1.463,-0.266l-2.387,0l0,7.833l2.387,0c0.536,0 1.024,-0.089 1.463,-0.266c0.438,-0.177 0.812,-0.433 1.12,-0.767c0.308,-0.333 0.546,-0.743 0.714,-1.228c0.168,-0.485 0.252,-1.036 0.252,-1.652Z" style="fill-rule:nonzero;"/><path d="M64.683,80.401l0,-10.031l3.199,0c0.616,0 1.146,0.061 1.592,0.182c0.446,0.121 0.812,0.294 1.099,0.518c0.287,0.224 0.499,0.498 0.637,0.822c0.138,0.325 0.207,0.69 0.207,1.096c0,0.247 -0.039,0.485 -0.116,0.714c-0.077,0.229 -0.194,0.441 -0.35,0.637c-0.156,0.196 -0.352,0.371 -0.588,0.525c-0.236,0.154 -0.512,0.28 -0.829,0.378c0.732,0.145 1.285,0.408 1.659,0.791c0.373,0.383 0.56,0.887 0.56,1.512c0,0.425 -0.079,0.812 -0.235,1.162c-0.156,0.35 -0.385,0.651 -0.686,0.903c-0.301,0.252 -0.67,0.447 -1.106,0.584c-0.436,0.138 -0.934,0.207 -1.494,0.207l-3.549,0Zm1.358,-4.571l0,3.493l2.17,0c0.387,0 0.719,-0.044 0.997,-0.133c0.278,-0.089 0.506,-0.214 0.686,-0.375c0.18,-0.161 0.312,-0.352 0.396,-0.574c0.084,-0.221 0.126,-0.465 0.126,-0.731c0,-0.518 -0.184,-0.928 -0.55,-1.229c-0.366,-0.301 -0.92,-0.451 -1.662,-0.451l-2.163,0Zm0,-0.966l1.792,0c0.382,0 0.714,-0.042 0.994,-0.126c0.28,-0.084 0.512,-0.201 0.696,-0.35c0.184,-0.149 0.321,-0.33 0.41,-0.543c0.088,-0.212 0.133,-0.444 0.133,-0.696c0,-0.588 -0.178,-1.02 -0.532,-1.295c-0.355,-0.275 -0.906,-0.413 -1.652,-0.413l-1.841,0l0,3.423Z" style="fill-rule:nonzero;"/><path d="M73.139,79.631c0,-0.121 0.022,-0.236 0.066,-0.343c0.044,-0.107 0.105,-0.201 0.182,-0.28c0.077,-0.079 0.169,-0.142 0.277,-0.189c0.107,-0.047 0.221,-0.07 0.343,-0.07c0.121,0 0.235,0.023 0.343,0.07c0.107,0.047 0.2,0.11 0.28,0.189c0.079,0.079 0.141,0.173 0.185,0.28c0.044,0.107 0.067,0.222 0.067,0.343c0,0.126 -0.023,0.241 -0.067,0.346c-0.044,0.105 -0.106,0.198 -0.185,0.277c-0.08,0.079 -0.173,0.141 -0.28,0.185c-0.108,0.045 -0.222,0.067 -0.343,0.067c-0.122,0 -0.236,-0.022 -0.343,-0.067c-0.108,-0.044 -0.2,-0.106 -0.277,-0.185c-0.077,-0.079 -0.138,-0.172 -0.182,-0.277c-0.044,-0.105 -0.066,-0.22 -0.066,-0.346Z" style="fill-rule:nonzero;"/><path d="M81.462,73.842c0,0.089 -0.017,0.174 -0.049,0.255c-0.033,0.082 -0.075,0.156 -0.126,0.221l-3.836,5.11l3.871,0l0,0.973l-5.341,0l0,-0.518c0,-0.061 0.015,-0.132 0.045,-0.214c0.03,-0.081 0.074,-0.159 0.13,-0.234l3.857,-5.145l-3.815,0l0,-0.98l5.264,0l0,0.532Z" style="fill-rule:nonzero;"/></g><g><path d="M57.984,106.054c0.415,0 0.786,-0.069 1.113,-0.207c0.326,-0.139 0.603,-0.332 0.829,-0.581c0.226,-0.249 0.399,-0.546 0.518,-0.892c0.119,-0.346 0.179,-0.726 0.179,-1.141l0,-6.022l1.351,0l0,6.022c0,0.572 -0.093,1.102 -0.277,1.59c-0.184,0.489 -0.448,0.912 -0.791,1.269c-0.343,0.357 -0.762,0.637 -1.256,0.84c-0.495,0.203 -1.05,0.304 -1.666,0.304c-0.616,0 -1.172,-0.101 -1.666,-0.304c-0.495,-0.203 -0.915,-0.483 -1.26,-0.84c-0.346,-0.357 -0.611,-0.78 -0.795,-1.269c-0.184,-0.488 -0.276,-1.018 -0.276,-1.59l0,-6.022l1.351,0l0,6.015c0,0.415 0.059,0.795 0.178,1.141c0.119,0.346 0.292,0.643 0.518,0.892c0.226,0.249 0.504,0.444 0.833,0.584c0.329,0.141 0.701,0.211 1.117,0.211Z" style="fill:#fff;fill-rule:nonzero;"/><path d="M69.443,98.76c-0.042,0.069 -0.087,0.121 -0.133,0.155c-0.047,0.035 -0.108,0.052 -0.182,0.052c-0.08,0 -0.172,-0.039 -0.277,-0.117c-0.105,-0.079 -0.238,-0.165 -0.399,-0.26c-0.161,-0.094 -0.355,-0.181 -0.581,-0.259c-0.226,-0.078 -0.5,-0.117 -0.822,-0.117c-0.304,0 -0.572,0.04 -0.805,0.121c-0.234,0.08 -0.429,0.19 -0.585,0.328c-0.156,0.138 -0.274,0.301 -0.353,0.487c-0.08,0.187 -0.119,0.389 -0.119,0.605c0,0.277 0.068,0.506 0.206,0.688c0.138,0.182 0.32,0.338 0.546,0.467c0.226,0.129 0.483,0.241 0.77,0.335c0.287,0.095 0.581,0.193 0.882,0.294c0.301,0.102 0.595,0.216 0.882,0.342c0.287,0.127 0.544,0.287 0.77,0.481c0.226,0.194 0.408,0.431 0.546,0.712c0.138,0.281 0.207,0.627 0.207,1.037c0,0.434 -0.075,0.84 -0.224,1.221c-0.15,0.38 -0.368,0.711 -0.655,0.992c-0.287,0.281 -0.639,0.502 -1.057,0.663c-0.418,0.162 -0.892,0.242 -1.424,0.242c-0.649,0 -1.241,-0.116 -1.775,-0.349c-0.534,-0.232 -0.99,-0.547 -1.368,-0.943l0.392,-0.637c0.037,-0.05 0.082,-0.093 0.136,-0.127c0.054,-0.035 0.113,-0.052 0.179,-0.052c0.098,0 0.21,0.052 0.336,0.155c0.126,0.104 0.283,0.218 0.472,0.342c0.189,0.125 0.418,0.239 0.686,0.343c0.268,0.103 0.596,0.155 0.984,0.155c0.322,0 0.609,-0.043 0.861,-0.131c0.252,-0.088 0.465,-0.211 0.64,-0.37c0.175,-0.159 0.309,-0.349 0.403,-0.57c0.093,-0.222 0.14,-0.468 0.14,-0.74c0,-0.3 -0.069,-0.545 -0.207,-0.737c-0.138,-0.191 -0.318,-0.351 -0.542,-0.48c-0.224,-0.129 -0.48,-0.239 -0.767,-0.328c-0.287,-0.09 -0.581,-0.183 -0.882,-0.277c-0.301,-0.095 -0.595,-0.204 -0.882,-0.328c-0.287,-0.125 -0.542,-0.286 -0.766,-0.484c-0.224,-0.199 -0.405,-0.446 -0.543,-0.744c-0.138,-0.297 -0.206,-0.665 -0.206,-1.102c0,-0.351 0.068,-0.69 0.206,-1.017c0.138,-0.327 0.337,-0.618 0.599,-0.871c0.261,-0.254 0.584,-0.456 0.969,-0.608c0.385,-0.153 0.827,-0.229 1.327,-0.229c0.56,0 1.071,0.088 1.533,0.263c0.462,0.175 0.865,0.429 1.211,0.761l-0.329,0.636Z" style="fill:#fff;fill-rule:nonzero;"/><path d="M73.216,102.984l0,4.135l-1.351,0l0,-9.908l2.835,0c0.634,0 1.183,0.063 1.645,0.19c0.462,0.127 0.843,0.31 1.144,0.55c0.301,0.239 0.524,0.529 0.669,0.868c0.144,0.338 0.217,0.717 0.217,1.137c0,0.35 -0.056,0.677 -0.168,0.982c-0.112,0.304 -0.275,0.577 -0.487,0.819c-0.212,0.242 -0.471,0.448 -0.777,0.619c-0.306,0.17 -0.652,0.299 -1.039,0.387c0.168,0.097 0.317,0.237 0.448,0.422l2.926,3.934l-1.204,0c-0.248,0 -0.43,-0.095 -0.546,-0.284l-2.604,-3.54c-0.08,-0.11 -0.166,-0.19 -0.259,-0.238c-0.094,-0.049 -0.234,-0.073 -0.42,-0.073l-1.029,0Zm0,-0.975l1.421,0c0.396,0 0.745,-0.047 1.046,-0.141c0.301,-0.095 0.553,-0.229 0.756,-0.401c0.203,-0.173 0.356,-0.38 0.459,-0.619c0.102,-0.24 0.154,-0.505 0.154,-0.795c0,-0.59 -0.198,-1.035 -0.592,-1.335c-0.394,-0.299 -0.981,-0.449 -1.76,-0.449l-1.484,0l0,3.74Z" style="fill:#fff;fill-rule:nonzero;"/><path d="M80.139,106.358c0,-0.12 0.022,-0.232 0.066,-0.338c0.044,-0.107 0.105,-0.199 0.182,-0.277c0.077,-0.078 0.169,-0.141 0.277,-0.187c0.107,-0.046 0.221,-0.069 0.343,-0.069c0.121,0 0.235,0.023 0.343,0.069c0.107,0.046 0.2,0.109 0.28,0.187c0.079,0.078 0.141,0.17 0.185,0.277c0.044,0.106 0.067,0.218 0.067,0.338c0,0.125 -0.023,0.239 -0.067,0.343c-0.044,0.103 -0.106,0.194 -0.185,0.273c-0.08,0.078 -0.173,0.139 -0.28,0.183c-0.108,0.044 -0.222,0.066 -0.343,0.066c-0.122,0 -0.236,-0.022 -0.343,-0.066c-0.108,-0.044 -0.2,-0.105 -0.277,-0.183c-0.077,-0.079 -0.138,-0.17 -0.182,-0.273c-0.044,-0.104 -0.066,-0.218 -0.066,-0.343Z" style="fill:#fff;fill-rule:nonzero;"/><path d="M88.462,100.64c0,0.088 -0.017,0.172 -0.049,0.253c-0.033,0.08 -0.075,0.153 -0.126,0.218l-3.836,5.047l3.871,0l0,0.961l-5.341,0l0,-0.512c0,-0.06 0.015,-0.13 0.045,-0.211c0.03,-0.08 0.074,-0.158 0.13,-0.231l3.857,-5.082l-3.815,0l0,-0.968l5.264,0l0,0.525Z" style="fill:#fff;fill-rule:nonzero;"/></g><g><path d="M64.116,231.203l0,1.106l-4.816,0l0,3.507l4.116,0l0,1.106l-4.116,0l0,4.312l-1.365,0l0,-10.031l6.181,0Z" style="fill:#fff;fill-rule:nonzero;"/><rect x="66.111" y="231.203" width="1.358" height="10.031" style="fill:#fff;fill-rule:nonzero;"/><path d="M70.857,231.203c0.121,0 0.211,0.016 0.269,0.046c0.058,0.03 0.125,0.092 0.2,0.185l5.81,7.56c-0.014,-0.121 -0.024,-0.239 -0.028,-0.353c-0.005,-0.114 -0.007,-0.225 -0.007,-0.333l0,-7.105l1.19,0l0,10.031l-0.686,0c-0.108,0 -0.198,-0.018 -0.27,-0.056c-0.072,-0.037 -0.143,-0.1 -0.213,-0.189l-5.803,-7.553c0.009,0.117 0.016,0.231 0.021,0.343c0.004,0.112 0.007,0.215 0.007,0.308l0,7.147l-1.19,0l0,-10.031l0.7,0Z" style="fill:#fff;fill-rule:nonzero;"/><path d="M80.139,240.464c0,-0.121 0.022,-0.235 0.066,-0.343c0.044,-0.107 0.105,-0.2 0.182,-0.28c0.077,-0.079 0.169,-0.142 0.277,-0.189c0.107,-0.046 0.221,-0.07 0.343,-0.07c0.121,0 0.235,0.024 0.343,0.07c0.107,0.047 0.2,0.11 0.28,0.189c0.079,0.08 0.141,0.173 0.185,0.28c0.044,0.108 0.067,0.222 0.067,0.343c0,0.126 -0.023,0.242 -0.067,0.347c-0.044,0.105 -0.106,0.197 -0.185,0.276c-0.08,0.08 -0.173,0.142 -0.28,0.186c-0.108,0.044 -0.222,0.066 -0.343,0.066c-0.122,0 -0.236,-0.022 -0.343,-0.066c-0.108,-0.044 -0.2,-0.106 -0.277,-0.186c-0.077,-0.079 -0.138,-0.171 -0.182,-0.276c-0.044,-0.105 -0.066,-0.221 -0.066,-0.347Z" style="fill:#fff;fill-rule:nonzero;"/><path d="M88.462,234.675c0,0.089 -0.017,0.174 -0.049,0.256c-0.033,0.082 -0.075,0.155 -0.126,0.22l-3.836,5.11l3.871,0l0,0.973l-5.341,0l0,-0.518c0,-0.06 0.015,-0.131 0.045,-0.213c0.03,-0.082 0.074,-0.16 0.13,-0.235l3.857,-5.145l-3.815,0l0,-0.98l5.264,0l0,0.532Z" style="fill:#fff;fill-rule:nonzero;"/></g><g><g><path d="M151.36,123.501l14.085,-8.132l0,27.47l-14.085,8.132l0,-27.47Z" style="fill:#d9d9d9;"/><path d="M151.36,123.501l-14.086,-8.132l0,27.47l14.086,8.132l0,-27.47Z" style="fill:#666;"/><path d="M151.36,107.236l-14.086,8.133l14.086,8.132l14.085,-8.132l-14.085,-8.133Z" style="fill:#999;"/></g><g><path d="M132.639,134.653l14.085,-8.133l0,27.47l-14.085,8.133l0,-27.47Z" style="fill:#d9d9d9;"/><path d="M132.639,134.653l-14.086,-8.133l0,27.47l14.086,8.133l0,-27.47Z" style="fill:#666;"/><path d="M132.639,118.388l-14.086,8.132l14.086,8.133l14.085,-8.133l-14.085,-8.132Z" style="fill:#999;"/></g><g><path d="M113.997,145.804l14.086,-8.132l0,27.47l-14.086,8.132l0,-27.47Z" style="fill:#d9d9d9;"/><path d="M113.997,145.804l-14.085,-8.132l0,27.47l14.085,8.132l0,-27.47Z" style="fill:#666;"/><path d="M113.997,129.539l-14.085,8.133l14.085,8.132l14.086,-8.132l-14.086,-8.133Z" style="fill:#999;"/></g></g><g><g><path d="M270.841,123.501l14.086,-8.132l0,27.47l-14.086,8.132l0,-27.47Z" style="fill:#d9d9d9;"/><path d="M270.841,123.501l-14.086,-8.132l0,27.47l14.086,8.132l0,-27.47Z" style="fill:#666;"/><path d="M270.841,107.236l-14.086,8.133l14.086,8.132l14.086,-8.132l-14.086,-8.133Z" style="fill:#999;"/></g><g><path d="M252.12,134.653l14.086,-8.133l0,27.47l-14.086,8.133l0,-27.47Z" style="fill:#d9d9d9;"/><path d="M252.12,134.653l-14.086,-8.133l0,27.47l14.086,8.133l0,-27.47Z" style="fill:#666;"/><path d="M252.12,118.388l-14.086,8.132l14.086,8.133l14.086,-8.133l-14.086,-8.132Z" style="fill:#999;"/></g><g><path d="M233.479,145.804l14.086,-8.132l0,27.47l-14.086,8.132l0,-27.47Z" style="fill:#d9d9d9;"/><path d="M233.479,145.804l-14.086,-8.132l0,27.47l14.086,8.132l0,-27.47Z" style="fill:#666;"/><path d="M233.479,129.539l-14.086,8.133l14.086,8.132l14.086,-8.132l-14.086,-8.133Z" style="fill:#999;"/></g></g><g><g><path d="M142.057,262.991l14.086,-8.133l0,27.47l-14.086,8.133l0,-27.47Z" style="fill:#d9d9d9;"/><path d="M142.057,262.991l-14.086,-8.133l0,27.47l14.086,8.133l0,-27.47Z" style="fill:#666;"/><path d="M142.057,246.726l-14.086,8.132l14.086,8.133l14.086,-8.133l-14.086,-8.132Z" style="fill:#999;"/></g><g><path d="M160.698,274.142l14.086,-8.132l0,27.47l-14.086,8.132l0,-27.47Z" style="fill:#d9d9d9;"/><path d="M160.698,274.142l-14.086,-8.132l0,27.47l14.086,8.132l0,-27.47Z" style="fill:#666;"/><path d="M160.698,257.877l-14.086,8.133l14.086,8.132l14.086,-8.132l-14.086,-8.133Z" style="fill:#999;"/></g><g><path d="M123.336,274.142l14.086,-8.132l0,27.47l-14.086,8.132l0,-27.47Z" style="fill:#d9d9d9;"/><path d="M123.336,274.142l-14.086,-8.132l0,27.47l14.086,8.132l0,-27.47Z" style="fill:#666;"/><path d="M123.336,257.877l-14.086,8.133l14.086,8.132l14.086,-8.132l-14.086,-8.133Z" style="fill:#999;"/></g><g><path d="M142.057,285.294l14.086,-8.133l0,27.47l-14.086,8.133l0,-27.47Z" style="fill:#d9d9d9;"/><path d="M142.057,285.294l-14.086,-8.133l0,27.47l14.086,8.133l0,-27.47Z" style="fill:#666;"/><path d="M142.057,269.029l-14.086,8.132l14.086,8.133l14.086,-8.133l-14.086,-8.132Z" style="fill:#999;"/></g><g><path d="M104.659,285.294l14.086,-8.133l0,27.47l-14.086,8.133l0,-27.47Z" style="fill:#d9d9d9;"/><path d="M104.659,285.294l-14.086,-8.133l0,27.47l14.086,8.133l0,-27.47Z" style="fill:#666;"/><path d="M104.659,269.029l-14.086,8.132l14.086,8.133l14.086,-8.133l-14.086,-8.132Z" style="fill:#999;"/></g></g><g><g><path d="M261.539,262.991l14.086,-8.133l0,27.47l-14.086,8.133l0,-27.47Z" style="fill:#d9d9d9;"/><path d="M261.539,262.991l-14.086,-8.133l0,27.47l14.086,8.133l0,-27.47Z" style="fill:#666;"/><path d="M261.539,246.726l-14.086,8.132l14.086,8.133l14.086,-8.133l-14.086,-8.132Z" style="fill:#999;"/></g><g><path d="M280.18,274.142l14.086,-8.132l0,27.47l-14.086,8.132l0,-27.47Z" style="fill:#d9d9d9;"/><path d="M280.18,274.142l-14.086,-8.132l0,27.47l14.086,8.132l0,-27.47Z" style="fill:#666;"/><path d="M280.18,257.877l-14.086,8.133l14.086,8.132l14.086,-8.132l-14.086,-8.133Z" style="fill:#999;"/></g><g><path d="M242.818,274.142l14.086,-8.132l0,27.47l-14.086,8.132l0,-27.47Z" style="fill:#d9d9d9;"/><path d="M242.818,274.142l-14.086,-8.132l0,27.47l14.086,8.132l0,-27.47Z" style="fill:#666;"/><path d="M242.818,257.877l-14.086,8.133l14.086,8.132l14.086,-8.132l-14.086,-8.133Z" style="fill:#999;"/></g><g><path d="M261.539,285.294l14.086,-8.133l0,27.47l-14.086,8.133l0,-27.47Z" style="fill:#d9d9d9;"/><path d="M261.539,285.294l-14.086,-8.133l0,27.47l14.086,8.133l0,-27.47Z" style="fill:#666;"/><path d="M261.539,269.029l-14.086,8.132l14.086,8.133l14.086,-8.133l-14.086,-8.132Z" style="fill:#999;"/></g><g><path d="M224.141,285.294l14.086,-8.133l0,27.47l-14.086,8.133l0,-27.47Z" style="fill:#d9d9d9;"/><path d="M224.141,285.294l-14.086,-8.133l0,27.47l14.086,8.133l0,-27.47Z" style="fill:#666;"/><path d="M224.141,269.029l-14.086,8.132l14.086,8.133l14.086,-8.133l-14.086,-8.132Z" style="fill:#999;"/></g></g><g><path d="M402.661,70.37l1.127,0c0.121,0 0.221,0.03 0.301,0.091c0.079,0.061 0.133,0.138 0.161,0.231l2.072,6.972c0.037,0.126 0.071,0.261 0.101,0.406c0.03,0.145 0.06,0.296 0.088,0.455c0.032,-0.159 0.065,-0.312 0.098,-0.459c0.032,-0.147 0.07,-0.281 0.112,-0.402l2.359,-6.972c0.028,-0.079 0.082,-0.153 0.164,-0.221c0.082,-0.067 0.181,-0.101 0.298,-0.101l0.392,0c0.121,0 0.22,0.03 0.297,0.091c0.077,0.061 0.132,0.138 0.165,0.231l2.345,6.972c0.084,0.243 0.158,0.52 0.224,0.833c0.028,-0.154 0.053,-0.301 0.077,-0.441c0.023,-0.14 0.053,-0.271 0.091,-0.392l2.079,-6.972c0.023,-0.084 0.075,-0.159 0.157,-0.224c0.082,-0.065 0.181,-0.098 0.298,-0.098l1.057,0l-3.129,10.031l-1.218,0l-2.541,-7.651c-0.052,-0.145 -0.098,-0.313 -0.14,-0.504c-0.024,0.093 -0.046,0.183 -0.067,0.269c-0.021,0.087 -0.043,0.165 -0.066,0.235l-2.555,7.651l-1.218,0l-3.129,-10.031Z" style="fill-rule:nonzero;"/><path d="M416.927,70.37l1.127,0c0.121,0 0.221,0.03 0.301,0.091c0.079,0.061 0.133,0.138 0.161,0.231l2.072,6.972c0.037,0.126 0.071,0.261 0.101,0.406c0.03,0.145 0.06,0.296 0.088,0.455c0.032,-0.159 0.065,-0.312 0.098,-0.459c0.032,-0.147 0.07,-0.281 0.112,-0.402l2.359,-6.972c0.028,-0.079 0.082,-0.153 0.164,-0.221c0.082,-0.067 0.181,-0.101 0.298,-0.101l0.392,0c0.121,0 0.22,0.03 0.297,0.091c0.077,0.061 0.132,0.138 0.165,0.231l2.345,6.972c0.084,0.243 0.158,0.52 0.224,0.833c0.028,-0.154 0.053,-0.301 0.077,-0.441c0.023,-0.14 0.053,-0.271 0.091,-0.392l2.079,-6.972c0.023,-0.084 0.075,-0.159 0.157,-0.224c0.082,-0.065 0.181,-0.098 0.298,-0.098l1.057,0l-3.129,10.031l-1.218,0l-2.541,-7.651c-0.052,-0.145 -0.098,-0.313 -0.14,-0.504c-0.024,0.093 -0.046,0.183 -0.067,0.269c-0.021,0.087 -0.043,0.165 -0.066,0.235l-2.555,7.651l-1.218,0l-3.129,-10.031Z" style="fill-rule:nonzero;"/><path d="M431.193,70.37l1.127,0c0.121,0 0.221,0.03 0.301,0.091c0.079,0.061 0.133,0.138 0.161,0.231l2.072,6.972c0.037,0.126 0.071,0.261 0.101,0.406c0.03,0.145 0.06,0.296 0.088,0.455c0.032,-0.159 0.065,-0.312 0.098,-0.459c0.032,-0.147 0.07,-0.281 0.112,-0.402l2.359,-6.972c0.028,-0.079 0.082,-0.153 0.164,-0.221c0.082,-0.067 0.181,-0.101 0.298,-0.101l0.392,0c0.121,0 0.22,0.03 0.297,0.091c0.077,0.061 0.132,0.138 0.165,0.231l2.345,6.972c0.084,0.243 0.158,0.52 0.224,0.833c0.028,-0.154 0.053,-0.301 0.077,-0.441c0.023,-0.14 0.053,-0.271 0.091,-0.392l2.079,-6.972c0.023,-0.084 0.075,-0.159 0.157,-0.224c0.082,-0.065 0.181,-0.098 0.298,-0.098l1.057,0l-3.129,10.031l-1.218,0l-2.541,-7.651c-0.052,-0.145 -0.098,-0.313 -0.14,-0.504c-0.024,0.093 -0.046,0.183 -0.067,0.269c-0.021,0.087 -0.043,0.165 -0.066,0.235l-2.555,7.651l-1.218,0l-3.129,-10.031Z" style="fill-rule:nonzero;"/><path d="M445.123,79.631c0,-0.121 0.022,-0.236 0.066,-0.343c0.044,-0.107 0.105,-0.201 0.182,-0.28c0.077,-0.079 0.169,-0.142 0.277,-0.189c0.107,-0.047 0.221,-0.07 0.343,-0.07c0.121,0 0.235,0.023 0.343,0.07c0.107,0.047 0.2,0.11 0.28,0.189c0.079,0.079 0.141,0.173 0.185,0.28c0.044,0.107 0.067,0.222 0.067,0.343c0,0.126 -0.023,0.241 -0.067,0.346c-0.044,0.105 -0.106,0.198 -0.185,0.277c-0.08,0.079 -0.173,0.141 -0.28,0.185c-0.108,0.045 -0.222,0.067 -0.343,0.067c-0.122,0 -0.236,-0.022 -0.343,-0.067c-0.108,-0.044 -0.2,-0.106 -0.277,-0.185c-0.077,-0.079 -0.138,-0.172 -0.182,-0.277c-0.044,-0.105 -0.066,-0.22 -0.066,-0.346Z" style="fill-rule:nonzero;"/><path d="M453.446,73.842c0,0.089 -0.017,0.174 -0.049,0.255c-0.033,0.082 -0.075,0.156 -0.126,0.221l-3.836,5.11l3.871,0l0,0.973l-5.341,0l0,-0.518c0,-0.061 0.015,-0.132 0.045,-0.214c0.03,-0.081 0.074,-0.159 0.13,-0.234l3.857,-5.145l-3.815,0l0,-0.98l5.264,0l0,0.532Z" style="fill-rule:nonzero;"/></g><g><g><path d="M472.196,193.351l14.086,-8.132l0,27.469l-14.086,8.133l0,-27.47Z" style="fill:#d9d9d9;"/><path d="M472.196,193.351l-14.086,-8.132l0,27.469l14.086,8.133l0,-27.47Z" style="fill:#666;"/><path d="M472.196,177.086l-14.086,8.133l14.086,8.132l14.086,-8.132l-14.086,-8.133Z" style="fill:#999;"/></g><g><path d="M490.837,204.503l14.086,-8.133l0,27.47l-14.086,8.132l0,-27.469Z" style="fill:#d9d9d9;"/><path d="M490.837,204.503l-14.086,-8.133l0,27.47l14.086,8.132l0,-27.469Z" style="fill:#666;"/><path d="M490.837,188.238l-14.086,8.132l14.086,8.133l14.086,-8.133l-14.086,-8.132Z" style="fill:#999;"/></g><g><path d="M453.475,204.503l14.086,-8.133l0,27.47l-14.086,8.132l0,-27.469Z" style="fill:#d9d9d9;"/><path d="M453.475,204.503l-14.086,-8.133l0,27.47l14.086,8.132l0,-27.469Z" style="fill:#666;"/><path d="M453.475,188.238l-14.086,8.132l14.086,8.133l14.086,-8.133l-14.086,-8.132Z" style="fill:#999;"/></g><g><path d="M472.196,215.654l14.086,-8.132l0,27.469l-14.086,8.133l0,-27.47Z" style="fill:#d9d9d9;"/><path d="M472.196,215.654l-14.086,-8.132l0,27.469l14.086,8.133l0,-27.47Z" style="fill:#666;"/><path d="M472.196,199.389l-14.086,8.133l14.086,8.132l14.086,-8.132l-14.086,-8.133Z" style="fill:#999;"/></g><g><path d="M434.799,215.654l14.085,-8.132l0,27.469l-14.085,8.133l0,-27.47Z" style="fill:#d9d9d9;"/><path d="M434.799,215.654l-14.086,-8.132l0,27.469l14.086,8.133l0,-27.47Z" style="fill:#666;"/><path d="M434.799,199.389l-14.086,8.133l14.086,8.132l14.085,-8.132l-14.085,-8.133Z" style="fill:#999;"/></g></g><g><g><path d="M598.921,187.775l14.086,-8.132l0,27.47l-14.086,8.132l0,-27.47Z" style="fill:#d9d9d9;"/><path d="M598.921,187.775l-14.086,-8.132l0,27.47l14.086,8.132l0,-27.47Z" style="fill:#666;"/><path d="M598.921,171.51l-14.086,8.133l14.086,8.132l14.086,-8.132l-14.086,-8.133Z" style="fill:#999;"/></g><g><path d="M617.562,198.927l14.086,-8.133l0,27.47l-14.086,8.133l0,-27.47Z" style="fill:#d9d9d9;"/><path d="M617.562,198.927l-14.086,-8.133l0,27.47l14.086,8.133l0,-27.47Z" style="fill:#666;"/><path d="M617.562,182.662l-14.086,8.132l14.086,8.133l14.086,-8.133l-14.086,-8.132Z" style="fill:#999;"/></g><g><path d="M580.2,198.927l14.086,-8.133l0,27.47l-14.086,8.133l0,-27.47Z" style="fill:#d9d9d9;"/><path d="M580.2,198.927l-14.086,-8.133l0,27.47l14.086,8.133l0,-27.47Z" style="fill:#666;"/><path d="M580.2,182.662l-14.086,8.132l14.086,8.133l14.086,-8.133l-14.086,-8.132Z" style="fill:#999;"/></g><g><path d="M598.921,210.078l14.086,-8.132l0,27.47l-14.086,8.132l0,-27.47Z" style="fill:#d9d9d9;"/><path d="M598.921,210.078l-14.086,-8.132l0,27.47l14.086,8.132l0,-27.47Z" style="fill:#666;"/><path d="M598.921,193.813l-14.086,8.133l14.086,8.132l14.086,-8.132l-14.086,-8.133Z" style="fill:#999;"/></g><g><path d="M561.559,210.078l14.085,-8.132l0,27.47l-14.085,8.132l0,-27.47Z" style="fill:#d9d9d9;"/><path d="M561.559,210.078l-14.086,-8.132l0,27.47l14.086,8.132l0,-27.47Z" style="fill:#666;"/><path d="M561.559,193.813l-14.086,8.133l14.086,8.132l14.085,-8.132l-14.085,-8.133Z" style="fill:#999;"/></g><g><path d="M636.363,210.078l14.086,-8.132l0,27.47l-14.086,8.132l0,-27.47Z" style="fill:#d9d9d9;"/><path d="M636.363,210.078l-14.086,-8.132l0,27.47l14.086,8.132l0,-27.47Z" style="fill:#666;"/><path d="M636.363,193.813l-14.086,8.133l14.086,8.132l14.086,-8.132l-14.086,-8.133Z" style="fill:#999;"/></g><g><path d="M580.12,221.23l14.086,-8.133l0,27.47l-14.086,8.133l0,-27.47Z" style="fill:#d9d9d9;"/><path d="M580.12,221.23l-14.086,-8.133l0,27.47l14.086,8.133l0,-27.47Z" style="fill:#666;"/><path d="M580.12,204.965l-14.086,8.132l14.086,8.133l14.086,-8.133l-14.086,-8.132Z" style="fill:#999;"/></g><g><path d="M617.562,221.23l14.086,-8.133l0,27.47l-14.086,8.133l0,-27.47Z" style="fill:#d9d9d9;"/><path d="M617.562,221.23l-14.086,-8.133l0,27.47l14.086,8.133l0,-27.47Z" style="fill:#666;"/><path d="M617.562,204.965l-14.086,8.132l14.086,8.133l14.086,-8.133l-14.086,-8.132Z" style="fill:#999;"/></g></g></svg>