<?xml version="1.0" encoding="UTF-8" standalone="no"?><!DOCTYPE svg PUBLIC "-//W3C//DTD SVG 1.1//EN" "http://www.w3.org/Graphics/SVG/1.1/DTD/svg11.dtd"><svg width="100%" height="100%" viewBox="0 0 1200 715" version="1.1" xmlns="http://www.w3.org/2000/svg" xmlns:xlink="http://www.w3.org/1999/xlink" xml:space="preserve" style="fill-rule:evenodd;clip-rule:evenodd;stroke-linejoin:round;stroke-miterlimit:1.5;"><path d="M381.418,227.445l0,-82.757l-181.359,0l-85.97,0l0,222.368" style="fill:none;stroke:#595959;stroke-width:1px;"/><path d="M247.738,162.852l0,94.04" style="fill:none;stroke:#595959;stroke-width:1px;stroke-linecap:round;"/><path d="M597.741,61.181l0,110.468" style="fill:none;stroke:#595959;stroke-width:1px;"/><path d="M551.174,61.181l-303.436,0l0,65.344" style="fill:none;stroke:#595959;stroke-width:1px;stroke-linecap:round;"/><path d="M646.533,61.181l272.435,0.375l0,129.937" style="fill:none;stroke:#595959;stroke-width:1px;stroke-linecap:round;"/><path d="M381.418,227.445l0,139.611" style="fill:none;stroke:#595959;stroke-width:1px;"/><path d="M381.418,275.056l128.073,0l0.649,92" style="fill:none;stroke:#595959;stroke-width:1px;"/><path d="M737.245,254.25l0,-109.562l135.043,0" style="fill:none;stroke:#595959;stroke-width:1px;"/><path d="M967.647,209.695l11.216,0" style="fill:none;stroke:#595959;stroke-width:1px;"/><path d="M814.604,275.056l0,245.955l-54.746,0" style="fill:none;stroke:#595959;stroke-width:1px;"/><path d="M918.594,521.066l1.374,-246.01" style="fill:none;stroke:#595959;stroke-width:1px;"/><path d="M919.968,227.858l0,47.198l-105.364,0l207.979,0l0,65.797" style="fill:none;stroke:#595959;stroke-width:1px;"/><path d="M542.875,531.533l0,-10.522l110.907,0l0,10.522" style="fill:none;stroke:#595959;stroke-width:1px;"/><path d="M653.782,521.011l105.706,0l0,10.522" style="fill:none;stroke:#595959;stroke-width:1px;"/><path d="M1026.19,521.011l-107.595,0l0,11.455" style="fill:none;stroke:#595959;stroke-width:1px;"/><path d="M1026.19,521.011l0,11.455" style="fill:none;stroke:#595959;stroke-width:1px;"/><g><g><path d="M1119.08,197.895l14.868,-8.584l0,28.996l-14.868,8.585l0,-28.997Z" style="fill:#2e809c;"/><path d="M1119.08,197.895l-14.869,-8.584l0,28.996l14.869,8.585l0,-28.997Z" style="fill:#1c3144;"/><path d="M1119.08,180.726l-14.869,8.585l14.869,8.584l14.868,-8.584l-14.868,-8.585Z" style="fill:#19647e;"/></g><g><path d="M1099.32,209.667l14.869,-8.585l0,28.997l-14.869,8.584l0,-28.996Z" style="fill:#2e809c;"/><path d="M1099.32,209.667l-14.869,-8.585l0,28.997l14.869,8.584l0,-28.996Z" style="fill:#1c3144;"/><path d="M1099.32,192.498l-14.869,8.584l14.869,8.585l14.869,-8.585l-14.869,-8.584Z" style="fill:#19647e;"/></g></g><g><g><path d="M607.622,240.47l14.869,-8.584l0,28.997l-14.869,8.584l0,-28.997Z" style="fill:#2e809c;"/><path d="M607.622,240.47l-14.869,-8.584l0,28.997l14.869,8.584l0,-28.997Z" style="fill:#1c3144;"/><path d="M607.622,223.301l-14.869,8.585l14.869,8.584l14.869,-8.584l-14.869,-8.585Z" style="fill:#19647e;"/></g><g><path d="M587.861,252.242l14.868,-8.585l0,28.997l-14.868,8.585l0,-28.997Z" style="fill:#2e809c;"/><path d="M587.861,252.242l-14.869,-8.585l0,28.997l14.869,8.585l0,-28.997Z" style="fill:#1c3144;"/><path d="M587.861,235.073l-14.869,8.584l14.869,8.585l14.868,-8.585l-14.868,-8.584Z" style="fill:#19647e;"/></g></g><g><g><path d="M785.649,409.777l14.869,-8.585l0,28.997l-14.869,8.584l0,-28.996Z" style="fill:#2e809c;"/><path d="M785.649,409.777l-14.869,-8.585l0,28.997l14.869,8.584l0,-28.996Z" style="fill:#1c3144;"/><path d="M785.649,392.607l-14.869,8.585l14.869,8.585l14.869,-8.585l-14.869,-8.585Z" style="fill:#19647e;"/></g><g><path d="M765.887,421.548l14.869,-8.585l0,28.997l-14.869,8.585l0,-28.997Z" style="fill:#2e809c;"/><path d="M765.887,421.548l-14.869,-8.585l0,28.997l14.869,8.585l0,-28.997Z" style="fill:#1c3144;"/><path d="M765.887,404.379l-14.869,8.584l14.869,8.585l14.869,-8.585l-14.869,-8.584Z" style="fill:#19647e;"/></g></g><g><g><path d="M257.619,324.788l14.869,-8.585l0,28.997l-14.869,8.585l0,-28.997Z" style="fill:#2e809c;"/><path d="M257.619,324.788l-14.869,-8.585l0,28.997l14.869,8.585l0,-28.997Z" style="fill:#1c3144;"/><path d="M257.619,307.619l-14.869,8.584l14.869,8.585l14.869,-8.585l-14.869,-8.584Z" style="fill:#19647e;"/></g><g><path d="M237.858,336.559l14.868,-8.584l0,28.996l-14.868,8.585l0,-28.997Z" style="fill:#2e809c;"/><path d="M237.858,336.559l-14.869,-8.584l0,28.996l14.869,8.585l0,-28.997Z" style="fill:#1c3144;"/><path d="M237.858,319.39l-14.869,8.585l14.869,8.584l14.868,-8.584l-14.868,-8.585Z" style="fill:#19647e;"/><path d="M237.858,319.39l-14.869,8.585l14.869,8.584l14.868,-8.584l-14.868,-8.585Z" style="fill:#19647e;"/></g></g><g><rect x="870.914" y="532.466" width="95.359" height="36.327" style="fill:#ffd131;"/><text x="895.468px" y="557.728px" style="font-family:'Lato-Regular', 'Lato', sans-serif;font-size:19.677px;">Site.z</text></g><g><rect x="978.392" y="532.466" width="95.359" height="36.327" style="fill:#ffd131;"/><text x="1004.02px" y="557.605px" style="font-family:'Lato-Regular', 'Lato', sans-serif;font-size:19.677px;">API.z</text></g><g><g><path d="M930.553,603.49l14.868,-8.584l0,28.997l-14.868,8.584l0,-28.997Z" style="fill:#d9d9d9;"/><path d="M930.553,603.49l-14.869,-8.584l0,28.997l14.869,8.584l0,-28.997Z" style="fill:#666;"/><path d="M930.553,586.321l-14.869,8.585l14.869,8.584l14.868,-8.584l-14.868,-8.585Z" style="fill:#999;"/></g><g><path d="M910.875,615.262l14.869,-8.585l0,28.997l-14.869,8.584l0,-28.996Z" style="fill:#d9d9d9;"/><path d="M910.875,615.262l-14.869,-8.585l0,28.997l14.869,8.584l0,-28.996Z" style="fill:#666;"/><path d="M910.875,598.093l-14.869,8.584l14.869,8.585l14.869,-8.585l-14.869,-8.584Z" style="fill:#999;"/></g></g><g><g><path d="M1035.91,603.49l14.869,-8.584l0,28.997l-14.869,8.584l0,-28.997Z" style="fill:#d9d9d9;"/><path d="M1035.91,603.49l-14.869,-8.584l0,28.997l14.869,8.584l0,-28.997Z" style="fill:#666;"/><path d="M1035.91,586.321l-14.869,8.585l14.869,8.584l14.869,-8.584l-14.869,-8.585Z" style="fill:#999;"/></g><g><path d="M1016.23,615.262l14.869,-8.585l0,28.997l-14.869,8.584l0,-28.996Z" style="fill:#d9d9d9;"/><path d="M1016.23,615.262l-14.869,-8.585l0,28.997l14.869,8.584l0,-28.996Z" style="fill:#666;"/><path d="M1016.23,598.093l-14.869,8.584l14.869,8.585l14.869,-8.585l-14.869,-8.584Z" style="fill:#999;"/></g></g><g><path d="M881.126,668.797l0,-10.835l1.434,0l0,4.449l5.632,0l0,-4.449l1.434,0l0,10.835l-1.434,0l0,-5.107l-5.632,0l0,5.107l-1.434,0Z" style="fill-rule:nonzero;"/><path d="M894.77,668.797l0,-9.556l-3.57,0l0,-1.279l8.588,0l0,1.279l-3.585,0l0,9.556l-1.433,0Z" style="fill-rule:nonzero;"/><path d="M901.214,668.797l0,-10.835l2.158,0l2.565,7.672c0.237,0.714 0.409,1.249 0.517,1.603c0.124,-0.394 0.316,-0.973 0.577,-1.736l2.594,-7.539l1.929,0l0,10.835l-1.382,0l0,-9.069l-3.149,9.069l-1.293,0l-3.134,-9.224l0,9.224l-1.382,0Z" style="fill-rule:nonzero;"/><path d="M913.808,668.797l0,-10.835l1.434,0l0,9.556l5.336,0l0,1.279l-6.77,0Z" style="fill-rule:nonzero;"/><path d="M921.118,668.982l3.141,-11.205l1.064,0l-3.134,11.205l-1.071,0Z" style="fill-rule:nonzero;"/><path d="M926.446,668.797l0,-10.835l2.159,0l2.564,7.672c0.237,0.714 0.409,1.249 0.518,1.603c0.123,-0.394 0.315,-0.973 0.576,-1.736l2.594,-7.539l1.929,0l0,10.835l-1.382,0l0,-9.069l-3.148,9.069l-1.294,0l-3.133,-9.224l0,9.224l-1.383,0Z" style="fill-rule:nonzero;"/><path d="M942.196,668.797l-4.198,-10.835l1.552,0l2.816,7.871c0.227,0.631 0.417,1.222 0.569,1.774c0.168,-0.591 0.363,-1.183 0.584,-1.774l2.927,-7.871l1.463,0l-4.242,10.835l-1.471,0Z" style="fill-rule:nonzero;"/><path d="M956.926,664.998l1.434,0.362c-0.301,1.178 -0.841,2.076 -1.622,2.694c-0.781,0.618 -1.736,0.928 -2.864,0.928c-1.168,0 -2.118,-0.238 -2.849,-0.714c-0.732,-0.475 -1.289,-1.164 -1.671,-2.065c-0.382,-0.902 -0.573,-1.87 -0.573,-2.905c0,-1.128 0.216,-2.112 0.647,-2.952c0.431,-0.841 1.045,-1.479 1.84,-1.915c0.796,-0.436 1.672,-0.654 2.628,-0.654c1.084,0 1.995,0.276 2.734,0.828c0.74,0.552 1.254,1.328 1.545,2.328l-1.411,0.333c-0.252,-0.789 -0.616,-1.363 -1.094,-1.722c-0.478,-0.36 -1.079,-0.54 -1.804,-0.54c-0.832,0 -1.528,0.2 -2.088,0.599c-0.559,0.399 -0.952,0.935 -1.178,1.607c-0.227,0.673 -0.34,1.366 -0.34,2.081c0,0.921 0.134,1.726 0.402,2.413c0.269,0.687 0.687,1.201 1.253,1.541c0.567,0.34 1.18,0.51 1.84,0.51c0.804,0 1.484,-0.232 2.04,-0.695c0.557,-0.463 0.934,-1.15 1.131,-2.062Z" style="fill-rule:nonzero;"/></g><g><path d="M995.628,668.797l0,-10.835l4.804,0c0.966,0 1.7,0.097 2.203,0.292c0.503,0.195 0.904,0.538 1.205,1.031c0.3,0.493 0.45,1.037 0.45,1.633c0,0.769 -0.248,1.417 -0.746,1.944c-0.498,0.527 -1.266,0.862 -2.306,1.005c0.379,0.183 0.668,0.362 0.865,0.54c0.419,0.384 0.815,0.864 1.19,1.441l1.884,2.949l-1.803,0l-1.434,-2.254c-0.419,-0.651 -0.764,-1.148 -1.035,-1.493c-0.271,-0.345 -0.513,-0.587 -0.728,-0.725c-0.214,-0.137 -0.432,-0.234 -0.654,-0.288c-0.162,-0.034 -0.428,-0.052 -0.798,-0.052l-1.663,0l0,4.812l-1.434,0Zm1.434,-6.053l3.082,0c0.656,0 1.168,-0.068 1.538,-0.203c0.369,-0.136 0.65,-0.353 0.842,-0.651c0.192,-0.298 0.288,-0.622 0.288,-0.972c0,-0.512 -0.186,-0.933 -0.558,-1.264c-0.372,-0.33 -0.959,-0.495 -1.762,-0.495l-3.43,0l0,3.585Z" style="fill-rule:nonzero;"/><path d="M1006.57,668.797l0,-10.835l7.834,0l0,1.279l-6.4,0l0,3.318l5.994,0l0,1.271l-5.994,0l0,3.688l6.651,0l0,1.279l-8.085,0Z" style="fill-rule:nonzero;"/><path d="M1016.14,665.316l1.353,-0.118c0.064,0.542 0.213,0.986 0.447,1.334c0.234,0.347 0.597,0.628 1.09,0.842c0.493,0.214 1.047,0.322 1.663,0.322c0.547,0 1.03,-0.082 1.449,-0.244c0.418,-0.163 0.73,-0.386 0.935,-0.669c0.204,-0.283 0.306,-0.593 0.306,-0.928c0,-0.34 -0.098,-0.636 -0.295,-0.89c-0.197,-0.254 -0.523,-0.467 -0.976,-0.64c-0.291,-0.113 -0.934,-0.289 -1.929,-0.528c-0.995,-0.239 -1.692,-0.464 -2.092,-0.676c-0.517,-0.271 -0.902,-0.608 -1.156,-1.009c-0.254,-0.402 -0.381,-0.851 -0.381,-1.349c0,-0.547 0.155,-1.058 0.466,-1.533c0.31,-0.476 0.764,-0.837 1.36,-1.083c0.596,-0.247 1.259,-0.37 1.988,-0.37c0.803,0 1.511,0.13 2.125,0.388c0.613,0.259 1.085,0.64 1.415,1.142c0.33,0.503 0.508,1.072 0.532,1.707l-1.375,0.104c-0.073,-0.685 -0.323,-1.202 -0.75,-1.552c-0.426,-0.35 -1.055,-0.525 -1.888,-0.525c-0.867,0 -1.499,0.159 -1.896,0.477c-0.396,0.318 -0.595,0.701 -0.595,1.149c0,0.389 0.141,0.71 0.422,0.961c0.275,0.251 0.996,0.509 2.161,0.772c1.166,0.264 1.965,0.494 2.399,0.691c0.63,0.291 1.096,0.659 1.397,1.105c0.3,0.446 0.45,0.96 0.45,1.541c0,0.577 -0.165,1.12 -0.495,1.63c-0.33,0.51 -0.804,0.906 -1.423,1.19c-0.618,0.283 -1.314,0.425 -2.087,0.425c-0.981,0 -1.803,-0.143 -2.465,-0.429c-0.663,-0.286 -1.183,-0.716 -1.56,-1.29c-0.377,-0.574 -0.575,-1.223 -0.595,-1.947Z" style="fill-rule:nonzero;"/><path d="M1029.49,668.797l0,-9.556l-3.57,0l0,-1.279l8.588,0l0,1.279l-3.584,0l0,9.556l-1.434,0Z" style="fill-rule:nonzero;"/><path d="M1034.81,668.982l3.141,-11.205l1.064,0l-3.133,11.205l-1.072,0Z" style="fill-rule:nonzero;"/><path d="M1040.14,668.797l0,-10.835l2.158,0l2.565,7.672c0.236,0.714 0.409,1.249 0.517,1.603c0.123,-0.394 0.315,-0.973 0.576,-1.736l2.595,-7.539l1.929,0l0,10.835l-1.383,0l0,-9.069l-3.148,9.069l-1.293,0l-3.134,-9.224l0,9.224l-1.382,0Z" style="fill-rule:nonzero;"/><path d="M1055.89,668.797l-4.198,-10.835l1.552,0l2.816,7.871c0.226,0.631 0.416,1.222 0.569,1.774c0.167,-0.591 0.362,-1.183 0.584,-1.774l2.926,-7.871l1.464,0l-4.243,10.835l-1.47,0Z" style="fill-rule:nonzero;"/><path d="M1070.62,664.998l1.434,0.362c-0.3,1.178 -0.841,2.076 -1.622,2.694c-0.781,0.618 -1.736,0.928 -2.864,0.928c-1.168,0 -2.117,-0.238 -2.849,-0.714c-0.732,-0.475 -1.289,-1.164 -1.67,-2.065c-0.382,-0.902 -0.573,-1.87 -0.573,-2.905c0,-1.128 0.215,-2.112 0.647,-2.952c0.431,-0.841 1.044,-1.479 1.84,-1.915c0.796,-0.436 1.671,-0.654 2.627,-0.654c1.084,0 1.996,0.276 2.735,0.828c0.739,0.552 1.254,1.328 1.545,2.328l-1.412,0.333c-0.251,-0.789 -0.616,-1.363 -1.094,-1.722c-0.478,-0.36 -1.079,-0.54 -1.803,-0.54c-0.833,0 -1.529,0.2 -2.088,0.599c-0.559,0.399 -0.952,0.935 -1.179,1.607c-0.227,0.673 -0.34,1.366 -0.34,2.081c0,0.921 0.134,1.726 0.403,2.413c0.268,0.687 0.686,1.201 1.253,1.541c0.566,0.34 1.18,0.51 1.84,0.51c0.803,0 1.483,-0.232 2.04,-0.695c0.556,-0.463 0.933,-1.15 1.13,-2.062Z" style="fill-rule:nonzero;"/></g><rect x="551.174" y="43.018" width="95.359" height="36.327" style="fill:#404040;"/><g><path d="M565.766,54.255l1.584,0c0.17,0 0.311,0.043 0.423,0.128c0.111,0.085 0.187,0.193 0.226,0.324l2.912,9.8c0.053,0.177 0.1,0.367 0.143,0.57c0.043,0.204 0.084,0.417 0.123,0.64c0.046,-0.223 0.092,-0.438 0.138,-0.645c0.046,-0.206 0.098,-0.395 0.157,-0.565l3.316,-9.8c0.039,-0.111 0.116,-0.214 0.231,-0.309c0.115,-0.096 0.254,-0.143 0.418,-0.143l0.551,0c0.171,0 0.31,0.043 0.418,0.128c0.109,0.085 0.186,0.193 0.232,0.324l3.295,9.8c0.119,0.341 0.223,0.731 0.315,1.171c0.04,-0.217 0.076,-0.424 0.109,-0.62c0.032,-0.197 0.075,-0.381 0.127,-0.551l2.922,-9.8c0.033,-0.118 0.107,-0.223 0.222,-0.314c0.115,-0.092 0.254,-0.138 0.418,-0.138l1.486,0l-4.398,14.099l-1.712,0l-3.572,-10.754c-0.072,-0.203 -0.137,-0.439 -0.196,-0.708c-0.033,0.131 -0.064,0.257 -0.094,0.378c-0.029,0.122 -0.06,0.232 -0.093,0.33l-3.591,10.754l-1.712,0l-4.398,-14.099Z" style="fill:#fff;fill-rule:nonzero;"/><path d="M590.835,58.23c0.728,0 1.385,0.121 1.972,0.364c0.587,0.242 1.086,0.587 1.496,1.033c0.41,0.446 0.725,0.985 0.944,1.618c0.22,0.633 0.33,1.34 0.33,2.12c0,0.788 -0.11,1.496 -0.33,2.126c-0.219,0.629 -0.534,1.167 -0.944,1.613c-0.41,0.446 -0.909,0.789 -1.496,1.028c-0.587,0.24 -1.244,0.359 -1.972,0.359c-0.728,0 -1.386,-0.119 -1.973,-0.359c-0.587,-0.239 -1.087,-0.582 -1.5,-1.028c-0.414,-0.446 -0.732,-0.984 -0.955,-1.613c-0.223,-0.63 -0.334,-1.338 -0.334,-2.126c0,-0.78 0.111,-1.487 0.334,-2.12c0.223,-0.633 0.541,-1.172 0.955,-1.618c0.413,-0.446 0.913,-0.791 1.5,-1.033c0.587,-0.243 1.245,-0.364 1.973,-0.364Zm0,8.894c0.984,0 1.718,-0.33 2.204,-0.989c0.485,-0.659 0.728,-1.579 0.728,-2.76c0,-1.187 -0.243,-2.112 -0.728,-2.774c-0.486,-0.663 -1.22,-0.994 -2.204,-0.994c-0.499,0 -0.932,0.085 -1.299,0.256c-0.367,0.17 -0.674,0.416 -0.92,0.738c-0.246,0.321 -0.43,0.716 -0.551,1.185c-0.121,0.469 -0.182,0.999 -0.182,1.589c0,0.591 0.061,1.119 0.182,1.584c0.121,0.466 0.305,0.858 0.551,1.176c0.246,0.318 0.553,0.562 0.92,0.733c0.367,0.171 0.8,0.256 1.299,0.256Z" style="fill:#fff;fill-rule:nonzero;"/><path d="M597.741,68.354l0,-9.967l1.004,0c0.19,0 0.321,0.036 0.393,0.108c0.073,0.072 0.122,0.197 0.148,0.374l0.118,1.555c0.341,-0.696 0.763,-1.238 1.264,-1.629c0.502,-0.39 1.091,-0.585 1.766,-0.585c0.276,0 0.525,0.031 0.748,0.093c0.223,0.063 0.43,0.15 0.62,0.261l-0.226,1.309c-0.046,0.164 -0.148,0.246 -0.305,0.246c-0.092,0 -0.233,-0.031 -0.423,-0.094c-0.191,-0.062 -0.456,-0.093 -0.797,-0.093c-0.61,0 -1.12,0.177 -1.53,0.531c-0.41,0.354 -0.753,0.869 -1.028,1.545l0,6.346l-1.752,0Z" style="fill:#fff;fill-rule:nonzero;"/><rect x="605.868" y="53.861" width="1.751" height="14.492" style="fill:#fff;fill-rule:nonzero;"/><path d="M617.724,68.354c-0.25,0 -0.407,-0.122 -0.473,-0.364l-0.157,-1.211c-0.426,0.519 -0.913,0.934 -1.461,1.245c-0.548,0.312 -1.176,0.467 -1.884,0.467c-0.571,0 -1.089,-0.109 -1.555,-0.329c-0.465,-0.22 -0.862,-0.543 -1.19,-0.969c-0.328,-0.427 -0.581,-0.958 -0.758,-1.594c-0.177,-0.636 -0.265,-1.368 -0.265,-2.194c0,-0.735 0.098,-1.419 0.295,-2.052c0.197,-0.632 0.48,-1.182 0.851,-1.647c0.37,-0.466 0.821,-0.832 1.353,-1.098c0.531,-0.265 1.134,-0.398 1.81,-0.398c0.61,0 1.131,0.103 1.564,0.31c0.433,0.207 0.82,0.497 1.161,0.871l0,-5.53l1.752,0l0,14.493l-1.043,0Zm-3.395,-1.279c0.571,0 1.071,-0.132 1.501,-0.394c0.429,-0.262 0.824,-0.633 1.185,-1.112l0,-4.821c-0.321,-0.433 -0.674,-0.736 -1.057,-0.91c-0.384,-0.173 -0.809,-0.26 -1.275,-0.26c-0.931,0 -1.646,0.331 -2.144,0.993c-0.499,0.663 -0.748,1.607 -0.748,2.834c0,0.649 0.056,1.205 0.167,1.667c0.112,0.463 0.276,0.843 0.492,1.142c0.217,0.298 0.482,0.516 0.797,0.654c0.315,0.138 0.676,0.207 1.082,0.207Z" style="fill:#fff;fill-rule:nonzero;"/><path d="M621.138,67.271c0,-0.17 0.031,-0.331 0.093,-0.482c0.062,-0.151 0.148,-0.282 0.256,-0.393c0.108,-0.112 0.238,-0.2 0.389,-0.266c0.15,-0.065 0.311,-0.098 0.482,-0.098c0.17,0 0.331,0.033 0.482,0.098c0.151,0.066 0.282,0.154 0.393,0.266c0.112,0.111 0.199,0.242 0.261,0.393c0.062,0.151 0.093,0.312 0.093,0.482c0,0.178 -0.031,0.34 -0.093,0.487c-0.062,0.148 -0.149,0.278 -0.261,0.389c-0.111,0.112 -0.242,0.198 -0.393,0.261c-0.151,0.062 -0.312,0.093 -0.482,0.093c-0.171,0 -0.332,-0.031 -0.482,-0.093c-0.151,-0.063 -0.281,-0.149 -0.389,-0.261c-0.108,-0.111 -0.194,-0.241 -0.256,-0.389c-0.062,-0.147 -0.093,-0.309 -0.093,-0.487Z" style="fill:#fff;fill-rule:nonzero;"/><path d="M625.88,68.354l0,-9.967l1.003,0c0.191,0 0.322,0.036 0.394,0.108c0.072,0.072 0.121,0.197 0.148,0.374l0.118,1.555c0.341,-0.696 0.762,-1.238 1.264,-1.629c0.502,-0.39 1.09,-0.585 1.766,-0.585c0.275,0 0.525,0.031 0.748,0.093c0.223,0.063 0.429,0.15 0.619,0.261l-0.226,1.309c-0.046,0.164 -0.147,0.246 -0.305,0.246c-0.092,0 -0.233,-0.031 -0.423,-0.094c-0.19,-0.062 -0.456,-0.093 -0.797,-0.093c-0.61,0 -1.12,0.177 -1.53,0.531c-0.41,0.354 -0.752,0.869 -1.028,1.545l0,6.346l-1.751,0Z" style="fill:#fff;fill-rule:nonzero;"/></g><g><rect x="550.311" y="123.962" width="95.359" height="36.327" style="fill:#f49d37;"/><text x="559.409px" y="149.293px" style="font-family:'Lato-Regular', 'Lato', sans-serif;font-size:19.677px;">Glob.noc</text></g><g><rect x="200.074" y="206.775" width="95.359" height="36.327" style="fill:#f49d37;"/><text x="210.401px" y="231.983px" style="font-family:'Lato-Regular', 'Lato', sans-serif;font-size:19.677px;">USC.noc</text></g><g><rect x="550.311" y="170.979" width="95.359" height="36.327" style="fill:#ffd131;"/><text x="574.314px" y="196.192px" style="font-family:'Lato-Regular', 'Lato', sans-serif;font-size:19.677px;">Go<tspan x="599.442px 608.218px 612.39px " y="196.192px 196.192px 196.192px ">v.z</tspan></text></g><g><rect x="200.074" y="256.892" width="95.359" height="36.327" style="fill:#ffd131;"/><text x="224.077px" y="282.105px" style="font-family:'Lato-Regular', 'Lato', sans-serif;font-size:19.677px;">Go<tspan x="249.205px 257.981px 262.152px " y="282.105px 282.105px 282.105px ">v.z</tspan></text></g><g><rect x="493.547" y="531.533" width="95.359" height="36.327" style="fill:#ffd131;"/><text x="519.39px" y="556.662px" style="font-family:'Lato-Regular', 'Lato', sans-serif;font-size:19.677px;">Usr<tspan x="548.925px 553.097px " y="556.662px 556.662px ">.z</tspan></text></g><g><rect x="599.107" y="531.533" width="95.359" height="36.327" style="fill:#ffd131;"/><text x="626.091px" y="556.8px" style="font-family:'Lato-Regular', 'Lato', sans-serif;font-size:19.677px;">Fin.z</text></g><g><rect x="704.667" y="531.533" width="95.359" height="36.327" style="fill:#ffd131;"/><text x="720.474px" y="556.864px" style="font-family:'Lato-Regular', 'Lato', sans-serif;font-size:19.677px;">Social.z</text></g><g><rect x="66.054" y="304.531" width="95.359" height="36.327" style="fill:#f49d37;"/><text x="77.168px" y="329.744px" style="font-family:'Lato-Regular', 'Lato', sans-serif;font-size:19.677px;">LA<tspan x="100.249px 113.728px " y="329.744px 329.744px ">C.</tspan>noc</text></g><rect x="200.074" y="126.525" width="95.359" height="36.327" style="fill:#404040;"/><g><path d="M235.927,150.218c0.584,0 1.106,-0.099 1.565,-0.296c0.459,-0.196 0.847,-0.472 1.166,-0.826c0.318,-0.354 0.56,-0.777 0.728,-1.269c0.167,-0.492 0.251,-1.033 0.251,-1.624l0,-8.569l1.898,0l0,8.569c0,0.814 -0.129,1.568 -0.388,2.263c-0.259,0.696 -0.63,1.297 -1.112,1.806c-0.482,0.508 -1.071,0.906 -1.766,1.195c-0.695,0.289 -1.476,0.433 -2.342,0.433c-0.865,0 -1.646,-0.144 -2.341,-0.433c-0.695,-0.289 -1.286,-0.687 -1.771,-1.195c-0.486,-0.509 -0.858,-1.11 -1.117,-1.806c-0.259,-0.695 -0.388,-1.449 -0.388,-2.263l0,-8.569l1.898,0l0,8.56c0,0.59 0.084,1.131 0.251,1.623c0.168,0.492 0.41,0.915 0.728,1.269c0.318,0.354 0.709,0.631 1.171,0.831c0.463,0.201 0.986,0.301 1.569,0.301Z" style="fill:#fff;fill-rule:nonzero;"/><path d="M252.033,139.838c-0.059,0.098 -0.121,0.172 -0.187,0.221c-0.065,0.049 -0.151,0.074 -0.256,0.074c-0.111,0 -0.241,-0.056 -0.388,-0.167c-0.148,-0.112 -0.335,-0.235 -0.561,-0.369c-0.226,-0.135 -0.498,-0.258 -0.817,-0.369c-0.318,-0.112 -0.703,-0.167 -1.156,-0.167c-0.426,0 -0.803,0.057 -1.131,0.172c-0.328,0.115 -0.602,0.27 -0.822,0.467c-0.219,0.197 -0.385,0.428 -0.496,0.694c-0.112,0.265 -0.168,0.552 -0.168,0.861c0,0.393 0.097,0.719 0.291,0.979c0.193,0.259 0.449,0.48 0.767,0.664c0.318,0.183 0.679,0.342 1.082,0.477c0.404,0.134 0.817,0.274 1.24,0.418c0.423,0.144 0.836,0.307 1.24,0.487c0.403,0.18 0.764,0.408 1.082,0.684c0.318,0.275 0.574,0.613 0.767,1.013c0.194,0.4 0.29,0.892 0.29,1.476c0,0.616 -0.104,1.195 -0.314,1.736c-0.21,0.542 -0.517,1.012 -0.92,1.412c-0.404,0.4 -0.899,0.715 -1.486,0.945c-0.587,0.229 -1.254,0.344 -2.002,0.344c-0.912,0 -1.743,-0.165 -2.494,-0.497c-0.751,-0.331 -1.392,-0.779 -1.924,-1.343l0.551,-0.905c0.053,-0.072 0.117,-0.133 0.192,-0.182c0.076,-0.049 0.159,-0.074 0.251,-0.074c0.138,0 0.295,0.074 0.472,0.222c0.177,0.147 0.399,0.31 0.664,0.487c0.266,0.177 0.587,0.339 0.965,0.487c0.377,0.147 0.838,0.221 1.382,0.221c0.453,0 0.856,-0.062 1.21,-0.187c0.354,-0.124 0.654,-0.3 0.9,-0.526c0.246,-0.226 0.435,-0.497 0.566,-0.812c0.131,-0.315 0.197,-0.666 0.197,-1.053c0,-0.426 -0.097,-0.775 -0.29,-1.047c-0.194,-0.273 -0.448,-0.501 -0.763,-0.684c-0.315,-0.184 -0.674,-0.34 -1.077,-0.468c-0.404,-0.127 -0.817,-0.259 -1.24,-0.393c-0.423,-0.135 -0.836,-0.29 -1.24,-0.467c-0.403,-0.178 -0.762,-0.407 -1.077,-0.689c-0.315,-0.282 -0.569,-0.635 -0.762,-1.058c-0.194,-0.423 -0.291,-0.946 -0.291,-1.569c0,-0.499 0.097,-0.981 0.291,-1.446c0.193,-0.466 0.474,-0.879 0.841,-1.24c0.367,-0.361 0.821,-0.649 1.362,-0.866c0.542,-0.216 1.163,-0.324 1.865,-0.324c0.787,0 1.505,0.124 2.155,0.373c0.649,0.25 1.216,0.61 1.702,1.083l-0.463,0.905Z" style="fill:#fff;fill-rule:nonzero;"/><path d="M254.394,150.65c0,-0.17 0.032,-0.331 0.094,-0.482c0.062,-0.15 0.148,-0.282 0.256,-0.393c0.108,-0.112 0.238,-0.2 0.388,-0.266c0.151,-0.065 0.312,-0.098 0.482,-0.098c0.171,0 0.332,0.033 0.483,0.098c0.15,0.066 0.282,0.154 0.393,0.266c0.112,0.111 0.199,0.243 0.261,0.393c0.062,0.151 0.093,0.312 0.093,0.482c0,0.178 -0.031,0.34 -0.093,0.487c-0.062,0.148 -0.149,0.278 -0.261,0.389c-0.111,0.112 -0.243,0.199 -0.393,0.261c-0.151,0.062 -0.312,0.093 -0.483,0.093c-0.17,0 -0.331,-0.031 -0.482,-0.093c-0.15,-0.062 -0.28,-0.149 -0.388,-0.261c-0.108,-0.111 -0.194,-0.241 -0.256,-0.389c-0.062,-0.147 -0.094,-0.309 -0.094,-0.487Z" style="fill:#fff;fill-rule:nonzero;"/><path d="M259.137,151.733l0,-9.967l1.003,0c0.19,0 0.322,0.036 0.394,0.108c0.072,0.073 0.121,0.197 0.147,0.374l0.118,1.555c0.342,-0.695 0.763,-1.238 1.265,-1.629c0.501,-0.39 1.09,-0.585 1.766,-0.585c0.275,0 0.524,0.031 0.747,0.094c0.223,0.062 0.43,0.149 0.62,0.26l-0.226,1.309c-0.046,0.164 -0.148,0.246 -0.305,0.246c-0.092,0 -0.233,-0.031 -0.423,-0.094c-0.19,-0.062 -0.456,-0.093 -0.797,-0.093c-0.61,0 -1.12,0.177 -1.53,0.531c-0.41,0.354 -0.753,0.869 -1.028,1.545l0,6.346l-1.751,0Z" style="fill:#fff;fill-rule:nonzero;"/></g><rect x="66.409" y="192.056" width="95.359" height="35.834" style="fill:#404040;"/><g><path d="M85.36,202.942l1.584,0c0.171,0 0.312,0.042 0.423,0.126c0.112,0.084 0.187,0.191 0.227,0.32l2.912,9.666c0.052,0.175 0.1,0.363 0.142,0.563c0.043,0.201 0.084,0.411 0.123,0.631c0.046,-0.22 0.092,-0.432 0.138,-0.636c0.046,-0.204 0.099,-0.39 0.158,-0.558l3.315,-9.666c0.04,-0.11 0.117,-0.212 0.231,-0.306c0.115,-0.094 0.255,-0.14 0.419,-0.14l0.55,0c0.171,0 0.31,0.042 0.419,0.126c0.108,0.084 0.185,0.191 0.231,0.32l3.296,9.666c0.118,0.337 0.223,0.722 0.315,1.155c0.039,-0.213 0.075,-0.417 0.108,-0.611c0.033,-0.194 0.075,-0.376 0.128,-0.544l2.922,-9.666c0.033,-0.116 0.106,-0.22 0.221,-0.311c0.115,-0.09 0.254,-0.135 0.418,-0.135l1.486,0l-4.398,13.907l-1.712,0l-3.571,-10.608c-0.072,-0.2 -0.138,-0.433 -0.197,-0.698c-0.033,0.129 -0.064,0.253 -0.094,0.373c-0.029,0.12 -0.06,0.228 -0.093,0.325l-3.591,10.608l-1.712,0l-4.398,-13.907Z" style="fill:#fff;fill-rule:nonzero;"/><path d="M110.34,206.862c0.597,0 1.148,0.099 1.653,0.296c0.505,0.198 0.942,0.482 1.309,0.854c0.367,0.372 0.654,0.832 0.861,1.379c0.206,0.546 0.31,1.169 0.31,1.868c0,0.271 -0.03,0.453 -0.089,0.543c-0.059,0.091 -0.17,0.136 -0.334,0.136l-6.632,0c0.013,0.621 0.099,1.161 0.256,1.621c0.158,0.459 0.374,0.843 0.65,1.15c0.275,0.307 0.603,0.537 0.983,0.689c0.381,0.152 0.807,0.228 1.279,0.228c0.44,0 0.819,-0.05 1.137,-0.15c0.318,-0.101 0.592,-0.209 0.821,-0.326c0.23,-0.116 0.422,-0.224 0.576,-0.325c0.154,-0.1 0.287,-0.15 0.398,-0.15c0.145,0 0.256,0.055 0.335,0.165l0.492,0.631c-0.217,0.259 -0.476,0.483 -0.778,0.674c-0.301,0.191 -0.624,0.348 -0.969,0.471c-0.344,0.123 -0.7,0.215 -1.067,0.277c-0.367,0.061 -0.731,0.092 -1.092,0.092c-0.689,0 -1.323,-0.115 -1.904,-0.345c-0.58,-0.23 -1.082,-0.566 -1.505,-1.009c-0.423,-0.443 -0.753,-0.992 -0.989,-1.645c-0.236,-0.654 -0.354,-1.404 -0.354,-2.252c0,-0.686 0.106,-1.326 0.32,-1.921c0.213,-0.596 0.519,-1.112 0.919,-1.548c0.401,-0.437 0.889,-0.78 1.466,-1.029c0.578,-0.249 1.227,-0.374 1.948,-0.374Zm0.04,1.272c-0.846,0 -1.512,0.241 -1.997,0.723c-0.486,0.482 -0.788,1.15 -0.906,2.004l5.421,0c0,-0.401 -0.055,-0.768 -0.167,-1.102c-0.111,-0.333 -0.275,-0.621 -0.492,-0.863c-0.216,-0.243 -0.48,-0.431 -0.792,-0.563c-0.311,-0.133 -0.667,-0.199 -1.067,-0.199Z" style="fill:#fff;fill-rule:nonzero;"/><path d="M122.412,208.638c-0.078,0.143 -0.2,0.214 -0.364,0.214c-0.098,0 -0.21,-0.036 -0.334,-0.107c-0.125,-0.071 -0.277,-0.15 -0.458,-0.238c-0.18,-0.087 -0.395,-0.168 -0.644,-0.242c-0.249,-0.075 -0.544,-0.112 -0.886,-0.112c-0.295,0 -0.56,0.037 -0.796,0.112c-0.237,0.074 -0.438,0.176 -0.606,0.305c-0.167,0.13 -0.295,0.28 -0.383,0.452c-0.089,0.171 -0.133,0.357 -0.133,0.558c0,0.252 0.074,0.462 0.221,0.631c0.148,0.168 0.343,0.313 0.586,0.436c0.242,0.123 0.518,0.232 0.826,0.325c0.308,0.094 0.625,0.195 0.95,0.301c0.324,0.107 0.641,0.225 0.949,0.355c0.308,0.129 0.584,0.291 0.826,0.485c0.243,0.194 0.438,0.432 0.586,0.713c0.147,0.282 0.221,0.62 0.221,1.014c0,0.453 -0.082,0.872 -0.246,1.257c-0.164,0.385 -0.406,0.718 -0.728,1c-0.321,0.281 -0.715,0.503 -1.18,0.664c-0.466,0.162 -1.004,0.243 -1.614,0.243c-0.695,0 -1.325,-0.111 -1.889,-0.335c-0.564,-0.223 -1.043,-0.509 -1.436,-0.859l0.413,-0.66c0.052,-0.084 0.115,-0.148 0.187,-0.194c0.072,-0.045 0.167,-0.068 0.285,-0.068c0.118,0 0.243,0.046 0.374,0.136c0.131,0.091 0.29,0.191 0.477,0.301c0.187,0.11 0.413,0.21 0.679,0.301c0.266,0.091 0.598,0.136 0.999,0.136c0.341,0 0.639,-0.044 0.895,-0.131c0.256,-0.087 0.469,-0.206 0.639,-0.354c0.171,-0.149 0.297,-0.321 0.379,-0.515c0.082,-0.194 0.123,-0.401 0.123,-0.621c0,-0.272 -0.074,-0.496 -0.221,-0.674c-0.148,-0.178 -0.343,-0.33 -0.586,-0.456c-0.242,-0.127 -0.519,-0.237 -0.831,-0.33c-0.312,-0.094 -0.63,-0.193 -0.954,-0.296c-0.325,-0.104 -0.643,-0.222 -0.955,-0.355c-0.311,-0.132 -0.588,-0.299 -0.831,-0.5c-0.243,-0.2 -0.438,-0.448 -0.585,-0.742c-0.148,-0.294 -0.222,-0.652 -0.222,-1.072c0,-0.376 0.079,-0.736 0.236,-1.082c0.158,-0.347 0.387,-0.651 0.689,-0.913c0.302,-0.262 0.672,-0.47 1.112,-0.626c0.439,-0.155 0.941,-0.233 1.505,-0.233c0.656,0 1.245,0.102 1.766,0.306c0.522,0.204 0.973,0.484 1.353,0.84l-0.394,0.63Z" style="fill:#fff;fill-rule:nonzero;"/><path d="M128.266,217.004c-0.787,0 -1.392,-0.217 -1.815,-0.65c-0.423,-0.434 -0.634,-1.058 -0.634,-1.873l0,-6.017l-1.201,0c-0.105,0 -0.193,-0.031 -0.265,-0.092c-0.073,-0.062 -0.109,-0.157 -0.109,-0.287l0,-0.689l1.634,-0.204l0.403,-3.037c0.013,-0.097 0.056,-0.177 0.128,-0.238c0.072,-0.062 0.164,-0.092 0.275,-0.092l0.886,0l0,3.387l2.853,0l0,1.252l-2.853,0l0,5.9c0,0.414 0.102,0.722 0.305,0.922c0.203,0.201 0.466,0.301 0.787,0.301c0.184,0 0.343,-0.024 0.477,-0.073c0.135,-0.048 0.251,-0.102 0.349,-0.16c0.099,-0.058 0.182,-0.111 0.251,-0.16c0.069,-0.048 0.13,-0.073 0.182,-0.073c0.092,0 0.174,0.055 0.246,0.165l0.512,0.825c-0.302,0.278 -0.666,0.497 -1.092,0.655c-0.427,0.159 -0.866,0.238 -1.319,0.238Z" style="fill:#fff;fill-rule:nonzero;"/><path d="M132.015,215.781c0,-0.168 0.031,-0.326 0.093,-0.475c0.063,-0.149 0.148,-0.278 0.256,-0.388c0.108,-0.11 0.238,-0.198 0.389,-0.262c0.151,-0.065 0.311,-0.098 0.482,-0.098c0.17,0 0.331,0.033 0.482,0.098c0.151,0.064 0.282,0.152 0.394,0.262c0.111,0.11 0.198,0.239 0.26,0.388c0.063,0.149 0.094,0.307 0.094,0.475c0,0.175 -0.031,0.335 -0.094,0.481c-0.062,0.145 -0.149,0.273 -0.26,0.383c-0.112,0.11 -0.243,0.196 -0.394,0.257c-0.151,0.062 -0.312,0.092 -0.482,0.092c-0.171,0 -0.331,-0.03 -0.482,-0.092c-0.151,-0.061 -0.281,-0.147 -0.389,-0.257c-0.108,-0.11 -0.193,-0.238 -0.256,-0.383c-0.062,-0.146 -0.093,-0.306 -0.093,-0.481Z" style="fill:#fff;fill-rule:nonzero;"/><path d="M136.757,216.849l0,-9.831l1.004,0c0.19,0 0.321,0.035 0.393,0.106c0.072,0.072 0.122,0.195 0.148,0.369l0.118,1.534c0.341,-0.686 0.762,-1.222 1.264,-1.607c0.502,-0.385 1.091,-0.577 1.766,-0.577c0.276,0 0.525,0.031 0.748,0.092c0.223,0.062 0.43,0.147 0.62,0.257l-0.227,1.291c-0.045,0.162 -0.147,0.243 -0.305,0.243c-0.091,0 -0.232,-0.031 -0.423,-0.092c-0.19,-0.062 -0.455,-0.093 -0.797,-0.093c-0.61,0 -1.12,0.175 -1.529,0.524c-0.41,0.35 -0.753,0.858 -1.029,1.524l0,6.26l-1.751,0Z" style="fill:#fff;fill-rule:nonzero;"/></g><rect x="333.738" y="192.056" width="95.359" height="36.327" style="fill:#404040;"/><g><path d="M366.483,203.091l0,1.555l-6.769,0l0,4.683l5.48,0l0,1.496l-5.48,0l0,4.811l6.769,0l0,1.554l-8.688,0l0,-14.099l8.688,0Z" style="fill:#fff;fill-rule:nonzero;"/><path d="M376.272,217.19l-0.777,0c-0.17,0 -0.308,-0.026 -0.413,-0.078c-0.105,-0.053 -0.174,-0.164 -0.207,-0.335l-0.197,-0.925c-0.262,0.236 -0.518,0.448 -0.767,0.635c-0.249,0.187 -0.512,0.344 -0.787,0.472c-0.276,0.128 -0.569,0.225 -0.881,0.29c-0.311,0.066 -0.657,0.099 -1.038,0.099c-0.387,0 -0.749,-0.055 -1.087,-0.163c-0.338,-0.109 -0.631,-0.272 -0.88,-0.489c-0.25,-0.217 -0.448,-0.492 -0.596,-0.824c-0.147,-0.333 -0.221,-0.726 -0.221,-1.18c0,-0.395 0.108,-0.775 0.325,-1.14c0.216,-0.366 0.565,-0.69 1.048,-0.973c0.482,-0.283 1.113,-0.515 1.893,-0.696c0.781,-0.181 1.735,-0.271 2.864,-0.271l0,-0.782c0,-0.779 -0.166,-1.368 -0.497,-1.768c-0.332,-0.399 -0.822,-0.599 -1.471,-0.599c-0.427,0 -0.786,0.054 -1.078,0.163c-0.291,0.108 -0.544,0.229 -0.757,0.364c-0.213,0.134 -0.397,0.256 -0.551,0.364c-0.154,0.108 -0.307,0.162 -0.458,0.162c-0.118,0 -0.221,-0.031 -0.309,-0.093c-0.089,-0.063 -0.16,-0.14 -0.212,-0.232l-0.315,-0.56c0.551,-0.532 1.145,-0.928 1.781,-1.191c0.636,-0.262 1.341,-0.393 2.115,-0.393c0.558,0 1.053,0.091 1.486,0.275c0.433,0.184 0.797,0.44 1.092,0.768c0.295,0.327 0.518,0.724 0.669,1.19c0.151,0.466 0.226,0.977 0.226,1.535l0,6.375Zm-4.545,-1.072c0.308,0 0.59,-0.031 0.846,-0.094c0.256,-0.062 0.497,-0.15 0.723,-0.265c0.226,-0.115 0.443,-0.254 0.649,-0.418c0.207,-0.164 0.409,-0.351 0.606,-0.561l0,-2.056c-0.807,0 -1.493,0.051 -2.057,0.153c-0.564,0.102 -1.023,0.236 -1.377,0.401c-0.354,0.165 -0.612,0.359 -0.772,0.584c-0.161,0.224 -0.242,0.475 -0.242,0.752c0,0.263 0.043,0.491 0.128,0.682c0.086,0.192 0.2,0.348 0.345,0.471c0.144,0.122 0.315,0.211 0.511,0.267c0.197,0.056 0.41,0.084 0.64,0.084Z" style="fill:#fff;fill-rule:nonzero;"/><path d="M384.635,208.867c-0.079,0.144 -0.2,0.216 -0.364,0.216c-0.098,0 -0.21,-0.036 -0.334,-0.108c-0.125,-0.072 -0.278,-0.153 -0.458,-0.241c-0.18,-0.089 -0.395,-0.171 -0.644,-0.246c-0.25,-0.075 -0.545,-0.113 -0.886,-0.113c-0.295,0 -0.561,0.038 -0.797,0.113c-0.236,0.075 -0.438,0.179 -0.605,0.31c-0.167,0.131 -0.295,0.284 -0.384,0.457c-0.088,0.174 -0.132,0.363 -0.132,0.566c0,0.256 0.073,0.469 0.221,0.64c0.148,0.17 0.343,0.318 0.585,0.442c0.243,0.125 0.519,0.235 0.827,0.33c0.308,0.095 0.625,0.197 0.949,0.305c0.325,0.108 0.641,0.228 0.95,0.359c0.308,0.131 0.583,0.295 0.826,0.492c0.243,0.197 0.438,0.438 0.586,0.723c0.147,0.285 0.221,0.628 0.221,1.028c0,0.459 -0.082,0.884 -0.246,1.274c-0.164,0.391 -0.407,0.728 -0.728,1.014c-0.321,0.285 -0.715,0.51 -1.181,0.674c-0.465,0.164 -1.003,0.246 -1.613,0.246c-0.696,0 -1.325,-0.113 -1.889,-0.34c-0.564,-0.226 -1.043,-0.516 -1.437,-0.87l0.414,-0.67c0.052,-0.085 0.114,-0.15 0.186,-0.196c0.073,-0.046 0.168,-0.069 0.286,-0.069c0.118,0 0.242,0.046 0.374,0.138c0.131,0.091 0.29,0.193 0.477,0.305c0.187,0.111 0.413,0.213 0.679,0.305c0.265,0.091 0.598,0.137 0.998,0.137c0.341,0 0.64,-0.044 0.896,-0.133c0.255,-0.088 0.469,-0.208 0.639,-0.359c0.171,-0.15 0.297,-0.324 0.379,-0.521c0.082,-0.197 0.123,-0.407 0.123,-0.63c0,-0.275 -0.074,-0.503 -0.221,-0.684c-0.148,-0.18 -0.343,-0.334 -0.586,-0.462c-0.243,-0.128 -0.52,-0.239 -0.831,-0.334c-0.312,-0.096 -0.63,-0.196 -0.955,-0.301c-0.324,-0.104 -0.642,-0.224 -0.954,-0.359c-0.311,-0.134 -0.589,-0.303 -0.831,-0.506c-0.243,-0.204 -0.438,-0.455 -0.586,-0.753c-0.147,-0.298 -0.221,-0.661 -0.221,-1.087c0,-0.381 0.079,-0.746 0.236,-1.097c0.157,-0.351 0.387,-0.659 0.689,-0.925c0.301,-0.266 0.672,-0.477 1.112,-0.635c0.439,-0.157 0.941,-0.236 1.505,-0.236c0.656,0 1.244,0.104 1.766,0.31c0.521,0.207 0.972,0.49 1.353,0.851l-0.394,0.64Z" style="fill:#fff;fill-rule:nonzero;"/><path d="M390.489,217.348c-0.787,0 -1.392,-0.22 -1.815,-0.66c-0.423,-0.439 -0.635,-1.072 -0.635,-1.898l0,-6.1l-1.2,0c-0.105,0 -0.194,-0.031 -0.266,-0.094c-0.072,-0.062 -0.108,-0.159 -0.108,-0.29l0,-0.699l1.633,-0.206l0.404,-3.08c0.013,-0.098 0.055,-0.178 0.128,-0.241c0.072,-0.062 0.164,-0.093 0.275,-0.093l0.886,0l0,3.433l2.853,0l0,1.27l-2.853,0l0,5.982c0,0.419 0.101,0.731 0.305,0.934c0.203,0.204 0.465,0.305 0.787,0.305c0.183,0 0.342,-0.024 0.477,-0.074c0.134,-0.049 0.251,-0.103 0.349,-0.162c0.098,-0.059 0.182,-0.113 0.251,-0.162c0.069,-0.049 0.13,-0.074 0.182,-0.074c0.092,0 0.174,0.056 0.246,0.167l0.512,0.837c-0.302,0.282 -0.666,0.503 -1.093,0.664c-0.426,0.16 -0.865,0.241 -1.318,0.241Z" style="fill:#fff;fill-rule:nonzero;"/><path d="M394.238,216.108c0,-0.171 0.031,-0.331 0.093,-0.482c0.062,-0.151 0.148,-0.282 0.256,-0.394c0.108,-0.111 0.238,-0.2 0.389,-0.265c0.15,-0.066 0.311,-0.099 0.482,-0.099c0.17,0 0.331,0.033 0.482,0.099c0.151,0.065 0.282,0.154 0.393,0.265c0.112,0.112 0.199,0.243 0.261,0.394c0.062,0.151 0.093,0.311 0.093,0.482c0,0.177 -0.031,0.339 -0.093,0.487c-0.062,0.148 -0.149,0.277 -0.261,0.389c-0.111,0.111 -0.242,0.198 -0.393,0.26c-0.151,0.063 -0.312,0.094 -0.482,0.094c-0.171,0 -0.332,-0.031 -0.482,-0.094c-0.151,-0.062 -0.281,-0.149 -0.389,-0.26c-0.108,-0.112 -0.194,-0.241 -0.256,-0.389c-0.062,-0.148 -0.093,-0.31 -0.093,-0.487Z" style="fill:#fff;fill-rule:nonzero;"/><path d="M398.98,217.19l0,-9.966l1.003,0c0.191,0 0.322,0.036 0.394,0.108c0.072,0.072 0.121,0.197 0.148,0.374l0.118,1.554c0.341,-0.695 0.762,-1.238 1.264,-1.628c0.502,-0.39 1.09,-0.585 1.766,-0.585c0.275,0 0.525,0.031 0.748,0.093c0.223,0.062 0.429,0.149 0.619,0.261l-0.226,1.308c-0.046,0.164 -0.147,0.246 -0.305,0.246c-0.092,0 -0.233,-0.031 -0.423,-0.093c-0.19,-0.062 -0.456,-0.094 -0.797,-0.094c-0.61,0 -1.12,0.177 -1.53,0.532c-0.41,0.354 -0.752,0.869 -1.028,1.544l0,6.346l-1.751,0Z" style="fill:#fff;fill-rule:nonzero;"/></g><g><g><path d="M759.681,294.688c-4.099,3.853 -8.72,4.217 -13.622,1.514c-6.502,4.528 -12.56,4.563 -18.164,0c-30.106,14.61 -42.842,-29.861 -9.082,-30.273c7.718,-15.571 26.745,-15.059 33.3,-1.513c6.297,0.148 11.689,2.744 15.137,10.595c14.364,4.131 9.707,25.535 -7.569,19.677" style="fill:#d9d9d9;"/><text x="715.918px" y="284.422px" style="font-family:'ArialMT', 'Arial', sans-serif;font-size:15.136px;fill:#f73;">Zones</text></g></g><g><g><path d="M136.525,407.494c-4.1,3.853 -8.72,4.217 -13.623,1.514c-6.501,4.527 -12.559,4.563 -18.163,0c-30.106,14.61 -42.843,-29.861 -9.082,-30.273c7.718,-15.572 26.745,-15.059 33.3,-1.514c6.297,0.149 11.688,2.745 15.136,10.596c14.365,4.131 9.708,25.534 -7.568,19.677" style="fill:#d9d9d9;"/><text x="92.761px" y="397.227px" style="font-family:'ArialMT', 'Arial', sans-serif;font-size:15.136px;fill:#f73;">Zones</text></g></g><g><g><path d="M403.854,407.494c-4.1,3.853 -8.72,4.217 -13.623,1.514c-6.501,4.527 -12.559,4.563 -18.163,0c-30.106,14.61 -42.843,-29.861 -9.082,-30.273c7.718,-15.572 26.745,-15.059 33.3,-1.514c6.297,0.149 11.688,2.745 15.136,10.596c14.365,4.131 9.708,25.534 -7.568,19.677" style="fill:#d9d9d9;"/><text x="360.09px" y="397.227px" style="font-family:'ArialMT', 'Arial', sans-serif;font-size:15.136px;fill:#f73;">Zones</text></g></g><g><g><path d="M532.577,407.494c-4.1,3.853 -8.721,4.217 -13.623,1.514c-6.502,4.527 -12.56,4.563 -18.164,0c-30.105,14.61 -42.842,-29.861 -9.082,-30.273c7.718,-15.572 26.746,-15.059 33.3,-1.514c6.297,0.149 11.689,2.745 15.137,10.596c14.364,4.131 9.707,25.534 -7.568,19.677" style="fill:#d9d9d9;"/><text x="488.813px" y="397.227px" style="font-family:'ArialMT', 'Arial', sans-serif;font-size:15.136px;fill:#f73;">Zones</text></g></g><g><g><path d="M760.212,595.18l14.869,-8.585l0,28.997l-14.869,8.584l0,-28.996Z" style="fill:#d9d9d9;"/><path d="M760.212,595.18l-14.869,-8.585l0,28.997l14.869,8.584l0,-28.996Z" style="fill:#666;"/><path d="M760.212,578.011l-14.869,8.584l14.869,8.585l14.869,-8.585l-14.869,-8.584Z" style="fill:#999;"/></g><g><path d="M779.889,606.951l14.869,-8.585l0,28.997l-14.869,8.585l0,-28.997Z" style="fill:#d9d9d9;"/><path d="M779.889,606.951l-14.869,-8.585l0,28.997l14.869,8.585l0,-28.997Z" style="fill:#666;"/><path d="M779.889,589.782l-14.869,8.584l14.869,8.585l14.869,-8.585l-14.869,-8.584Z" style="fill:#999;"/></g><g><path d="M740.45,606.951l14.869,-8.585l0,28.997l-14.869,8.585l0,-28.997Z" style="fill:#d9d9d9;"/><path d="M740.45,606.951l-14.869,-8.585l0,28.997l14.869,8.585l0,-28.997Z" style="fill:#666;"/><path d="M740.45,589.782l-14.869,8.584l14.869,8.585l14.869,-8.585l-14.869,-8.584Z" style="fill:#999;"/></g><g><path d="M760.212,618.722l14.869,-8.584l0,28.997l-14.869,8.584l0,-28.997Z" style="fill:#d9d9d9;"/><path d="M760.212,618.722l-14.869,-8.584l0,28.997l14.869,8.584l0,-28.997Z" style="fill:#666;"/><path d="M760.212,601.553l-14.869,8.585l14.869,8.584l14.869,-8.584l-14.869,-8.585Z" style="fill:#999;"/></g><g><path d="M720.773,618.722l14.869,-8.584l0,28.997l-14.869,8.584l0,-28.997Z" style="fill:#d9d9d9;"/><path d="M720.773,618.722l-14.869,-8.584l0,28.997l14.869,8.584l0,-28.997Z" style="fill:#666;"/><path d="M720.773,601.553l-14.869,8.585l14.869,8.584l14.869,-8.584l-14.869,-8.585Z" style="fill:#999;"/></g><g><path d="M799.735,618.722l14.869,-8.584l0,28.997l-14.869,8.584l0,-28.997Z" style="fill:#d9d9d9;"/><path d="M799.735,618.722l-14.868,-8.584l0,28.997l14.868,8.584l0,-28.997Z" style="fill:#666;"/><path d="M799.735,601.553l-14.868,8.585l14.868,8.584l14.869,-8.584l-14.869,-8.585Z" style="fill:#999;"/></g><g><path d="M740.366,630.494l14.869,-8.585l0,28.997l-14.869,8.585l0,-28.997Z" style="fill:#d9d9d9;"/><path d="M740.366,630.494l-14.869,-8.585l0,28.997l14.869,8.585l0,-28.997Z" style="fill:#666;"/><path d="M740.366,613.325l-14.869,8.584l14.869,8.585l14.869,-8.585l-14.869,-8.584Z" style="fill:#999;"/></g><g><path d="M779.889,630.494l14.869,-8.585l0,28.997l-14.869,8.585l0,-28.997Z" style="fill:#d9d9d9;"/><path d="M779.889,630.494l-14.869,-8.585l0,28.997l14.869,8.585l0,-28.997Z" style="fill:#666;"/><path d="M779.889,613.325l-14.869,8.584l14.869,8.585l14.869,-8.585l-14.869,-8.584Z" style="fill:#999;"/></g></g><g><g><path d="M560.946,595.18l14.869,-8.585l0,28.997l-14.869,8.584l0,-28.996Z" style="fill:#d9d9d9;"/><path d="M560.946,595.18l-14.869,-8.585l0,28.997l14.869,8.584l0,-28.996Z" style="fill:#666;"/><path d="M560.946,578.011l-14.869,8.584l14.869,8.585l14.869,-8.585l-14.869,-8.584Z" style="fill:#999;"/></g><g><path d="M541.184,606.951l14.869,-8.585l0,28.997l-14.869,8.585l0,-28.997Z" style="fill:#d9d9d9;"/><path d="M541.184,606.951l-14.869,-8.585l0,28.997l14.869,8.585l0,-28.997Z" style="fill:#666;"/><path d="M541.184,589.782l-14.869,8.584l14.869,8.585l14.869,-8.585l-14.869,-8.584Z" style="fill:#999;"/></g><g><path d="M521.507,618.722l14.869,-8.584l0,28.997l-14.869,8.584l0,-28.997Z" style="fill:#d9d9d9;"/><path d="M521.507,618.722l-14.869,-8.584l0,28.997l14.869,8.584l0,-28.997Z" style="fill:#666;"/><path d="M521.507,601.553l-14.869,8.585l14.869,8.584l14.869,-8.584l-14.869,-8.585Z" style="fill:#999;"/></g></g><g><path d="M517.503,665.796l0,-10.835l2.158,0l2.565,7.672c0.236,0.714 0.409,1.249 0.517,1.604c0.123,-0.394 0.316,-0.973 0.577,-1.737l2.594,-7.539l1.929,0l0,10.835l-1.382,0l0,-9.068l-3.149,9.068l-1.293,0l-3.134,-9.223l0,9.223l-1.382,0Z" style="fill-rule:nonzero;"/><path d="M529.927,668.819l-0.148,-1.249c0.291,0.079 0.545,0.118 0.762,0.118c0.295,0 0.532,-0.049 0.709,-0.148c0.177,-0.098 0.323,-0.236 0.436,-0.413c0.084,-0.133 0.219,-0.464 0.407,-0.991c0.024,-0.074 0.064,-0.182 0.118,-0.325l-2.979,-7.864l1.434,0l1.634,4.546c0.211,0.576 0.401,1.182 0.569,1.818c0.152,-0.611 0.335,-1.207 0.547,-1.789l1.677,-4.575l1.331,0l-2.986,7.982c-0.321,0.863 -0.569,1.456 -0.747,1.781c-0.236,0.439 -0.507,0.76 -0.813,0.965c-0.305,0.204 -0.67,0.307 -1.094,0.307c-0.256,0 -0.542,-0.055 -0.857,-0.163Z" style="fill-rule:nonzero;"/><path d="M537.237,662.315l1.352,-0.118c0.064,0.542 0.213,0.987 0.447,1.334c0.234,0.347 0.598,0.628 1.09,0.843c0.493,0.214 1.047,0.321 1.663,0.321c0.547,0 1.03,-0.081 1.449,-0.244c0.419,-0.162 0.73,-0.385 0.935,-0.669c0.204,-0.283 0.307,-0.592 0.307,-0.927c0,-0.34 -0.099,-0.637 -0.296,-0.891c-0.197,-0.254 -0.522,-0.467 -0.976,-0.639c-0.29,-0.114 -0.933,-0.29 -1.929,-0.529c-0.995,-0.239 -1.692,-0.464 -2.091,-0.676c-0.518,-0.271 -0.903,-0.607 -1.157,-1.009c-0.254,-0.401 -0.381,-0.851 -0.381,-1.349c0,-0.546 0.156,-1.058 0.466,-1.533c0.311,-0.476 0.764,-0.837 1.36,-1.083c0.596,-0.246 1.259,-0.369 1.988,-0.369c0.803,0 1.512,0.129 2.125,0.388c0.613,0.258 1.085,0.639 1.415,1.141c0.33,0.503 0.508,1.072 0.532,1.708l-1.374,0.103c-0.074,-0.685 -0.324,-1.202 -0.75,-1.552c-0.427,-0.35 -1.056,-0.525 -1.889,-0.525c-0.867,0 -1.499,0.159 -1.895,0.477c-0.397,0.318 -0.595,0.701 -0.595,1.149c0,0.39 0.14,0.71 0.421,0.961c0.276,0.251 0.996,0.509 2.162,0.772c1.165,0.264 1.964,0.494 2.398,0.692c0.631,0.29 1.096,0.659 1.397,1.104c0.3,0.446 0.451,0.96 0.451,1.541c0,0.577 -0.165,1.12 -0.496,1.63c-0.33,0.51 -0.804,0.907 -1.422,1.19c-0.619,0.283 -1.315,0.425 -2.088,0.425c-0.981,0 -1.802,-0.143 -2.465,-0.429c-0.663,-0.285 -1.183,-0.715 -1.559,-1.289c-0.377,-0.574 -0.576,-1.224 -0.595,-1.948Z" style="fill-rule:nonzero;"/><path d="M556.031,664.636c0.666,0.458 1.279,0.793 1.841,1.005l-0.422,0.998c-0.778,-0.281 -1.554,-0.725 -2.328,-1.331c-0.803,0.449 -1.69,0.673 -2.66,0.673c-0.981,0 -1.87,-0.237 -2.668,-0.71c-0.799,-0.473 -1.413,-1.138 -1.844,-1.995c-0.432,-0.857 -0.647,-1.823 -0.647,-2.897c0,-1.069 0.217,-2.043 0.65,-2.92c0.434,-0.877 1.051,-1.544 1.852,-2.002c0.8,-0.459 1.696,-0.688 2.686,-0.688c1,0 1.902,0.238 2.705,0.713c0.803,0.476 1.416,1.141 1.837,1.996c0.421,0.855 0.632,1.819 0.632,2.893c0,0.892 -0.136,1.694 -0.407,2.406c-0.271,0.712 -0.68,1.332 -1.227,1.859Zm-3.155,-1.833c0.827,0.232 1.51,0.576 2.047,1.035c0.842,-0.769 1.264,-1.924 1.264,-3.467c0,-0.877 -0.149,-1.643 -0.448,-2.298c-0.298,-0.655 -0.734,-1.164 -1.308,-1.526c-0.574,-0.363 -1.218,-0.544 -1.932,-0.544c-1.07,0 -1.957,0.366 -2.661,1.098c-0.705,0.732 -1.057,1.824 -1.057,3.278c0,1.409 0.349,2.49 1.046,3.244c0.697,0.754 1.588,1.131 2.672,1.131c0.512,0 0.995,-0.096 1.448,-0.288c-0.448,-0.291 -0.921,-0.498 -1.419,-0.621l0.348,-1.042Z" style="fill-rule:nonzero;"/><path d="M559.535,665.796l0,-10.835l1.433,0l0,9.557l5.337,0l0,1.278l-6.77,0Z" style="fill-rule:nonzero;"/></g><g><path d="M666.007,668.797l0,-10.835l2.158,0l2.565,7.672c0.237,0.714 0.409,1.249 0.517,1.603c0.124,-0.394 0.316,-0.973 0.577,-1.736l2.594,-7.539l1.929,0l0,10.835l-1.382,0l0,-9.069l-3.148,9.069l-1.294,0l-3.134,-9.224l0,9.224l-1.382,0Z" style="fill-rule:nonzero;"/><path d="M677.995,664.872c0,-1.453 0.404,-2.53 1.212,-3.229c0.675,-0.582 1.498,-0.873 2.469,-0.873c1.079,0 1.961,0.354 2.646,1.061c0.685,0.707 1.027,1.684 1.027,2.931c0,1.01 -0.151,1.804 -0.454,2.383c-0.303,0.579 -0.744,1.029 -1.323,1.349c-0.579,0.32 -1.211,0.48 -1.896,0.48c-1.099,0 -1.987,-0.352 -2.665,-1.057c-0.677,-0.704 -1.016,-1.719 -1.016,-3.045Zm1.368,0c0,1.006 0.219,1.758 0.657,2.258c0.439,0.5 0.991,0.75 1.656,0.75c0.66,0 1.21,-0.251 1.648,-0.753c0.439,-0.503 0.658,-1.269 0.658,-2.299c0,-0.971 -0.221,-1.706 -0.662,-2.206c-0.441,-0.5 -0.989,-0.75 -1.644,-0.75c-0.665,0 -1.217,0.249 -1.656,0.746c-0.438,0.498 -0.657,1.249 -0.657,2.254Z" style="fill-rule:nonzero;"/><path d="M686.909,668.797l0,-7.849l1.197,0l0,1.116c0.576,-0.862 1.409,-1.294 2.498,-1.294c0.473,0 0.908,0.085 1.304,0.255c0.397,0.17 0.694,0.393 0.891,0.669c0.197,0.276 0.335,0.604 0.414,0.983c0.049,0.247 0.074,0.678 0.074,1.294l0,4.826l-1.331,0l0,-4.775c0,-0.542 -0.051,-0.947 -0.155,-1.215c-0.103,-0.269 -0.287,-0.483 -0.55,-0.643c-0.264,-0.16 -0.573,-0.241 -0.928,-0.241c-0.567,0 -1.056,0.18 -1.467,0.54c-0.411,0.36 -0.617,1.042 -0.617,2.047l0,4.287l-1.33,0Z" style="fill-rule:nonzero;"/><path d="M695.083,669.447l1.293,0.192c0.054,0.4 0.205,0.69 0.451,0.873c0.33,0.246 0.781,0.369 1.353,0.369c0.615,0 1.091,-0.123 1.426,-0.369c0.335,-0.247 0.562,-0.592 0.68,-1.035c0.069,-0.271 0.101,-0.84 0.096,-1.707c-0.581,0.684 -1.306,1.027 -2.173,1.027c-1.079,0 -1.914,-0.389 -2.505,-1.168c-0.592,-0.778 -0.887,-1.712 -0.887,-2.801c0,-0.749 0.135,-1.44 0.406,-2.073c0.271,-0.633 0.664,-1.122 1.179,-1.467c0.515,-0.345 1.12,-0.518 1.814,-0.518c0.927,0 1.691,0.375 2.292,1.124l0,-0.946l1.226,0l0,6.785c0,1.222 -0.124,2.088 -0.373,2.597c-0.249,0.51 -0.643,0.913 -1.182,1.209c-0.54,0.296 -1.204,0.443 -1.992,0.443c-0.936,0 -1.693,-0.21 -2.269,-0.632c-0.577,-0.421 -0.855,-1.055 -0.835,-1.903Zm1.101,-4.715c0,1.03 0.204,1.781 0.613,2.254c0.409,0.473 0.922,0.71 1.538,0.71c0.611,0 1.123,-0.236 1.537,-0.706c0.414,-0.471 0.621,-1.209 0.621,-2.214c0,-0.961 -0.213,-1.685 -0.639,-2.173c-0.427,-0.487 -0.94,-0.731 -1.541,-0.731c-0.592,0 -1.094,0.24 -1.508,0.72c-0.414,0.481 -0.621,1.194 -0.621,2.14Z" style="fill-rule:nonzero;"/><path d="M703.25,664.872c0,-1.453 0.404,-2.53 1.212,-3.229c0.675,-0.582 1.498,-0.873 2.468,-0.873c1.079,0 1.961,0.354 2.646,1.061c0.685,0.707 1.027,1.684 1.027,2.931c0,1.01 -0.151,1.804 -0.454,2.383c-0.303,0.579 -0.744,1.029 -1.323,1.349c-0.579,0.32 -1.211,0.48 -1.896,0.48c-1.099,0 -1.987,-0.352 -2.664,-1.057c-0.678,-0.704 -1.016,-1.719 -1.016,-3.045Zm1.367,0c0,1.006 0.219,1.758 0.658,2.258c0.438,0.5 0.99,0.75 1.655,0.75c0.66,0 1.21,-0.251 1.648,-0.753c0.439,-0.503 0.658,-1.269 0.658,-2.299c0,-0.971 -0.22,-1.706 -0.661,-2.206c-0.441,-0.5 -0.989,-0.75 -1.645,-0.75c-0.665,0 -1.217,0.249 -1.655,0.746c-0.439,0.498 -0.658,1.249 -0.658,2.254Z" style="fill-rule:nonzero;"/></g><g><rect x="333.738" y="304.531" width="95.359" height="36.327" style="fill:#f49d37;"/><text x="346.033px" y="329.744px" style="font-family:'Lato-Regular', 'Lato', sans-serif;font-size:19.677px;">CLE.noc</text></g><g><rect x="462.461" y="304.531" width="95.359" height="36.327" style="fill:#f49d37;"/><text x="475.071px" y="329.744px" style="font-family:'Lato-Regular', 'Lato', sans-serif;font-size:19.677px;">CHI.noc</text></g><rect x="872.288" y="126.525" width="95.359" height="36.327" style="fill:#404040;"/><g><path d="M911.025,137.555l0,1.555l-6.769,0l0,4.683l5.48,0l0,1.495l-5.48,0l0,4.811l6.769,0l0,1.555l-8.688,0l0,-14.099l8.688,0Z" style="fill:#fff;fill-rule:nonzero;"/><path d="M919.25,150.139c0.583,0 1.105,-0.099 1.564,-0.295c0.459,-0.197 0.848,-0.473 1.166,-0.827c0.318,-0.354 0.561,-0.777 0.728,-1.269c0.167,-0.492 0.251,-1.033 0.251,-1.623l0,-8.57l1.899,0l0,8.57c0,0.813 -0.13,1.567 -0.389,2.263c-0.259,0.695 -0.63,1.297 -1.112,1.805c-0.482,0.508 -1.07,0.907 -1.766,1.195c-0.695,0.289 -1.476,0.433 -2.341,0.433c-0.866,0 -1.647,-0.144 -2.342,-0.433c-0.695,-0.288 -1.286,-0.687 -1.771,-1.195c-0.485,-0.508 -0.857,-1.11 -1.117,-1.805c-0.259,-0.696 -0.388,-1.45 -0.388,-2.263l0,-8.57l1.899,0l0,8.56c0,0.59 0.083,1.131 0.251,1.623c0.167,0.492 0.409,0.915 0.728,1.269c0.318,0.355 0.708,0.632 1.17,0.832c0.463,0.2 0.986,0.3 1.57,0.3Z" style="fill:#fff;fill-rule:nonzero;"/><path d="M926.796,150.572c0,-0.171 0.031,-0.331 0.093,-0.482c0.063,-0.151 0.148,-0.282 0.256,-0.394c0.108,-0.111 0.238,-0.2 0.389,-0.266c0.151,-0.065 0.311,-0.098 0.482,-0.098c0.17,0 0.331,0.033 0.482,0.098c0.151,0.066 0.282,0.155 0.394,0.266c0.111,0.112 0.198,0.243 0.26,0.394c0.063,0.151 0.094,0.311 0.094,0.482c0,0.177 -0.031,0.339 -0.094,0.487c-0.062,0.147 -0.149,0.277 -0.26,0.388c-0.112,0.112 -0.243,0.199 -0.394,0.261c-0.151,0.062 -0.312,0.094 -0.482,0.094c-0.171,0 -0.331,-0.032 -0.482,-0.094c-0.151,-0.062 -0.281,-0.149 -0.389,-0.261c-0.108,-0.111 -0.193,-0.241 -0.256,-0.388c-0.062,-0.148 -0.093,-0.31 -0.093,-0.487Z" style="fill:#fff;fill-rule:nonzero;"/><path d="M931.538,151.654l0,-9.967l1.004,0c0.19,0 0.321,0.037 0.393,0.109c0.072,0.072 0.122,0.196 0.148,0.374l0.118,1.554c0.341,-0.695 0.762,-1.238 1.264,-1.628c0.502,-0.39 1.091,-0.586 1.766,-0.586c0.276,0 0.525,0.032 0.748,0.094c0.223,0.062 0.429,0.149 0.62,0.261l-0.227,1.308c-0.045,0.164 -0.147,0.246 -0.305,0.246c-0.091,0 -0.232,-0.031 -0.423,-0.093c-0.19,-0.063 -0.455,-0.094 -0.797,-0.094c-0.61,0 -1.12,0.177 -1.529,0.531c-0.41,0.355 -0.753,0.87 -1.029,1.545l0,6.346l-1.751,0Z" style="fill:#fff;fill-rule:nonzero;"/></g><g><rect x="689.566" y="191.531" width="95.359" height="36.327" style="fill:#f49d37;"/><text x="700.729px" y="216.665px" style="font-family:'Lato-Regular', 'Lato', sans-serif;font-size:19.677px;">Ams.noc</text></g><g><rect x="872.288" y="191.531" width="95.359" height="36.327" style="fill:#f49d37;"/><text x="875.689px" y="216.867px" style="font-family:'Lato-Regular', 'Lato', sans-serif;font-size:19.677px;">Berlin.noc</text></g><g><rect x="978.549" y="191.531" width="95.359" height="36.327" style="fill:#ffd131;"/><text x="1002.55px" y="216.381px" style="font-family:'Lato-Regular', 'Lato', sans-serif;font-size:19.677px;">Go<tspan x="1027.68px 1036.46px 1040.63px " y="216.381px 216.381px 216.381px ">v.z</tspan></text></g><g><rect x="977.652" y="340.47" width="95.359" height="36.327" style="fill:#ffd131;"/><text x="995.919px" y="365.495px" style="font-family:'Lato-Regular', 'Lato', sans-serif;font-size:19.677px;">WRK.z</text></g><g><g><path d="M1032.7,409.777l14.869,-8.585l0,28.997l-14.869,8.584l0,-28.996Z" style="fill:#d9d9d9;"/><path d="M1032.7,409.777l-14.869,-8.585l0,28.997l14.869,8.584l0,-28.996Z" style="fill:#666;"/><path d="M1032.7,392.607l-14.869,8.585l14.869,8.585l14.869,-8.585l-14.869,-8.585Z" style="fill:#999;"/></g><g><path d="M1052.38,421.548l14.869,-8.585l0,28.997l-14.869,8.585l0,-28.997Z" style="fill:#d9d9d9;"/><path d="M1052.38,421.548l-14.869,-8.585l0,28.997l14.869,8.585l0,-28.997Z" style="fill:#666;"/><path d="M1052.38,404.379l-14.869,8.584l14.869,8.585l14.869,-8.585l-14.869,-8.584Z" style="fill:#999;"/></g><g><path d="M1012.94,421.548l14.869,-8.585l0,28.997l-14.869,8.585l0,-28.997Z" style="fill:#d9d9d9;"/><path d="M1012.94,421.548l-14.868,-8.585l0,28.997l14.868,8.585l0,-28.997Z" style="fill:#666;"/><path d="M1012.94,404.379l-14.868,8.584l14.868,8.585l14.869,-8.585l-14.869,-8.584Z" style="fill:#999;"/></g><g><path d="M1032.62,433.319l14.869,-8.584l0,28.997l-14.869,8.584l0,-28.997Z" style="fill:#d9d9d9;"/><path d="M1032.62,433.319l-14.869,-8.584l0,28.997l14.869,8.584l0,-28.997Z" style="fill:#666;"/><path d="M1032.62,416.15l-14.869,8.585l14.869,8.584l14.869,-8.584l-14.869,-8.585Z" style="fill:#999;"/></g><g><path d="M993.261,433.319l14.869,-8.584l0,28.997l-14.869,8.584l0,-28.997Z" style="fill:#d9d9d9;"/><path d="M993.261,433.319l-14.869,-8.584l0,28.997l14.869,8.584l0,-28.997Z" style="fill:#666;"/><path d="M993.261,416.15l-14.869,8.585l14.869,8.584l14.869,-8.584l-14.869,-8.585Z" style="fill:#999;"/></g><g><path d="M1012.94,445.091l14.869,-8.585l0,28.997l-14.869,8.585l0,-28.997Z" style="fill:#d9d9d9;"/><path d="M1012.94,445.091l-14.868,-8.585l0,28.997l14.868,8.585l0,-28.997Z" style="fill:#666;"/><path d="M1012.94,427.922l-14.868,8.584l14.868,8.585l14.869,-8.585l-14.869,-8.584Z" style="fill:#999;"/></g><g><path d="M1071.97,432.859l14.869,-8.584l0,28.997l-14.869,8.584l0,-28.997Z" style="fill:#2e809c;"/><path d="M1071.97,432.859l-14.869,-8.584l0,28.997l14.869,8.584l0,-28.997Z" style="fill:#1c3144;"/><path d="M1071.97,415.69l-14.869,8.585l14.869,8.584l14.869,-8.584l-14.869,-8.585Z" style="fill:#19647e;"/></g><g><path d="M1052.38,444.631l14.869,-8.585l0,28.997l-14.869,8.585l0,-28.997Z" style="fill:#2e809c;"/><path d="M1052.38,444.631l-14.869,-8.585l0,28.997l14.869,8.585l0,-28.997Z" style="fill:#1c3144;"/><path d="M1052.38,427.462l-14.869,8.584l14.869,8.585l14.869,-8.585l-14.869,-8.584Z" style="fill:#19647e;"/></g></g><g><rect x="766.632" y="340.858" width="95.359" height="36.327" style="fill:#ffd131;"/><text x="793.399px" y="365.998px" style="font-family:'Lato-Regular', 'Lato', sans-serif;font-size:19.677px;">DB.z</text></g><g><g><path d="M653.759,595.18l14.869,-8.585l0,28.997l-14.869,8.584l0,-28.996Z" style="fill:#d9d9d9;"/><path d="M653.759,595.18l-14.869,-8.585l0,28.997l14.869,8.584l0,-28.996Z" style="fill:#666;"/><path d="M653.759,578.011l-14.869,8.584l14.869,8.585l14.869,-8.585l-14.869,-8.584Z" style="fill:#999;"/></g><g><path d="M673.437,606.951l14.868,-8.585l0,28.997l-14.868,8.585l0,-28.997Z" style="fill:#d9d9d9;"/><path d="M673.437,606.951l-14.869,-8.585l0,28.997l14.869,8.585l0,-28.997Z" style="fill:#666;"/><path d="M673.437,589.782l-14.869,8.584l14.869,8.585l14.868,-8.585l-14.868,-8.584Z" style="fill:#999;"/></g><g><path d="M633.998,606.951l14.868,-8.585l0,28.997l-14.868,8.585l0,-28.997Z" style="fill:#d9d9d9;"/><path d="M633.998,606.951l-14.869,-8.585l0,28.997l14.869,8.585l0,-28.997Z" style="fill:#666;"/><path d="M633.998,589.782l-14.869,8.584l14.869,8.585l14.868,-8.585l-14.868,-8.584Z" style="fill:#999;"/></g><g><path d="M653.759,618.722l14.869,-8.584l0,28.997l-14.869,8.584l0,-28.997Z" style="fill:#d9d9d9;"/><path d="M653.759,618.722l-14.869,-8.584l0,28.997l14.869,8.584l0,-28.997Z" style="fill:#666;"/><path d="M653.759,601.553l-14.869,8.585l14.869,8.584l14.869,-8.584l-14.869,-8.585Z" style="fill:#999;"/></g><g><path d="M614.283,618.722l14.869,-8.584l0,28.997l-14.869,8.584l0,-28.997Z" style="fill:#d9d9d9;"/><path d="M614.283,618.722l-14.869,-8.584l0,28.997l14.869,8.584l0,-28.997Z" style="fill:#666;"/><path d="M614.283,601.553l-14.869,8.585l14.869,8.584l14.869,-8.584l-14.869,-8.585Z" style="fill:#999;"/></g></g><g><path d="M889.455,409.777l14.869,-8.585l0,28.997l-14.869,8.584l0,-28.996Z" style="fill:#2e809c;"/><path d="M889.455,409.777l-14.869,-8.585l0,28.997l14.869,8.584l0,-28.996Z" style="fill:#1c3144;"/><path d="M889.455,392.607l-14.869,8.585l14.869,8.585l14.869,-8.585l-14.869,-8.585Z" style="fill:#19647e;"/><path d="M889.455,392.607l-14.869,8.585l14.869,8.585l14.869,-8.585l-14.869,-8.585Z" style="fill:#19647e;"/></g><g><rect x="872.288" y="340.47" width="95.359" height="36.327" style="fill:#ffd131;"/><text x="884.141px" y="366.092px" style="font-family:'Lato-Regular', 'Lato', sans-serif;font-size:19.677px;">WWW<tspan x="943.094px 947.265px " y="366.092px 366.092px ">.z</tspan></text></g></svg>