<?xml version="1.0" encoding="UTF-8" standalone="no"?><!DOCTYPE svg PUBLIC "-//W3C//DTD SVG 1.1//EN" "http://www.w3.org/Graphics/SVG/1.1/DTD/svg11.dtd"><svg width="100%" height="100%" viewBox="0 0 606 350" version="1.1" xmlns="http://www.w3.org/2000/svg" xmlns:xlink="http://www.w3.org/1999/xlink" xml:space="preserve" style="fill-rule:evenodd;clip-rule:evenodd;stroke-linejoin:round;stroke-miterlimit:1.5;"><g><rect x="53.333" y="9.265" width="268.229" height="56.786" style="fill:#662e9b;"/><g><path d="M76.314,42.757l-0.727,0c-0.159,0 -0.288,-0.025 -0.386,-0.074c-0.099,-0.049 -0.163,-0.153 -0.194,-0.313l-0.184,-0.865c-0.245,0.221 -0.484,0.419 -0.718,0.594c-0.233,0.175 -0.478,0.322 -0.736,0.441c-0.258,0.12 -0.532,0.211 -0.824,0.272c-0.291,0.061 -0.615,0.092 -0.971,0.092c-0.362,0 -0.701,-0.051 -1.017,-0.152c-0.316,-0.102 -0.59,-0.254 -0.824,-0.458c-0.233,-0.203 -0.418,-0.46 -0.556,-0.771c-0.138,-0.311 -0.207,-0.679 -0.207,-1.103c0,-0.37 0.101,-0.725 0.303,-1.067c0.203,-0.342 0.529,-0.645 0.98,-0.91c0.451,-0.265 1.042,-0.482 1.772,-0.651c0.73,-0.169 1.623,-0.254 2.679,-0.254l0,-0.732c0,-0.728 -0.155,-1.279 -0.465,-1.653c-0.31,-0.373 -0.769,-0.56 -1.376,-0.56c-0.399,0 -0.735,0.05 -1.008,0.152c-0.273,0.101 -0.509,0.214 -0.709,0.34c-0.199,0.126 -0.371,0.239 -0.515,0.341c-0.144,0.101 -0.287,0.152 -0.428,0.152c-0.111,0 -0.207,-0.03 -0.29,-0.088c-0.083,-0.058 -0.149,-0.13 -0.198,-0.216l-0.295,-0.525c0.516,-0.497 1.071,-0.868 1.666,-1.113c0.596,-0.246 1.255,-0.369 1.979,-0.369c0.522,0 0.985,0.086 1.39,0.258c0.405,0.172 0.746,0.411 1.022,0.718c0.276,0.307 0.484,0.678 0.626,1.114c0.141,0.435 0.211,0.914 0.211,1.436l0,5.964Zm-4.252,-1.004c0.288,0 0.552,-0.029 0.792,-0.087c0.239,-0.058 0.464,-0.141 0.676,-0.248c0.212,-0.108 0.414,-0.238 0.608,-0.392c0.193,-0.153 0.382,-0.328 0.566,-0.524l0,-1.924c-0.755,0 -1.396,0.048 -1.924,0.144c-0.528,0.095 -0.957,0.22 -1.289,0.375c-0.331,0.154 -0.572,0.336 -0.722,0.546c-0.15,0.21 -0.226,0.444 -0.226,0.703c0,0.247 0.04,0.46 0.12,0.639c0.08,0.179 0.187,0.326 0.322,0.44c0.135,0.114 0.295,0.197 0.479,0.25c0.184,0.052 0.383,0.078 0.598,0.078Z" style="fill:#f2f2f2;fill-rule:nonzero;"/><path d="M78.799,42.757l0,-13.558l1.639,0l0,5.486c0.399,-0.424 0.84,-0.763 1.325,-1.017c0.485,-0.255 1.043,-0.382 1.675,-0.382c0.509,0 0.959,0.084 1.349,0.253c0.389,0.169 0.714,0.408 0.975,0.718c0.261,0.31 0.459,0.682 0.594,1.118c0.135,0.436 0.202,0.917 0.202,1.445l0,5.937l-1.638,0l0,-5.937c0,-0.706 -0.161,-1.253 -0.483,-1.643c-0.322,-0.389 -0.815,-0.584 -1.477,-0.584c-0.485,0 -0.938,0.116 -1.358,0.35c-0.42,0.233 -0.808,0.549 -1.164,0.948l0,6.866l-1.639,0Z" style="fill:#f2f2f2;fill-rule:nonzero;"/><path d="M92.173,33.277c0.405,0 0.784,0.044 1.136,0.133c0.353,0.089 0.674,0.219 0.962,0.391l2.531,0l0,0.608c0,0.202 -0.128,0.331 -0.386,0.386l-1.059,0.148c0.209,0.398 0.313,0.843 0.313,1.334c0,0.454 -0.087,0.867 -0.262,1.238c-0.175,0.371 -0.417,0.689 -0.727,0.953c-0.31,0.264 -0.678,0.466 -1.105,0.607c-0.426,0.141 -0.894,0.212 -1.403,0.212c-0.436,0 -0.847,-0.052 -1.234,-0.157c-0.196,0.127 -0.345,0.264 -0.446,0.409c-0.101,0.146 -0.152,0.289 -0.152,0.429c0,0.228 0.089,0.401 0.267,0.518c0.178,0.118 0.414,0.202 0.709,0.253c0.294,0.05 0.629,0.076 1.003,0.076c0.374,0 0.756,0 1.146,0c0.39,0 0.772,0.034 1.146,0.102c0.374,0.068 0.709,0.18 1.003,0.336c0.295,0.155 0.531,0.369 0.709,0.642c0.178,0.274 0.267,0.628 0.267,1.063c0,0.403 -0.1,0.795 -0.299,1.174c-0.2,0.378 -0.487,0.715 -0.861,1.01c-0.374,0.296 -0.831,0.532 -1.371,0.709c-0.54,0.177 -1.151,0.265 -1.832,0.265c-0.681,0 -1.278,-0.067 -1.79,-0.203c-0.513,-0.135 -0.937,-0.316 -1.275,-0.543c-0.337,-0.227 -0.591,-0.49 -0.759,-0.788c-0.169,-0.298 -0.253,-0.609 -0.253,-0.935c0,-0.461 0.145,-0.852 0.437,-1.175c0.291,-0.322 0.692,-0.579 1.201,-0.769c-0.264,-0.123 -0.474,-0.287 -0.631,-0.492c-0.156,-0.205 -0.234,-0.479 -0.234,-0.822c0,-0.135 0.024,-0.274 0.073,-0.418c0.049,-0.144 0.125,-0.287 0.226,-0.428c0.101,-0.141 0.225,-0.275 0.373,-0.404c0.147,-0.129 0.319,-0.242 0.515,-0.34c-0.46,-0.258 -0.821,-0.6 -1.081,-1.026c-0.261,-0.427 -0.392,-0.925 -0.392,-1.496c0,-0.454 0.088,-0.867 0.263,-1.238c0.175,-0.371 0.419,-0.687 0.731,-0.948c0.313,-0.261 0.686,-0.462 1.119,-0.603c0.432,-0.141 0.906,-0.211 1.422,-0.211Zm2.908,9.953c0,-0.238 -0.064,-0.429 -0.193,-0.573c-0.129,-0.144 -0.304,-0.255 -0.525,-0.333c-0.221,-0.078 -0.475,-0.136 -0.764,-0.174c-0.288,-0.037 -0.592,-0.056 -0.911,-0.056c-0.319,0 -0.644,0 -0.975,0c-0.332,0 -0.648,-0.041 -0.948,-0.124c-0.35,0.166 -0.634,0.369 -0.852,0.608c-0.218,0.24 -0.327,0.526 -0.327,0.858c0,0.208 0.054,0.404 0.162,0.585c0.107,0.181 0.271,0.338 0.492,0.47c0.221,0.132 0.498,0.237 0.833,0.313c0.334,0.077 0.729,0.116 1.183,0.116c0.441,0 0.837,-0.041 1.187,-0.122c0.35,-0.082 0.646,-0.197 0.888,-0.348c0.242,-0.15 0.428,-0.328 0.557,-0.535c0.129,-0.206 0.193,-0.435 0.193,-0.685Zm-2.908,-5.029c0.331,0 0.624,-0.046 0.879,-0.138c0.254,-0.092 0.468,-0.221 0.639,-0.387c0.172,-0.166 0.301,-0.363 0.387,-0.594c0.086,-0.23 0.129,-0.483 0.129,-0.759c0,-0.571 -0.173,-1.025 -0.52,-1.362c-0.347,-0.338 -0.852,-0.506 -1.514,-0.506c-0.657,0 -1.158,0.168 -1.505,0.506c-0.347,0.337 -0.52,0.791 -0.52,1.362c0,0.276 0.044,0.529 0.133,0.759c0.089,0.231 0.22,0.428 0.392,0.594c0.171,0.166 0.383,0.295 0.635,0.387c0.251,0.092 0.54,0.138 0.865,0.138Z" style="fill:#f2f2f2;fill-rule:nonzero;"/><path d="M102.214,33.286c0.681,0 1.297,0.113 1.846,0.34c0.549,0.227 1.015,0.55 1.399,0.967c0.383,0.417 0.678,0.922 0.883,1.514c0.206,0.592 0.309,1.253 0.309,1.983c0,0.737 -0.103,1.399 -0.309,1.988c-0.205,0.589 -0.5,1.093 -0.883,1.51c-0.384,0.417 -0.85,0.738 -1.399,0.962c-0.549,0.224 -1.165,0.336 -1.846,0.336c-0.681,0 -1.296,-0.112 -1.845,-0.336c-0.549,-0.224 -1.017,-0.545 -1.404,-0.962c-0.386,-0.417 -0.684,-0.921 -0.892,-1.51c-0.209,-0.589 -0.313,-1.251 -0.313,-1.988c0,-0.73 0.104,-1.391 0.313,-1.983c0.208,-0.592 0.506,-1.097 0.892,-1.514c0.387,-0.417 0.855,-0.74 1.404,-0.967c0.549,-0.227 1.164,-0.34 1.845,-0.34Zm0,8.32c0.921,0 1.608,-0.308 2.062,-0.925c0.454,-0.616 0.681,-1.477 0.681,-2.582c0,-1.11 -0.227,-1.975 -0.681,-2.595c-0.454,-0.62 -1.141,-0.93 -2.062,-0.93c-0.466,0 -0.871,0.08 -1.215,0.24c-0.343,0.159 -0.63,0.389 -0.86,0.69c-0.23,0.301 -0.402,0.67 -0.516,1.109c-0.113,0.439 -0.17,0.934 -0.17,1.486c0,0.553 0.057,1.047 0.17,1.482c0.114,0.436 0.286,0.803 0.516,1.1c0.23,0.298 0.517,0.526 0.86,0.686c0.344,0.159 0.749,0.239 1.215,0.239Z" style="fill:#f2f2f2;fill-rule:nonzero;"/><path d="M107.258,33.433l1.344,0c0.129,0 0.236,0.034 0.322,0.101c0.086,0.068 0.147,0.148 0.184,0.24l2.366,6.001c0.085,0.221 0.153,0.441 0.202,0.662c0.049,0.221 0.095,0.439 0.138,0.654c0.049,-0.215 0.101,-0.433 0.157,-0.654c0.055,-0.221 0.125,-0.441 0.211,-0.662l2.393,-6.001c0.037,-0.099 0.097,-0.18 0.18,-0.244c0.083,-0.065 0.185,-0.097 0.308,-0.097l1.279,0l-3.801,9.324l-1.482,0l-3.801,-9.324Z" style="fill:#f2f2f2;fill-rule:nonzero;"/><path d="M116.112,41.744c0,-0.159 0.03,-0.31 0.088,-0.451c0.058,-0.141 0.138,-0.264 0.239,-0.368c0.101,-0.104 0.223,-0.187 0.364,-0.248c0.141,-0.062 0.291,-0.092 0.451,-0.092c0.159,0 0.31,0.03 0.451,0.092c0.141,0.061 0.264,0.144 0.368,0.248c0.104,0.104 0.185,0.227 0.244,0.368c0.058,0.141 0.087,0.292 0.087,0.451c0,0.166 -0.029,0.318 -0.087,0.456c-0.059,0.138 -0.14,0.259 -0.244,0.363c-0.104,0.105 -0.227,0.186 -0.368,0.244c-0.141,0.059 -0.292,0.088 -0.451,0.088c-0.16,0 -0.31,-0.029 -0.451,-0.088c-0.141,-0.058 -0.263,-0.139 -0.364,-0.244c-0.101,-0.104 -0.181,-0.225 -0.239,-0.363c-0.058,-0.138 -0.088,-0.29 -0.088,-0.456Z" style="fill:#f2f2f2;fill-rule:nonzero;"/><path d="M124.239,33.286c0.559,0 1.074,0.093 1.547,0.281c0.472,0.187 0.88,0.457 1.224,0.809c0.344,0.353 0.612,0.789 0.805,1.307c0.194,0.519 0.29,1.11 0.29,1.772c0,0.258 -0.027,0.43 -0.083,0.516c-0.055,0.086 -0.159,0.128 -0.313,0.128l-6.203,0c0.012,0.59 0.092,1.102 0.239,1.538c0.147,0.435 0.35,0.799 0.608,1.09c0.257,0.292 0.564,0.51 0.92,0.654c0.356,0.144 0.755,0.216 1.197,0.216c0.411,0 0.765,-0.048 1.063,-0.143c0.297,-0.095 0.553,-0.198 0.768,-0.308c0.215,-0.11 0.394,-0.213 0.539,-0.308c0.144,-0.095 0.268,-0.143 0.372,-0.143c0.135,0 0.24,0.052 0.313,0.156l0.461,0.599c-0.203,0.245 -0.445,0.458 -0.728,0.639c-0.282,0.181 -0.584,0.33 -0.906,0.447c-0.322,0.116 -0.655,0.204 -0.999,0.262c-0.343,0.058 -0.684,0.088 -1.021,0.088c-0.645,0 -1.238,-0.109 -1.781,-0.327c-0.543,-0.218 -1.013,-0.537 -1.409,-0.957c-0.395,-0.421 -0.704,-0.941 -0.925,-1.56c-0.221,-0.62 -0.331,-1.332 -0.331,-2.136c0,-0.65 0.1,-1.258 0.299,-1.822c0.2,-0.565 0.486,-1.054 0.861,-1.468c0.374,-0.414 0.831,-0.74 1.371,-0.976c0.54,-0.236 1.148,-0.354 1.822,-0.354Zm0.037,1.206c-0.791,0 -1.414,0.228 -1.868,0.685c-0.454,0.457 -0.736,1.091 -0.847,1.901l5.072,0c0,-0.381 -0.053,-0.729 -0.157,-1.045c-0.104,-0.316 -0.258,-0.589 -0.46,-0.819c-0.203,-0.23 -0.45,-0.408 -0.741,-0.534c-0.292,-0.126 -0.624,-0.188 -0.999,-0.188Z" style="fill:#f2f2f2;fill-rule:nonzero;"/><path d="M131.824,37.98l-3.139,-4.547l1.574,0c0.135,0 0.233,0.022 0.294,0.064c0.062,0.043 0.117,0.105 0.166,0.185l2.283,3.497c0.055,-0.172 0.135,-0.344 0.239,-0.515l2.006,-2.946c0.062,-0.086 0.123,-0.155 0.185,-0.207c0.061,-0.052 0.138,-0.078 0.23,-0.078l1.509,0l-3.138,4.455l3.267,4.869l-1.574,0c-0.135,0 -0.241,-0.036 -0.317,-0.106c-0.077,-0.071 -0.14,-0.149 -0.189,-0.235l-2.347,-3.654c-0.043,0.178 -0.108,0.338 -0.193,0.479l-2.173,3.175c-0.061,0.086 -0.127,0.164 -0.197,0.235c-0.071,0.07 -0.168,0.106 -0.29,0.106l-1.464,0l3.268,-4.777Z" style="fill:#f2f2f2;fill-rule:nonzero;"/><path d="M142.058,33.286c0.559,0 1.074,0.093 1.547,0.281c0.472,0.187 0.88,0.457 1.224,0.809c0.343,0.353 0.612,0.789 0.805,1.307c0.193,0.519 0.29,1.11 0.29,1.772c0,0.258 -0.027,0.43 -0.083,0.516c-0.055,0.086 -0.159,0.128 -0.313,0.128l-6.203,0c0.012,0.59 0.092,1.102 0.239,1.538c0.147,0.435 0.35,0.799 0.608,1.09c0.257,0.292 0.564,0.51 0.92,0.654c0.356,0.144 0.755,0.216 1.197,0.216c0.411,0 0.765,-0.048 1.063,-0.143c0.297,-0.095 0.553,-0.198 0.768,-0.308c0.215,-0.11 0.394,-0.213 0.539,-0.308c0.144,-0.095 0.268,-0.143 0.372,-0.143c0.135,0 0.24,0.052 0.313,0.156l0.46,0.599c-0.202,0.245 -0.444,0.458 -0.727,0.639c-0.282,0.181 -0.584,0.33 -0.906,0.447c-0.322,0.116 -0.655,0.204 -0.999,0.262c-0.343,0.058 -0.684,0.088 -1.022,0.088c-0.644,0 -1.237,-0.109 -1.78,-0.327c-0.544,-0.218 -1.013,-0.537 -1.409,-0.957c-0.395,-0.421 -0.704,-0.941 -0.925,-1.56c-0.221,-0.62 -0.331,-1.332 -0.331,-2.136c0,-0.65 0.1,-1.258 0.299,-1.822c0.199,-0.565 0.486,-1.054 0.861,-1.468c0.374,-0.414 0.831,-0.74 1.371,-0.976c0.54,-0.236 1.147,-0.354 1.822,-0.354Zm0.037,1.206c-0.791,0 -1.414,0.228 -1.868,0.685c-0.454,0.457 -0.736,1.091 -0.847,1.901l5.071,0c0,-0.381 -0.052,-0.729 -0.156,-1.045c-0.104,-0.316 -0.258,-0.589 -0.46,-0.819c-0.203,-0.23 -0.45,-0.408 -0.741,-0.534c-0.292,-0.126 -0.624,-0.188 -0.999,-0.188Z" style="fill:#f2f2f2;fill-rule:nonzero;"/><path d="M162.519,42.757l-1.795,0l0,-6.001l-7.105,0l0,6.001l-1.795,0l0,-13.19l1.795,0l0,5.882l7.105,0l0,-5.882l1.795,0l0,13.19Z" style="fill:#f2f2f2;fill-rule:nonzero;"/><path d="M177.991,36.167c0,0.988 -0.157,1.894 -0.47,2.719c-0.313,0.826 -0.754,1.536 -1.325,2.131c-0.571,0.595 -1.256,1.057 -2.057,1.385c-0.801,0.329 -1.686,0.493 -2.655,0.493c-0.97,0 -1.853,-0.164 -2.651,-0.493c-0.798,-0.328 -1.482,-0.79 -2.053,-1.385c-0.57,-0.595 -1.012,-1.305 -1.325,-2.131c-0.313,-0.825 -0.469,-1.731 -0.469,-2.719c0,-0.988 0.156,-1.895 0.469,-2.72c0.313,-0.825 0.755,-1.537 1.325,-2.135c0.571,-0.599 1.255,-1.064 2.053,-1.395c0.798,-0.331 1.681,-0.497 2.651,-0.497c0.969,0 1.854,0.166 2.655,0.497c0.801,0.331 1.486,0.796 2.057,1.395c0.571,0.598 1.012,1.31 1.325,2.135c0.313,0.825 0.47,1.732 0.47,2.72Zm-1.832,0c0,-0.81 -0.11,-1.537 -0.331,-2.182c-0.221,-0.644 -0.534,-1.189 -0.939,-1.633c-0.405,-0.445 -0.896,-0.787 -1.473,-1.027c-0.576,-0.239 -1.221,-0.359 -1.932,-0.359c-0.706,0 -1.347,0.12 -1.924,0.359c-0.577,0.24 -1.069,0.582 -1.477,1.027c-0.408,0.444 -0.723,0.989 -0.944,1.633c-0.221,0.645 -0.331,1.372 -0.331,2.182c0,0.81 0.11,1.535 0.331,2.176c0.221,0.642 0.536,1.185 0.944,1.63c0.408,0.444 0.9,0.785 1.477,1.021c0.577,0.236 1.218,0.355 1.924,0.355c0.711,0 1.356,-0.119 1.932,-0.355c0.577,-0.236 1.068,-0.577 1.473,-1.021c0.405,-0.445 0.718,-0.988 0.939,-1.63c0.221,-0.641 0.331,-1.366 0.331,-2.176Z" style="fill:#f2f2f2;fill-rule:nonzero;"/><path d="M187.186,31.629c-0.056,0.092 -0.114,0.161 -0.175,0.207c-0.062,0.046 -0.141,0.069 -0.24,0.069c-0.104,0 -0.225,-0.052 -0.363,-0.156c-0.138,-0.105 -0.313,-0.22 -0.525,-0.345c-0.211,-0.126 -0.466,-0.241 -0.764,-0.346c-0.297,-0.104 -0.658,-0.156 -1.081,-0.156c-0.399,0 -0.752,0.054 -1.059,0.161c-0.306,0.107 -0.563,0.253 -0.768,0.437c-0.206,0.184 -0.361,0.401 -0.465,0.649c-0.104,0.249 -0.156,0.517 -0.156,0.805c0,0.369 0.09,0.674 0.271,0.916c0.181,0.243 0.42,0.45 0.718,0.622c0.298,0.171 0.635,0.32 1.012,0.446c0.378,0.126 0.764,0.256 1.16,0.391c0.396,0.135 0.783,0.287 1.16,0.456c0.377,0.168 0.715,0.382 1.012,0.639c0.298,0.258 0.537,0.574 0.718,0.948c0.181,0.375 0.272,0.835 0.272,1.381c0,0.577 -0.098,1.118 -0.295,1.624c-0.196,0.507 -0.483,0.947 -0.86,1.321c-0.378,0.375 -0.841,0.669 -1.39,0.884c-0.549,0.215 -1.174,0.322 -1.873,0.322c-0.853,0 -1.631,-0.155 -2.333,-0.465c-0.703,-0.31 -1.303,-0.728 -1.8,-1.256l0.516,-0.847c0.049,-0.067 0.109,-0.124 0.179,-0.17c0.071,-0.046 0.149,-0.069 0.235,-0.069c0.129,0 0.276,0.069 0.442,0.207c0.165,0.138 0.372,0.29 0.621,0.455c0.248,0.166 0.549,0.318 0.902,0.456c0.353,0.138 0.784,0.207 1.293,0.207c0.423,0 0.801,-0.058 1.132,-0.175c0.331,-0.116 0.612,-0.28 0.842,-0.492c0.23,-0.212 0.407,-0.465 0.53,-0.759c0.122,-0.295 0.184,-0.623 0.184,-0.985c0,-0.399 -0.091,-0.726 -0.272,-0.981c-0.181,-0.254 -0.419,-0.467 -0.713,-0.639c-0.295,-0.172 -0.631,-0.318 -1.008,-0.437c-0.377,-0.12 -0.764,-0.243 -1.16,-0.369c-0.396,-0.125 -0.782,-0.271 -1.159,-0.437c-0.378,-0.165 -0.714,-0.38 -1.008,-0.644c-0.295,-0.264 -0.533,-0.594 -0.714,-0.989c-0.181,-0.396 -0.271,-0.886 -0.271,-1.468c0,-0.467 0.09,-0.918 0.271,-1.353c0.181,-0.436 0.444,-0.823 0.787,-1.16c0.344,-0.338 0.769,-0.608 1.275,-0.81c0.506,-0.203 1.088,-0.304 1.744,-0.304c0.737,0 1.408,0.117 2.016,0.35c0.607,0.233 1.138,0.571 1.592,1.012l-0.432,0.847Z" style="fill:#f2f2f2;fill-rule:nonzero;"/><path d="M199.169,29.567l0,1.501l-4.261,0l0,11.689l-1.786,0l0,-11.689l-4.28,0l0,-1.501l10.327,0Z" style="fill:#f2f2f2;fill-rule:nonzero;"/><path d="M210.481,41.459c0.356,0 0.683,-0.017 0.98,-0.051c0.298,-0.033 0.578,-0.084 0.842,-0.152c0.264,-0.067 0.513,-0.148 0.746,-0.243c0.233,-0.096 0.466,-0.204 0.699,-0.327l0,-2.909l-2.043,0c-0.117,0 -0.21,-0.033 -0.281,-0.101c-0.07,-0.067 -0.105,-0.15 -0.105,-0.248l0,-1.013l4.049,0l0,5.062c-0.331,0.24 -0.676,0.448 -1.035,0.626c-0.359,0.178 -0.743,0.327 -1.151,0.447c-0.408,0.119 -0.845,0.208 -1.311,0.267c-0.467,0.058 -0.973,0.087 -1.519,0.087c-0.957,0 -1.835,-0.164 -2.632,-0.492c-0.798,-0.329 -1.485,-0.789 -2.062,-1.381c-0.577,-0.592 -1.026,-1.302 -1.348,-2.131c-0.322,-0.828 -0.484,-1.739 -0.484,-2.733c0,-1.007 0.158,-1.924 0.474,-2.752c0.316,-0.829 0.767,-1.539 1.353,-2.131c0.586,-0.592 1.295,-1.051 2.127,-1.376c0.831,-0.325 1.762,-0.488 2.793,-0.488c0.522,0 1.006,0.038 1.454,0.115c0.448,0.077 0.864,0.187 1.247,0.332c0.384,0.144 0.738,0.319 1.063,0.524c0.326,0.206 0.629,0.437 0.912,0.695l-0.507,0.81c-0.104,0.166 -0.239,0.249 -0.405,0.249c-0.098,0 -0.205,-0.034 -0.322,-0.102c-0.153,-0.086 -0.325,-0.19 -0.515,-0.313c-0.19,-0.122 -0.422,-0.241 -0.695,-0.354c-0.273,-0.114 -0.595,-0.21 -0.966,-0.29c-0.372,-0.08 -0.812,-0.12 -1.321,-0.12c-0.743,0 -1.415,0.122 -2.016,0.364c-0.601,0.242 -1.114,0.589 -1.537,1.04c-0.423,0.451 -0.749,0.997 -0.976,1.638c-0.227,0.642 -0.34,1.361 -0.34,2.159c0,0.834 0.118,1.578 0.354,2.232c0.236,0.653 0.569,1.207 0.999,1.661c0.429,0.454 0.939,0.801 1.528,1.04c0.589,0.239 1.239,0.359 1.951,0.359Z" style="fill:#f2f2f2;fill-rule:nonzero;"/><path d="M230.362,36.167c0,0.988 -0.157,1.894 -0.47,2.719c-0.313,0.826 -0.755,1.536 -1.325,2.131c-0.571,0.595 -1.257,1.057 -2.057,1.385c-0.801,0.329 -1.686,0.493 -2.656,0.493c-0.969,0 -1.853,-0.164 -2.65,-0.493c-0.798,-0.328 -1.482,-0.79 -2.053,-1.385c-0.571,-0.595 -1.012,-1.305 -1.325,-2.131c-0.313,-0.825 -0.47,-1.731 -0.47,-2.719c0,-0.988 0.157,-1.895 0.47,-2.72c0.313,-0.825 0.754,-1.537 1.325,-2.135c0.571,-0.599 1.255,-1.064 2.053,-1.395c0.797,-0.331 1.681,-0.497 2.65,-0.497c0.97,0 1.855,0.166 2.656,0.497c0.8,0.331 1.486,0.796 2.057,1.395c0.57,0.598 1.012,1.31 1.325,2.135c0.313,0.825 0.47,1.732 0.47,2.72Zm-1.832,0c0,-0.81 -0.11,-1.537 -0.331,-2.182c-0.221,-0.644 -0.534,-1.189 -0.939,-1.633c-0.405,-0.445 -0.896,-0.787 -1.473,-1.027c-0.577,-0.239 -1.221,-0.359 -1.933,-0.359c-0.705,0 -1.347,0.12 -1.923,0.359c-0.577,0.24 -1.069,0.582 -1.478,1.027c-0.408,0.444 -0.722,0.989 -0.943,1.633c-0.221,0.645 -0.331,1.372 -0.331,2.182c0,0.81 0.11,1.535 0.331,2.176c0.221,0.642 0.535,1.185 0.943,1.63c0.409,0.444 0.901,0.785 1.478,1.021c0.576,0.236 1.218,0.355 1.923,0.355c0.712,0 1.356,-0.119 1.933,-0.355c0.577,-0.236 1.068,-0.577 1.473,-1.021c0.405,-0.445 0.718,-0.988 0.939,-1.63c0.221,-0.641 0.331,-1.366 0.331,-2.176Z" style="fill:#f2f2f2;fill-rule:nonzero;"/><path d="M230.794,29.567l1.427,0c0.159,0 0.288,0.04 0.386,0.12c0.099,0.08 0.172,0.181 0.221,0.304l3.728,9.305c0.086,0.209 0.164,0.436 0.235,0.681c0.07,0.246 0.139,0.5 0.207,0.764c0.055,-0.264 0.115,-0.518 0.179,-0.764c0.065,-0.245 0.14,-0.472 0.226,-0.681l3.709,-9.305c0.043,-0.105 0.116,-0.201 0.221,-0.29c0.104,-0.089 0.233,-0.134 0.386,-0.134l1.436,0l-5.375,13.19l-1.611,0l-5.375,-13.19Z" style="fill:#f2f2f2;fill-rule:nonzero;"/><path d="M252.967,29.567l0,1.455l-6.333,0l0,4.381l5.127,0l0,1.399l-5.127,0l0,4.5l6.333,0l0,1.455l-8.128,0l0,-13.19l8.128,0Z" style="fill:#f2f2f2;fill-rule:nonzero;"/><path d="M257.495,37.253l0,5.504l-1.776,0l0,-13.19l3.727,0c0.835,0 1.556,0.085 2.163,0.253c0.608,0.169 1.109,0.413 1.505,0.732c0.396,0.319 0.689,0.704 0.879,1.155c0.19,0.451 0.285,0.956 0.285,1.514c0,0.467 -0.073,0.902 -0.221,1.307c-0.147,0.405 -0.36,0.769 -0.639,1.091c-0.279,0.322 -0.62,0.597 -1.022,0.824c-0.402,0.227 -0.857,0.399 -1.367,0.515c0.221,0.129 0.418,0.316 0.589,0.562l3.848,5.237l-1.583,0c-0.326,0 -0.565,-0.126 -0.718,-0.378l-3.424,-4.712c-0.105,-0.147 -0.218,-0.253 -0.341,-0.318c-0.123,-0.064 -0.307,-0.096 -0.552,-0.096l-1.353,0Zm0,-1.298l1.868,0c0.522,0 0.981,-0.063 1.376,-0.189c0.396,-0.126 0.727,-0.303 0.994,-0.534c0.267,-0.23 0.468,-0.504 0.603,-0.823c0.135,-0.319 0.203,-0.672 0.203,-1.059c0,-0.785 -0.26,-1.377 -0.778,-1.776c-0.518,-0.399 -1.29,-0.598 -2.315,-0.598l-1.951,0l0,4.979Z" style="fill:#f2f2f2;fill-rule:nonzero;"/><path d="M268.31,29.567c0.159,0 0.277,0.02 0.354,0.06c0.077,0.04 0.164,0.121 0.262,0.244l7.64,9.94c-0.019,-0.159 -0.031,-0.314 -0.037,-0.464c-0.006,-0.151 -0.009,-0.296 -0.009,-0.438l0,-9.342l1.564,0l0,13.19l-0.902,0c-0.141,0 -0.259,-0.025 -0.354,-0.074c-0.095,-0.049 -0.189,-0.132 -0.281,-0.248l-7.63,-9.932c0.012,0.154 0.022,0.304 0.028,0.451c0.006,0.148 0.009,0.283 0.009,0.405l0,9.398l-1.565,0l0,-13.19l0.921,0Z" style="fill:#f2f2f2;fill-rule:nonzero;"/><path d="M293.556,36.167c0,0.988 -0.156,1.894 -0.469,2.719c-0.313,0.826 -0.755,1.536 -1.326,2.131c-0.57,0.595 -1.256,1.057 -2.057,1.385c-0.8,0.329 -1.686,0.493 -2.655,0.493c-0.97,0 -1.853,-0.164 -2.651,-0.493c-0.797,-0.328 -1.482,-0.79 -2.052,-1.385c-0.571,-0.595 -1.013,-1.305 -1.326,-2.131c-0.313,-0.825 -0.469,-1.731 -0.469,-2.719c0,-0.988 0.156,-1.895 0.469,-2.72c0.313,-0.825 0.755,-1.537 1.326,-2.135c0.57,-0.599 1.255,-1.064 2.052,-1.395c0.798,-0.331 1.681,-0.497 2.651,-0.497c0.969,0 1.855,0.166 2.655,0.497c0.801,0.331 1.487,0.796 2.057,1.395c0.571,0.598 1.013,1.31 1.326,2.135c0.313,0.825 0.469,1.732 0.469,2.72Zm-1.831,0c0,-0.81 -0.111,-1.537 -0.332,-2.182c-0.221,-0.644 -0.534,-1.189 -0.939,-1.633c-0.405,-0.445 -0.895,-0.787 -1.472,-1.027c-0.577,-0.239 -1.221,-0.359 -1.933,-0.359c-0.706,0 -1.347,0.12 -1.924,0.359c-0.576,0.24 -1.069,0.582 -1.477,1.027c-0.408,0.444 -0.722,0.989 -0.943,1.633c-0.221,0.645 -0.332,1.372 -0.332,2.182c0,0.81 0.111,1.535 0.332,2.176c0.221,0.642 0.535,1.185 0.943,1.63c0.408,0.444 0.901,0.785 1.477,1.021c0.577,0.236 1.218,0.355 1.924,0.355c0.712,0 1.356,-0.119 1.933,-0.355c0.577,-0.236 1.067,-0.577 1.472,-1.021c0.405,-0.445 0.718,-0.988 0.939,-1.63c0.221,-0.641 0.332,-1.366 0.332,-2.176Z" style="fill:#f2f2f2;fill-rule:nonzero;"/><path d="M297.956,37.253l0,5.504l-1.777,0l0,-13.19l3.728,0c0.834,0 1.555,0.085 2.163,0.253c0.607,0.169 1.109,0.413 1.505,0.732c0.396,0.319 0.689,0.704 0.879,1.155c0.19,0.451 0.285,0.956 0.285,1.514c0,0.467 -0.074,0.902 -0.221,1.307c-0.147,0.405 -0.36,0.769 -0.64,1.091c-0.279,0.322 -0.619,0.597 -1.021,0.824c-0.402,0.227 -0.858,0.399 -1.367,0.515c0.221,0.129 0.417,0.316 0.589,0.562l3.847,5.237l-1.583,0c-0.325,0 -0.564,-0.126 -0.718,-0.378l-3.424,-4.712c-0.104,-0.147 -0.217,-0.253 -0.34,-0.318c-0.123,-0.064 -0.307,-0.096 -0.552,-0.096l-1.353,0Zm0,-1.298l1.868,0c0.522,0 0.98,-0.063 1.376,-0.189c0.396,-0.126 0.727,-0.303 0.994,-0.534c0.267,-0.23 0.468,-0.504 0.603,-0.823c0.135,-0.319 0.203,-0.672 0.203,-1.059c0,-0.785 -0.26,-1.377 -0.778,-1.776c-0.519,-0.399 -1.29,-0.598 -2.315,-0.598l-1.951,0l0,4.979Z" style="fill:#f2f2f2;fill-rule:nonzero;"/></g><rect x="285.104" y="113.591" width="268.229" height="56.786" style="fill:#a8dcd1;"/><rect x="285.104" y="198.77" width="268.229" height="56.786" style="fill:#fae9ac;"/><rect x="285.104" y="283.949" width="268.229" height="56.786" style="fill:#ffd131;"/><g><path d="M316.382,148.578l-0.727,0c-0.159,0 -0.288,-0.024 -0.386,-0.073c-0.098,-0.049 -0.163,-0.154 -0.193,-0.313l-0.185,-0.865c-0.245,0.221 -0.484,0.418 -0.717,0.593c-0.234,0.175 -0.479,0.322 -0.737,0.442c-0.258,0.12 -0.532,0.21 -0.824,0.272c-0.291,0.061 -0.615,0.092 -0.971,0.092c-0.362,0 -0.701,-0.051 -1.017,-0.153c-0.316,-0.101 -0.59,-0.254 -0.823,-0.457c-0.234,-0.203 -0.419,-0.46 -0.557,-0.771c-0.138,-0.311 -0.207,-0.679 -0.207,-1.104c0,-0.369 0.101,-0.725 0.303,-1.066c0.203,-0.342 0.53,-0.645 0.981,-0.91c0.451,-0.265 1.041,-0.482 1.771,-0.651c0.731,-0.17 1.623,-0.254 2.679,-0.254l0,-0.732c0,-0.729 -0.155,-1.28 -0.465,-1.653c-0.31,-0.374 -0.769,-0.561 -1.376,-0.561c-0.399,0 -0.735,0.051 -1.008,0.152c-0.273,0.102 -0.509,0.215 -0.709,0.341c-0.199,0.126 -0.371,0.239 -0.515,0.34c-0.144,0.102 -0.287,0.152 -0.428,0.152c-0.11,0 -0.207,-0.029 -0.29,-0.087c-0.083,-0.058 -0.149,-0.131 -0.198,-0.216l-0.294,-0.525c0.515,-0.497 1.07,-0.868 1.666,-1.114c0.595,-0.245 1.254,-0.368 1.978,-0.368c0.522,0 0.985,0.086 1.39,0.258c0.405,0.172 0.746,0.411 1.022,0.718c0.276,0.307 0.485,0.678 0.626,1.113c0.141,0.436 0.211,0.915 0.211,1.436l0,5.964Zm-4.252,-1.003c0.289,0 0.552,-0.029 0.792,-0.087c0.239,-0.059 0.465,-0.141 0.676,-0.249c0.212,-0.107 0.414,-0.238 0.608,-0.391c0.193,-0.153 0.382,-0.328 0.566,-0.525l0,-1.923c-0.755,0 -1.396,0.048 -1.924,0.143c-0.528,0.096 -0.957,0.221 -1.288,0.375c-0.332,0.155 -0.573,0.337 -0.723,0.546c-0.15,0.21 -0.225,0.445 -0.225,0.704c0,0.247 0.039,0.46 0.119,0.639c0.08,0.179 0.187,0.325 0.322,0.44c0.135,0.114 0.295,0.197 0.479,0.25c0.184,0.052 0.383,0.078 0.598,0.078Z" style="fill:#333;fill-rule:nonzero;"/><path d="M317.505,139.255l1.289,0c0.135,0 0.245,0.034 0.331,0.101c0.086,0.068 0.144,0.147 0.175,0.239l1.786,6.001c0.049,0.221 0.095,0.434 0.138,0.64c0.043,0.206 0.08,0.413 0.11,0.621c0.049,-0.208 0.105,-0.415 0.166,-0.621c0.061,-0.206 0.126,-0.419 0.193,-0.64l1.97,-6.037c0.031,-0.093 0.084,-0.169 0.161,-0.231c0.077,-0.061 0.173,-0.092 0.29,-0.092l0.709,0c0.122,0 0.224,0.031 0.303,0.092c0.08,0.062 0.135,0.138 0.166,0.231l1.924,6.037c0.067,0.215 0.127,0.427 0.179,0.635c0.052,0.209 0.103,0.415 0.152,0.617c0.031,-0.202 0.07,-0.414 0.12,-0.635c0.049,-0.221 0.101,-0.426 0.156,-0.617l1.822,-6.001c0.031,-0.098 0.089,-0.179 0.175,-0.244c0.086,-0.064 0.187,-0.096 0.304,-0.096l1.233,0l-3.019,9.323l-1.297,0c-0.16,0 -0.27,-0.104 -0.332,-0.313l-2.061,-6.323c-0.049,-0.141 -0.089,-0.283 -0.12,-0.428c-0.031,-0.144 -0.061,-0.287 -0.092,-0.428c-0.031,0.141 -0.061,0.286 -0.092,0.433c-0.031,0.147 -0.071,0.291 -0.12,0.433l-2.089,6.313c-0.068,0.209 -0.193,0.313 -0.377,0.313l-1.234,0l-3.019,-9.323Z" style="fill:#333;fill-rule:nonzero;"/><path d="M338.159,140.792c-0.074,0.135 -0.187,0.202 -0.34,0.202c-0.092,0 -0.197,-0.033 -0.313,-0.101c-0.117,-0.067 -0.26,-0.143 -0.428,-0.225c-0.169,-0.083 -0.37,-0.16 -0.603,-0.231c-0.233,-0.07 -0.509,-0.105 -0.829,-0.105c-0.276,0 -0.524,0.035 -0.745,0.105c-0.221,0.071 -0.41,0.168 -0.566,0.29c-0.157,0.123 -0.276,0.266 -0.359,0.428c-0.083,0.163 -0.124,0.339 -0.124,0.53c0,0.239 0.069,0.438 0.207,0.598c0.138,0.159 0.32,0.297 0.547,0.414c0.227,0.117 0.485,0.219 0.774,0.308c0.288,0.089 0.584,0.184 0.888,0.286c0.303,0.101 0.6,0.213 0.888,0.336c0.288,0.122 0.546,0.276 0.773,0.46c0.227,0.184 0.41,0.409 0.548,0.676c0.138,0.267 0.207,0.588 0.207,0.962c0,0.43 -0.077,0.827 -0.23,1.192c-0.154,0.365 -0.381,0.681 -0.681,0.948c-0.301,0.267 -0.669,0.477 -1.105,0.631c-0.436,0.153 -0.939,0.23 -1.509,0.23c-0.651,0 -1.24,-0.106 -1.768,-0.318c-0.527,-0.212 -0.975,-0.483 -1.343,-0.814l0.386,-0.626c0.049,-0.08 0.108,-0.141 0.175,-0.184c0.068,-0.043 0.157,-0.065 0.267,-0.065c0.11,0 0.227,0.043 0.35,0.129c0.123,0.086 0.271,0.181 0.446,0.285c0.175,0.105 0.387,0.2 0.635,0.286c0.249,0.086 0.56,0.129 0.934,0.129c0.32,0 0.599,-0.042 0.838,-0.125c0.239,-0.083 0.439,-0.194 0.598,-0.336c0.16,-0.141 0.278,-0.303 0.355,-0.487c0.076,-0.185 0.115,-0.381 0.115,-0.589c0,-0.258 -0.069,-0.471 -0.207,-0.64c-0.138,-0.169 -0.321,-0.313 -0.548,-0.433c-0.227,-0.119 -0.486,-0.224 -0.778,-0.313c-0.291,-0.089 -0.589,-0.182 -0.893,-0.28c-0.303,-0.099 -0.601,-0.211 -0.892,-0.336c-0.292,-0.126 -0.551,-0.284 -0.778,-0.474c-0.227,-0.191 -0.41,-0.425 -0.548,-0.704c-0.138,-0.28 -0.207,-0.619 -0.207,-1.018c0,-0.355 0.074,-0.697 0.221,-1.026c0.147,-0.328 0.362,-0.616 0.644,-0.865c0.283,-0.248 0.629,-0.446 1.04,-0.594c0.412,-0.147 0.881,-0.22 1.409,-0.22c0.613,0 1.164,0.096 1.652,0.289c0.488,0.194 0.909,0.459 1.265,0.797l-0.368,0.598Z" style="fill:#333;fill-rule:nonzero;"/><path d="M340.276,147.566c0,-0.16 0.029,-0.31 0.087,-0.451c0.059,-0.141 0.139,-0.264 0.24,-0.368c0.101,-0.104 0.222,-0.187 0.363,-0.249c0.141,-0.061 0.292,-0.092 0.451,-0.092c0.16,0 0.31,0.031 0.451,0.092c0.141,0.062 0.264,0.145 0.369,0.249c0.104,0.104 0.185,0.227 0.243,0.368c0.059,0.141 0.088,0.291 0.088,0.451c0,0.166 -0.029,0.318 -0.088,0.456c-0.058,0.138 -0.139,0.259 -0.243,0.363c-0.105,0.104 -0.228,0.186 -0.369,0.244c-0.141,0.058 -0.291,0.087 -0.451,0.087c-0.159,0 -0.31,-0.029 -0.451,-0.087c-0.141,-0.058 -0.262,-0.14 -0.363,-0.244c-0.101,-0.104 -0.181,-0.225 -0.24,-0.363c-0.058,-0.138 -0.087,-0.29 -0.087,-0.456Z" style="fill:#333;fill-rule:nonzero;"/><path d="M348.403,139.108c0.559,0 1.074,0.093 1.546,0.28c0.473,0.187 0.881,0.457 1.225,0.81c0.343,0.353 0.612,0.789 0.805,1.307c0.193,0.519 0.29,1.109 0.29,1.772c0,0.258 -0.028,0.429 -0.083,0.515c-0.055,0.086 -0.16,0.129 -0.313,0.129l-6.203,0c0.012,0.589 0.092,1.102 0.239,1.537c0.147,0.436 0.35,0.799 0.607,1.091c0.258,0.291 0.565,0.509 0.921,0.653c0.356,0.145 0.754,0.217 1.196,0.217c0.411,0 0.766,-0.048 1.063,-0.143c0.298,-0.095 0.554,-0.198 0.769,-0.308c0.215,-0.111 0.394,-0.214 0.538,-0.309c0.145,-0.095 0.269,-0.142 0.373,-0.142c0.135,0 0.239,0.052 0.313,0.156l0.46,0.598c-0.202,0.246 -0.445,0.459 -0.727,0.64c-0.282,0.181 -0.584,0.33 -0.907,0.447c-0.322,0.116 -0.655,0.204 -0.998,0.262c-0.344,0.058 -0.684,0.087 -1.022,0.087c-0.644,0 -1.238,-0.109 -1.781,-0.326c-0.543,-0.218 -1.012,-0.537 -1.408,-0.958c-0.396,-0.42 -0.704,-0.94 -0.925,-1.56c-0.221,-0.619 -0.331,-1.331 -0.331,-2.135c0,-0.65 0.099,-1.258 0.299,-1.822c0.199,-0.565 0.486,-1.054 0.86,-1.469c0.375,-0.414 0.832,-0.739 1.372,-0.975c0.54,-0.236 1.147,-0.354 1.822,-0.354Zm0.037,1.205c-0.792,0 -1.414,0.229 -1.868,0.686c-0.454,0.457 -0.737,1.091 -0.847,1.901l5.071,0c0,-0.381 -0.052,-0.729 -0.156,-1.045c-0.105,-0.316 -0.258,-0.589 -0.46,-0.819c-0.203,-0.23 -0.45,-0.408 -0.741,-0.534c-0.292,-0.126 -0.625,-0.189 -0.999,-0.189Z" style="fill:#333;fill-rule:nonzero;"/><path d="M355.987,143.802l-3.138,-4.547l1.574,0c0.135,0 0.233,0.021 0.294,0.064c0.061,0.043 0.117,0.105 0.166,0.184l2.282,3.498c0.056,-0.172 0.135,-0.344 0.24,-0.516l2.006,-2.945c0.062,-0.086 0.123,-0.155 0.184,-0.207c0.062,-0.052 0.138,-0.078 0.23,-0.078l1.51,0l-3.139,4.455l3.268,4.868l-1.574,0c-0.135,0 -0.241,-0.035 -0.318,-0.105c-0.076,-0.071 -0.139,-0.149 -0.188,-0.235l-2.347,-3.654c-0.043,0.178 -0.108,0.337 -0.194,0.478l-2.172,3.176c-0.061,0.086 -0.127,0.164 -0.198,0.235c-0.07,0.07 -0.167,0.105 -0.29,0.105l-1.463,0l3.267,-4.776Z" style="fill:#333;fill-rule:nonzero;"/><path d="M366.222,139.108c0.558,0 1.074,0.093 1.546,0.28c0.473,0.187 0.881,0.457 1.225,0.81c0.343,0.353 0.612,0.789 0.805,1.307c0.193,0.519 0.29,1.109 0.29,1.772c0,0.258 -0.028,0.429 -0.083,0.515c-0.055,0.086 -0.16,0.129 -0.313,0.129l-6.203,0c0.012,0.589 0.092,1.102 0.239,1.537c0.147,0.436 0.35,0.799 0.607,1.091c0.258,0.291 0.565,0.509 0.921,0.653c0.356,0.145 0.754,0.217 1.196,0.217c0.411,0 0.766,-0.048 1.063,-0.143c0.298,-0.095 0.554,-0.198 0.769,-0.308c0.215,-0.111 0.394,-0.214 0.538,-0.309c0.144,-0.095 0.269,-0.142 0.373,-0.142c0.135,0 0.239,0.052 0.313,0.156l0.46,0.598c-0.202,0.246 -0.445,0.459 -0.727,0.64c-0.282,0.181 -0.584,0.33 -0.907,0.447c-0.322,0.116 -0.655,0.204 -0.998,0.262c-0.344,0.058 -0.684,0.087 -1.022,0.087c-0.644,0 -1.238,-0.109 -1.781,-0.326c-0.543,-0.218 -1.012,-0.537 -1.408,-0.958c-0.396,-0.42 -0.704,-0.94 -0.925,-1.56c-0.221,-0.619 -0.331,-1.331 -0.331,-2.135c0,-0.65 0.099,-1.258 0.299,-1.822c0.199,-0.565 0.486,-1.054 0.86,-1.469c0.375,-0.414 0.832,-0.739 1.372,-0.975c0.54,-0.236 1.147,-0.354 1.822,-0.354Zm0.037,1.205c-0.792,0 -1.414,0.229 -1.868,0.686c-0.455,0.457 -0.737,1.091 -0.847,1.901l5.071,0c0,-0.381 -0.052,-0.729 -0.156,-1.045c-0.105,-0.316 -0.258,-0.589 -0.461,-0.819c-0.202,-0.23 -0.449,-0.408 -0.74,-0.534c-0.292,-0.126 -0.625,-0.189 -0.999,-0.189Z" style="fill:#333;fill-rule:nonzero;"/><path d="M374.515,135.389l1.482,0c0.159,0 0.291,0.04 0.396,0.12c0.104,0.08 0.174,0.181 0.211,0.303l2.725,9.168c0.049,0.165 0.093,0.343 0.133,0.533c0.04,0.191 0.078,0.39 0.115,0.599c0.043,-0.209 0.086,-0.41 0.129,-0.603c0.043,-0.193 0.092,-0.37 0.147,-0.529l3.102,-9.168c0.037,-0.104 0.109,-0.2 0.216,-0.289c0.108,-0.089 0.238,-0.134 0.391,-0.134l0.516,0c0.159,0 0.29,0.04 0.391,0.12c0.101,0.08 0.173,0.181 0.216,0.303l3.084,9.168c0.11,0.319 0.208,0.684 0.294,1.095c0.037,-0.203 0.071,-0.396 0.101,-0.58c0.031,-0.184 0.071,-0.356 0.12,-0.515l2.734,-9.168c0.03,-0.11 0.099,-0.208 0.207,-0.294c0.107,-0.086 0.238,-0.129 0.391,-0.129l1.39,0l-4.114,13.189l-1.602,0l-3.341,-10.06c-0.067,-0.19 -0.129,-0.411 -0.184,-0.662c-0.031,0.122 -0.06,0.241 -0.088,0.354c-0.027,0.114 -0.056,0.216 -0.087,0.308l-3.359,10.06l-1.602,0l-4.114,-13.189Z" style="fill:#333;fill-rule:nonzero;"/><path d="M393.273,135.389l1.482,0c0.159,0 0.291,0.04 0.395,0.12c0.105,0.08 0.175,0.181 0.212,0.303l2.724,9.168c0.049,0.165 0.094,0.343 0.134,0.533c0.04,0.191 0.078,0.39 0.115,0.599c0.043,-0.209 0.086,-0.41 0.129,-0.603c0.043,-0.193 0.092,-0.37 0.147,-0.529l3.102,-9.168c0.037,-0.104 0.109,-0.2 0.216,-0.289c0.107,-0.089 0.238,-0.134 0.391,-0.134l0.516,0c0.159,0 0.29,0.04 0.391,0.12c0.101,0.08 0.173,0.181 0.216,0.303l3.083,9.168c0.111,0.319 0.209,0.684 0.295,1.095c0.037,-0.203 0.071,-0.396 0.101,-0.58c0.031,-0.184 0.071,-0.356 0.12,-0.515l2.733,-9.168c0.031,-0.11 0.1,-0.208 0.208,-0.294c0.107,-0.086 0.237,-0.129 0.391,-0.129l1.389,0l-4.114,13.189l-1.601,0l-3.341,-10.06c-0.068,-0.19 -0.129,-0.411 -0.184,-0.662c-0.031,0.122 -0.06,0.241 -0.088,0.354c-0.027,0.114 -0.057,0.216 -0.087,0.308l-3.36,10.06l-1.601,0l-4.114,-13.189Z" style="fill:#333;fill-rule:nonzero;"/><path d="M412.03,135.389l1.482,0c0.16,0 0.292,0.04 0.396,0.12c0.104,0.08 0.175,0.181 0.212,0.303l2.724,9.168c0.049,0.165 0.094,0.343 0.134,0.533c0.039,0.191 0.078,0.39 0.115,0.599c0.043,-0.209 0.086,-0.41 0.128,-0.603c0.043,-0.193 0.092,-0.37 0.148,-0.529l3.101,-9.168c0.037,-0.104 0.109,-0.2 0.217,-0.289c0.107,-0.089 0.238,-0.134 0.391,-0.134l0.515,0c0.16,0 0.29,0.04 0.392,0.12c0.101,0.08 0.173,0.181 0.216,0.303l3.083,9.168c0.111,0.319 0.209,0.684 0.295,1.095c0.037,-0.203 0.07,-0.396 0.101,-0.58c0.031,-0.184 0.07,-0.356 0.12,-0.515l2.733,-9.168c0.031,-0.11 0.1,-0.208 0.207,-0.294c0.108,-0.086 0.238,-0.129 0.391,-0.129l1.39,0l-4.114,13.189l-1.601,0l-3.342,-10.06c-0.067,-0.19 -0.128,-0.411 -0.184,-0.662c-0.03,0.122 -0.059,0.241 -0.087,0.354c-0.028,0.114 -0.057,0.216 -0.087,0.308l-3.36,10.06l-1.601,0l-4.115,-13.189Z" style="fill:#333;fill-rule:nonzero;"/><path d="M442.569,137.451c-0.055,0.092 -0.113,0.161 -0.175,0.207c-0.061,0.046 -0.141,0.069 -0.239,0.069c-0.104,0 -0.225,-0.052 -0.363,-0.157c-0.139,-0.104 -0.313,-0.219 -0.525,-0.345c-0.212,-0.125 -0.466,-0.241 -0.764,-0.345c-0.298,-0.104 -0.658,-0.156 -1.082,-0.156c-0.398,0 -0.751,0.053 -1.058,0.161c-0.307,0.107 -0.563,0.253 -0.768,0.437c-0.206,0.184 -0.361,0.4 -0.465,0.649c-0.105,0.248 -0.157,0.517 -0.157,0.805c0,0.368 0.091,0.674 0.272,0.916c0.181,0.242 0.42,0.449 0.718,0.621c0.297,0.172 0.635,0.321 1.012,0.447c0.377,0.125 0.764,0.256 1.16,0.391c0.396,0.135 0.782,0.287 1.16,0.455c0.377,0.169 0.714,0.382 1.012,0.64c0.298,0.258 0.537,0.574 0.718,0.948c0.181,0.374 0.271,0.835 0.271,1.381c0,0.576 -0.098,1.118 -0.294,1.624c-0.197,0.506 -0.483,0.947 -0.861,1.321c-0.377,0.374 -0.84,0.669 -1.39,0.884c-0.549,0.214 -1.173,0.322 -1.873,0.322c-0.852,0 -1.63,-0.155 -2.333,-0.465c-0.702,-0.31 -1.302,-0.729 -1.799,-1.256l0.515,-0.847c0.049,-0.068 0.109,-0.124 0.18,-0.171c0.07,-0.046 0.149,-0.069 0.234,-0.069c0.129,0 0.277,0.069 0.442,0.208c0.166,0.138 0.373,0.289 0.622,0.455c0.248,0.166 0.549,0.318 0.902,0.456c0.352,0.138 0.783,0.207 1.293,0.207c0.423,0 0.8,-0.058 1.132,-0.175c0.331,-0.117 0.612,-0.281 0.842,-0.492c0.23,-0.212 0.406,-0.465 0.529,-0.76c0.123,-0.294 0.184,-0.623 0.184,-0.985c0,-0.398 -0.09,-0.725 -0.271,-0.98c-0.181,-0.254 -0.419,-0.468 -0.714,-0.64c-0.294,-0.171 -0.63,-0.317 -1.007,-0.437c-0.378,-0.119 -0.764,-0.242 -1.16,-0.368c-0.396,-0.126 -0.782,-0.271 -1.16,-0.437c-0.377,-0.166 -0.713,-0.38 -1.008,-0.644c-0.294,-0.264 -0.532,-0.594 -0.713,-0.99c-0.181,-0.396 -0.271,-0.885 -0.271,-1.468c0,-0.466 0.09,-0.917 0.271,-1.353c0.181,-0.435 0.443,-0.822 0.787,-1.159c0.344,-0.338 0.769,-0.608 1.275,-0.81c0.506,-0.203 1.087,-0.304 1.744,-0.304c0.736,0 1.408,0.116 2.016,0.35c0.607,0.233 1.138,0.57 1.592,1.012l-0.433,0.847Z" style="fill:#333;fill-rule:nonzero;"/><path d="M449.003,139.108c0.558,0 1.074,0.093 1.546,0.28c0.473,0.187 0.881,0.457 1.224,0.81c0.344,0.353 0.612,0.789 0.806,1.307c0.193,0.519 0.29,1.109 0.29,1.772c0,0.258 -0.028,0.429 -0.083,0.515c-0.056,0.086 -0.16,0.129 -0.313,0.129l-6.204,0c0.013,0.589 0.092,1.102 0.24,1.537c0.147,0.436 0.349,0.799 0.607,1.091c0.258,0.291 0.565,0.509 0.92,0.653c0.356,0.145 0.755,0.217 1.197,0.217c0.411,0 0.765,-0.048 1.063,-0.143c0.298,-0.095 0.554,-0.198 0.769,-0.308c0.214,-0.111 0.394,-0.214 0.538,-0.309c0.144,-0.095 0.268,-0.142 0.373,-0.142c0.135,0 0.239,0.052 0.313,0.156l0.46,0.598c-0.203,0.246 -0.445,0.459 -0.727,0.64c-0.282,0.181 -0.585,0.33 -0.907,0.447c-0.322,0.116 -0.655,0.204 -0.998,0.262c-0.344,0.058 -0.685,0.087 -1.022,0.087c-0.644,0 -1.238,-0.109 -1.781,-0.326c-0.543,-0.218 -1.013,-0.537 -1.408,-0.958c-0.396,-0.42 -0.704,-0.94 -0.925,-1.56c-0.221,-0.619 -0.332,-1.331 -0.332,-2.135c0,-0.65 0.1,-1.258 0.299,-1.822c0.2,-0.565 0.487,-1.054 0.861,-1.469c0.374,-0.414 0.831,-0.739 1.371,-0.975c0.54,-0.236 1.148,-0.354 1.823,-0.354Zm0.037,1.205c-0.792,0 -1.415,0.229 -1.869,0.686c-0.454,0.457 -0.736,1.091 -0.847,1.901l5.072,0c0,-0.381 -0.052,-0.729 -0.157,-1.045c-0.104,-0.316 -0.257,-0.589 -0.46,-0.819c-0.202,-0.23 -0.449,-0.408 -0.741,-0.534c-0.291,-0.126 -0.624,-0.189 -0.998,-0.189Z" style="fill:#333;fill-rule:nonzero;"/><path d="M454.958,148.578l0,-9.323l0.939,0c0.178,0 0.3,0.034 0.368,0.101c0.067,0.068 0.113,0.184 0.138,0.35l0.11,1.454c0.319,-0.65 0.714,-1.158 1.183,-1.523c0.469,-0.365 1.02,-0.548 1.652,-0.548c0.258,0 0.491,0.029 0.7,0.088c0.208,0.058 0.402,0.139 0.58,0.243l-0.212,1.225c-0.043,0.153 -0.138,0.23 -0.286,0.23c-0.085,0 -0.217,-0.029 -0.395,-0.088c-0.178,-0.058 -0.427,-0.087 -0.746,-0.087c-0.57,0 -1.048,0.165 -1.431,0.497c-0.384,0.331 -0.704,0.813 -0.962,1.445l0,5.936l-1.638,0Z" style="fill:#333;fill-rule:nonzero;"/><path d="M461.198,139.255l1.344,0c0.129,0 0.236,0.034 0.322,0.101c0.086,0.068 0.147,0.147 0.184,0.239l2.366,6.001c0.085,0.221 0.153,0.442 0.202,0.663c0.049,0.221 0.095,0.439 0.138,0.653c0.049,-0.214 0.101,-0.432 0.157,-0.653c0.055,-0.221 0.125,-0.442 0.211,-0.663l2.393,-6.001c0.037,-0.098 0.097,-0.179 0.18,-0.244c0.083,-0.064 0.185,-0.096 0.308,-0.096l1.279,0l-3.801,9.323l-1.482,0l-3.801,-9.323Z" style="fill:#333;fill-rule:nonzero;"/><path d="M475.253,139.108c0.558,0 1.073,0.093 1.546,0.28c0.472,0.187 0.88,0.457 1.224,0.81c0.344,0.353 0.612,0.789 0.805,1.307c0.194,0.519 0.29,1.109 0.29,1.772c0,0.258 -0.027,0.429 -0.083,0.515c-0.055,0.086 -0.159,0.129 -0.312,0.129l-6.204,0c0.012,0.589 0.092,1.102 0.239,1.537c0.148,0.436 0.35,0.799 0.608,1.091c0.258,0.291 0.564,0.509 0.92,0.653c0.356,0.145 0.755,0.217 1.197,0.217c0.411,0 0.765,-0.048 1.063,-0.143c0.297,-0.095 0.554,-0.198 0.768,-0.308c0.215,-0.111 0.395,-0.214 0.539,-0.309c0.144,-0.095 0.268,-0.142 0.373,-0.142c0.135,0 0.239,0.052 0.312,0.156l0.461,0.598c-0.203,0.246 -0.445,0.459 -0.727,0.64c-0.283,0.181 -0.585,0.33 -0.907,0.447c-0.322,0.116 -0.655,0.204 -0.999,0.262c-0.343,0.058 -0.684,0.087 -1.021,0.087c-0.645,0 -1.238,-0.109 -1.781,-0.326c-0.543,-0.218 -1.013,-0.537 -1.408,-0.958c-0.396,-0.42 -0.705,-0.94 -0.925,-1.56c-0.221,-0.619 -0.332,-1.331 -0.332,-2.135c0,-0.65 0.1,-1.258 0.299,-1.822c0.2,-0.565 0.487,-1.054 0.861,-1.469c0.374,-0.414 0.831,-0.739 1.371,-0.975c0.54,-0.236 1.148,-0.354 1.823,-0.354Zm0.036,1.205c-0.791,0 -1.414,0.229 -1.868,0.686c-0.454,0.457 -0.736,1.091 -0.847,1.901l5.072,0c0,-0.381 -0.052,-0.729 -0.157,-1.045c-0.104,-0.316 -0.257,-0.589 -0.46,-0.819c-0.202,-0.23 -0.449,-0.408 -0.741,-0.534c-0.291,-0.126 -0.624,-0.189 -0.999,-0.189Z" style="fill:#333;fill-rule:nonzero;"/><path d="M481.208,148.578l0,-9.323l0.938,0c0.178,0 0.301,0.034 0.369,0.101c0.067,0.068 0.113,0.184 0.138,0.35l0.11,1.454c0.319,-0.65 0.713,-1.158 1.183,-1.523c0.469,-0.365 1.02,-0.548 1.652,-0.548c0.258,0 0.491,0.029 0.699,0.088c0.209,0.058 0.402,0.139 0.58,0.243l-0.211,1.225c-0.043,0.153 -0.138,0.23 -0.286,0.23c-0.086,0 -0.218,-0.029 -0.395,-0.088c-0.178,-0.058 -0.427,-0.087 -0.746,-0.087c-0.571,0 -1.048,0.165 -1.431,0.497c-0.384,0.331 -0.704,0.813 -0.962,1.445l0,5.936l-1.638,0Z" style="fill:#333;fill-rule:nonzero;"/><path d="M503.132,148.578l-1.795,0l0,-6.001l-7.106,0l0,6.001l-1.794,0l0,-13.189l1.794,0l0,5.881l7.106,0l0,-5.881l1.795,0l0,13.189Z" style="fill:#333;fill-rule:nonzero;"/><path d="M509.869,139.108c0.681,0 1.296,0.113 1.845,0.34c0.549,0.227 1.016,0.549 1.399,0.966c0.384,0.418 0.678,0.922 0.884,1.515c0.205,0.592 0.308,1.253 0.308,1.983c0,0.736 -0.103,1.399 -0.308,1.988c-0.206,0.589 -0.5,1.092 -0.884,1.51c-0.383,0.417 -0.85,0.737 -1.399,0.961c-0.549,0.224 -1.164,0.336 -1.845,0.336c-0.681,0 -1.296,-0.112 -1.846,-0.336c-0.549,-0.224 -1.017,-0.544 -1.403,-0.961c-0.387,-0.418 -0.684,-0.921 -0.893,-1.51c-0.209,-0.589 -0.313,-1.252 -0.313,-1.988c0,-0.73 0.104,-1.391 0.313,-1.983c0.209,-0.593 0.506,-1.097 0.893,-1.515c0.386,-0.417 0.854,-0.739 1.403,-0.966c0.55,-0.227 1.165,-0.34 1.846,-0.34Zm0,8.32c0.92,0 1.608,-0.308 2.062,-0.925c0.454,-0.617 0.681,-1.477 0.681,-2.582c0,-1.11 -0.227,-1.976 -0.681,-2.595c-0.454,-0.62 -1.142,-0.93 -2.062,-0.93c-0.466,0 -0.871,0.08 -1.215,0.239c-0.344,0.16 -0.631,0.39 -0.861,0.691c-0.23,0.3 -0.402,0.67 -0.515,1.109c-0.114,0.438 -0.17,0.934 -0.17,1.486c0,0.552 0.056,1.046 0.17,1.482c0.113,0.436 0.285,0.802 0.515,1.1c0.23,0.298 0.517,0.526 0.861,0.686c0.344,0.159 0.749,0.239 1.215,0.239Z" style="fill:#333;fill-rule:nonzero;"/><path d="M521.668,140.792c-0.073,0.135 -0.187,0.202 -0.34,0.202c-0.092,0 -0.196,-0.033 -0.313,-0.101c-0.117,-0.067 -0.259,-0.143 -0.428,-0.225c-0.169,-0.083 -0.37,-0.16 -0.603,-0.231c-0.233,-0.07 -0.509,-0.105 -0.828,-0.105c-0.276,0 -0.525,0.035 -0.746,0.105c-0.221,0.071 -0.409,0.168 -0.566,0.29c-0.156,0.123 -0.276,0.266 -0.359,0.428c-0.083,0.163 -0.124,0.339 -0.124,0.53c0,0.239 0.069,0.438 0.207,0.598c0.138,0.159 0.321,0.297 0.548,0.414c0.227,0.117 0.484,0.219 0.773,0.308c0.288,0.089 0.584,0.184 0.888,0.286c0.304,0.101 0.6,0.213 0.888,0.336c0.289,0.122 0.546,0.276 0.773,0.46c0.227,0.184 0.41,0.409 0.548,0.676c0.138,0.267 0.207,0.588 0.207,0.962c0,0.43 -0.077,0.827 -0.23,1.192c-0.153,0.365 -0.38,0.681 -0.681,0.948c-0.301,0.267 -0.669,0.477 -1.105,0.631c-0.435,0.153 -0.938,0.23 -1.509,0.23c-0.651,0 -1.24,-0.106 -1.767,-0.318c-0.528,-0.212 -0.976,-0.483 -1.344,-0.814l0.387,-0.626c0.049,-0.08 0.107,-0.141 0.174,-0.184c0.068,-0.043 0.157,-0.065 0.267,-0.065c0.111,0 0.227,0.043 0.35,0.129c0.123,0.086 0.272,0.181 0.446,0.285c0.175,0.105 0.387,0.2 0.636,0.286c0.248,0.086 0.559,0.129 0.934,0.129c0.319,0 0.598,-0.042 0.837,-0.125c0.24,-0.083 0.439,-0.194 0.599,-0.336c0.159,-0.141 0.277,-0.303 0.354,-0.487c0.077,-0.185 0.115,-0.381 0.115,-0.589c0,-0.258 -0.069,-0.471 -0.207,-0.64c-0.138,-0.169 -0.321,-0.313 -0.548,-0.433c-0.227,-0.119 -0.486,-0.224 -0.778,-0.313c-0.291,-0.089 -0.589,-0.182 -0.892,-0.28c-0.304,-0.099 -0.602,-0.211 -0.893,-0.336c-0.292,-0.126 -0.551,-0.284 -0.778,-0.474c-0.227,-0.191 -0.409,-0.425 -0.547,-0.704c-0.139,-0.28 -0.208,-0.619 -0.208,-1.018c0,-0.355 0.074,-0.697 0.221,-1.026c0.148,-0.328 0.362,-0.616 0.645,-0.865c0.282,-0.248 0.629,-0.446 1.04,-0.594c0.411,-0.147 0.88,-0.22 1.408,-0.22c0.613,0 1.164,0.096 1.652,0.289c0.488,0.194 0.91,0.459 1.266,0.797l-0.369,0.598Z" style="fill:#333;fill-rule:nonzero;"/><path d="M527.145,148.726c-0.737,0 -1.303,-0.206 -1.698,-0.617c-0.396,-0.411 -0.594,-1.003 -0.594,-1.776l0,-5.707l-1.123,0c-0.098,0 -0.181,-0.029 -0.248,-0.087c-0.068,-0.059 -0.102,-0.149 -0.102,-0.272l0,-0.653l1.528,-0.194l0.378,-2.88c0.012,-0.092 0.052,-0.168 0.119,-0.226c0.068,-0.058 0.154,-0.087 0.258,-0.087l0.828,0l0,3.212l2.669,0l0,1.187l-2.669,0l0,5.596c0,0.393 0.095,0.684 0.286,0.875c0.19,0.19 0.435,0.285 0.736,0.285c0.172,0 0.321,-0.023 0.446,-0.069c0.126,-0.046 0.235,-0.097 0.327,-0.152c0.092,-0.055 0.17,-0.106 0.235,-0.152c0.064,-0.046 0.121,-0.069 0.17,-0.069c0.086,0 0.163,0.052 0.23,0.157l0.479,0.782c-0.282,0.264 -0.623,0.471 -1.022,0.621c-0.399,0.151 -0.81,0.226 -1.233,0.226Z" style="fill:#333;fill-rule:nonzero;"/></g><g><path d="M345.09,233.868l-0.727,0c-0.16,0 -0.289,-0.024 -0.387,-0.073c-0.098,-0.05 -0.163,-0.154 -0.193,-0.313l-0.184,-0.866c-0.246,0.221 -0.485,0.419 -0.718,0.594c-0.233,0.175 -0.479,0.322 -0.737,0.442c-0.257,0.119 -0.532,0.21 -0.823,0.271c-0.292,0.062 -0.615,0.092 -0.971,0.092c-0.362,0 -0.701,-0.05 -1.017,-0.152c-0.316,-0.102 -0.591,-0.254 -0.824,-0.457c-0.233,-0.203 -0.419,-0.46 -0.557,-0.771c-0.138,-0.311 -0.207,-0.679 -0.207,-1.104c0,-0.369 0.101,-0.725 0.304,-1.067c0.202,-0.341 0.529,-0.645 0.98,-0.909c0.451,-0.265 1.041,-0.482 1.772,-0.652c0.73,-0.169 1.623,-0.254 2.678,-0.254l0,-0.731c0,-0.729 -0.155,-1.28 -0.465,-1.653c-0.31,-0.374 -0.768,-0.561 -1.376,-0.561c-0.399,0 -0.735,0.051 -1.008,0.152c-0.273,0.101 -0.509,0.215 -0.708,0.341c-0.2,0.125 -0.372,0.239 -0.516,0.34c-0.144,0.101 -0.287,0.152 -0.428,0.152c-0.11,0 -0.207,-0.029 -0.29,-0.087c-0.082,-0.059 -0.148,-0.131 -0.198,-0.217l-0.294,-0.524c0.515,-0.497 1.071,-0.869 1.666,-1.114c0.595,-0.245 1.255,-0.368 1.979,-0.368c0.521,0 0.985,0.086 1.39,0.258c0.405,0.171 0.745,0.411 1.021,0.717c0.276,0.307 0.485,0.678 0.626,1.114c0.141,0.436 0.212,0.914 0.212,1.436l0,5.964Zm-4.253,-1.003c0.289,0 0.553,-0.029 0.792,-0.088c0.239,-0.058 0.465,-0.141 0.677,-0.248c0.211,-0.107 0.414,-0.238 0.607,-0.391c0.193,-0.154 0.382,-0.328 0.566,-0.525l0,-1.923c-0.755,0 -1.396,0.047 -1.924,0.143c-0.527,0.096 -0.957,0.221 -1.288,0.375c-0.331,0.154 -0.572,0.336 -0.723,0.546c-0.15,0.21 -0.225,0.445 -0.225,0.704c0,0.247 0.04,0.46 0.119,0.639c0.08,0.179 0.188,0.325 0.323,0.439c0.135,0.114 0.294,0.198 0.478,0.25c0.184,0.053 0.384,0.079 0.598,0.079Z" style="fill:#333;fill-rule:nonzero;"/><path d="M352.913,226.082c-0.073,0.135 -0.187,0.202 -0.34,0.202c-0.092,0 -0.197,-0.034 -0.313,-0.101c-0.117,-0.068 -0.26,-0.143 -0.428,-0.226c-0.169,-0.083 -0.37,-0.159 -0.603,-0.23c-0.233,-0.07 -0.509,-0.106 -0.829,-0.106c-0.276,0 -0.524,0.036 -0.745,0.106c-0.221,0.071 -0.41,0.167 -0.566,0.29c-0.157,0.123 -0.276,0.266 -0.359,0.428c-0.083,0.163 -0.124,0.339 -0.124,0.529c0,0.24 0.069,0.439 0.207,0.599c0.138,0.159 0.32,0.297 0.547,0.414c0.227,0.116 0.485,0.219 0.774,0.308c0.288,0.089 0.584,0.184 0.888,0.285c0.303,0.102 0.6,0.214 0.888,0.336c0.288,0.123 0.546,0.277 0.773,0.461c0.227,0.184 0.41,0.409 0.548,0.676c0.138,0.267 0.207,0.588 0.207,0.962c0,0.429 -0.077,0.827 -0.23,1.192c-0.154,0.365 -0.381,0.681 -0.681,0.948c-0.301,0.267 -0.669,0.477 -1.105,0.63c-0.436,0.154 -0.939,0.23 -1.509,0.23c-0.651,0 -1.24,-0.105 -1.768,-0.317c-0.527,-0.212 -0.975,-0.483 -1.343,-0.815l0.386,-0.626c0.049,-0.079 0.108,-0.141 0.175,-0.184c0.068,-0.043 0.157,-0.064 0.267,-0.064c0.11,0 0.227,0.043 0.35,0.129c0.123,0.086 0.271,0.181 0.446,0.285c0.175,0.104 0.387,0.2 0.635,0.285c0.249,0.086 0.56,0.129 0.934,0.129c0.32,0 0.599,-0.041 0.838,-0.124c0.239,-0.083 0.439,-0.195 0.598,-0.336c0.16,-0.141 0.278,-0.304 0.355,-0.488c0.076,-0.184 0.115,-0.38 0.115,-0.589c0,-0.257 -0.069,-0.471 -0.207,-0.639c-0.138,-0.169 -0.321,-0.313 -0.548,-0.433c-0.227,-0.12 -0.486,-0.224 -0.778,-0.313c-0.291,-0.089 -0.589,-0.183 -0.893,-0.281c-0.303,-0.098 -0.601,-0.21 -0.892,-0.336c-0.292,-0.125 -0.551,-0.283 -0.778,-0.474c-0.227,-0.19 -0.41,-0.425 -0.548,-0.704c-0.138,-0.279 -0.207,-0.618 -0.207,-1.017c0,-0.356 0.074,-0.698 0.221,-1.026c0.147,-0.328 0.362,-0.617 0.644,-0.865c0.283,-0.249 0.629,-0.447 1.04,-0.594c0.412,-0.147 0.881,-0.221 1.409,-0.221c0.613,0 1.164,0.097 1.652,0.29c0.488,0.193 0.909,0.459 1.265,0.796l-0.368,0.599Z" style="fill:#333;fill-rule:nonzero;"/><path d="M355.564,233.868l0,-13.557l1.638,0l0,5.485c0.399,-0.423 0.841,-0.762 1.326,-1.017c0.484,-0.254 1.043,-0.382 1.675,-0.382c0.509,0 0.958,0.085 1.348,0.253c0.39,0.169 0.715,0.408 0.976,0.718c0.26,0.31 0.458,0.683 0.593,1.119c0.135,0.435 0.203,0.917 0.203,1.445l0,5.936l-1.638,0l0,-5.936c0,-0.706 -0.162,-1.254 -0.484,-1.643c-0.322,-0.39 -0.814,-0.585 -1.477,-0.585c-0.485,0 -0.937,0.117 -1.357,0.35c-0.421,0.233 -0.809,0.549 -1.165,0.948l0,6.866l-1.638,0Z" style="fill:#333;fill-rule:nonzero;"/><path d="M365.265,232.856c0,-0.16 0.029,-0.31 0.087,-0.451c0.059,-0.141 0.138,-0.264 0.24,-0.368c0.101,-0.105 0.222,-0.188 0.363,-0.249c0.141,-0.061 0.292,-0.092 0.451,-0.092c0.16,0 0.31,0.031 0.451,0.092c0.141,0.061 0.264,0.144 0.368,0.249c0.105,0.104 0.186,0.227 0.244,0.368c0.059,0.141 0.088,0.291 0.088,0.451c0,0.165 -0.029,0.317 -0.088,0.455c-0.058,0.138 -0.139,0.26 -0.244,0.364c-0.104,0.104 -0.227,0.185 -0.368,0.244c-0.141,0.058 -0.291,0.087 -0.451,0.087c-0.159,0 -0.31,-0.029 -0.451,-0.087c-0.141,-0.059 -0.262,-0.14 -0.363,-0.244c-0.102,-0.104 -0.181,-0.226 -0.24,-0.364c-0.058,-0.138 -0.087,-0.29 -0.087,-0.455Z" style="fill:#333;fill-rule:nonzero;"/><path d="M373.392,224.397c0.558,0 1.074,0.094 1.546,0.281c0.473,0.187 0.881,0.457 1.224,0.81c0.344,0.353 0.612,0.788 0.806,1.307c0.193,0.518 0.29,1.109 0.29,1.772c0,0.257 -0.028,0.429 -0.083,0.515c-0.055,0.086 -0.16,0.129 -0.313,0.129l-6.204,0c0.013,0.589 0.092,1.101 0.24,1.537c0.147,0.436 0.349,0.799 0.607,1.091c0.258,0.291 0.565,0.509 0.921,0.653c0.355,0.144 0.754,0.216 1.196,0.216c0.411,0 0.766,-0.047 1.063,-0.142c0.298,-0.095 0.554,-0.198 0.769,-0.309c0.214,-0.11 0.394,-0.213 0.538,-0.308c0.144,-0.095 0.269,-0.143 0.373,-0.143c0.135,0 0.239,0.053 0.313,0.157l0.46,0.598c-0.202,0.246 -0.445,0.459 -0.727,0.64c-0.282,0.181 -0.585,0.33 -0.907,0.446c-0.322,0.117 -0.655,0.204 -0.998,0.263c-0.344,0.058 -0.684,0.087 -1.022,0.087c-0.644,0 -1.238,-0.109 -1.781,-0.327c-0.543,-0.218 -1.012,-0.537 -1.408,-0.957c-0.396,-0.42 -0.704,-0.94 -0.925,-1.56c-0.221,-0.62 -0.331,-1.332 -0.331,-2.135c0,-0.651 0.099,-1.258 0.299,-1.823c0.199,-0.564 0.486,-1.054 0.86,-1.468c0.375,-0.414 0.832,-0.739 1.372,-0.975c0.54,-0.237 1.147,-0.355 1.822,-0.355Zm0.037,1.206c-0.792,0 -1.415,0.229 -1.869,0.686c-0.454,0.457 -0.736,1.09 -0.846,1.9l5.071,0c0,-0.38 -0.052,-0.728 -0.156,-1.044c-0.105,-0.316 -0.258,-0.589 -0.461,-0.82c-0.202,-0.23 -0.449,-0.408 -0.741,-0.533c-0.291,-0.126 -0.624,-0.189 -0.998,-0.189Z" style="fill:#333;fill-rule:nonzero;"/><path d="M380.976,229.091l-3.138,-4.547l1.573,0c0.135,0 0.234,0.022 0.295,0.065c0.061,0.043 0.117,0.104 0.166,0.184l2.282,3.498c0.055,-0.172 0.135,-0.344 0.24,-0.516l2.006,-2.945c0.061,-0.086 0.123,-0.155 0.184,-0.207c0.061,-0.052 0.138,-0.079 0.23,-0.079l1.51,0l-3.139,4.455l3.267,4.869l-1.573,0c-0.135,0 -0.241,-0.035 -0.318,-0.106c-0.077,-0.07 -0.14,-0.149 -0.189,-0.234l-2.347,-3.654c-0.043,0.178 -0.107,0.337 -0.193,0.478l-2.172,3.176c-0.061,0.085 -0.127,0.164 -0.198,0.234c-0.071,0.071 -0.167,0.106 -0.29,0.106l-1.463,0l3.267,-4.777Z" style="fill:#333;fill-rule:nonzero;"/><path d="M391.211,224.397c0.558,0 1.074,0.094 1.546,0.281c0.473,0.187 0.881,0.457 1.224,0.81c0.344,0.353 0.612,0.788 0.806,1.307c0.193,0.518 0.29,1.109 0.29,1.772c0,0.257 -0.028,0.429 -0.083,0.515c-0.055,0.086 -0.16,0.129 -0.313,0.129l-6.204,0c0.013,0.589 0.092,1.101 0.24,1.537c0.147,0.436 0.349,0.799 0.607,1.091c0.258,0.291 0.565,0.509 0.921,0.653c0.355,0.144 0.754,0.216 1.196,0.216c0.411,0 0.766,-0.047 1.063,-0.142c0.298,-0.095 0.554,-0.198 0.769,-0.309c0.214,-0.11 0.394,-0.213 0.538,-0.308c0.144,-0.095 0.269,-0.143 0.373,-0.143c0.135,0 0.239,0.053 0.313,0.157l0.46,0.598c-0.202,0.246 -0.445,0.459 -0.727,0.64c-0.282,0.181 -0.585,0.33 -0.907,0.446c-0.322,0.117 -0.655,0.204 -0.998,0.263c-0.344,0.058 -0.685,0.087 -1.022,0.087c-0.644,0 -1.238,-0.109 -1.781,-0.327c-0.543,-0.218 -1.012,-0.537 -1.408,-0.957c-0.396,-0.42 -0.704,-0.94 -0.925,-1.56c-0.221,-0.62 -0.332,-1.332 -0.332,-2.135c0,-0.651 0.1,-1.258 0.3,-1.823c0.199,-0.564 0.486,-1.054 0.86,-1.468c0.374,-0.414 0.832,-0.739 1.372,-0.975c0.54,-0.237 1.147,-0.355 1.822,-0.355Zm0.037,1.206c-0.792,0 -1.415,0.229 -1.869,0.686c-0.454,0.457 -0.736,1.09 -0.846,1.9l5.071,0c0,-0.38 -0.052,-0.728 -0.156,-1.044c-0.105,-0.316 -0.258,-0.589 -0.461,-0.82c-0.202,-0.23 -0.449,-0.408 -0.741,-0.533c-0.291,-0.126 -0.624,-0.189 -0.998,-0.189Z" style="fill:#333;fill-rule:nonzero;"/><path d="M407.732,222.741c-0.055,0.092 -0.113,0.161 -0.175,0.207c-0.061,0.046 -0.141,0.069 -0.239,0.069c-0.104,0 -0.226,-0.053 -0.364,-0.157c-0.138,-0.104 -0.313,-0.219 -0.524,-0.345c-0.212,-0.126 -0.467,-0.241 -0.764,-0.345c-0.298,-0.104 -0.658,-0.157 -1.082,-0.157c-0.398,0 -0.751,0.054 -1.058,0.161c-0.307,0.108 -0.563,0.254 -0.769,0.438c-0.205,0.184 -0.36,0.4 -0.464,0.649c-0.105,0.248 -0.157,0.516 -0.157,0.805c0,0.368 0.091,0.673 0.272,0.916c0.181,0.242 0.42,0.449 0.718,0.621c0.297,0.172 0.635,0.321 1.012,0.446c0.377,0.126 0.764,0.257 1.16,0.392c0.395,0.135 0.782,0.286 1.159,0.455c0.378,0.169 0.715,0.382 1.013,0.64c0.297,0.258 0.537,0.574 0.718,0.948c0.181,0.374 0.271,0.834 0.271,1.38c0,0.577 -0.098,1.119 -0.294,1.625c-0.197,0.506 -0.483,0.946 -0.861,1.321c-0.377,0.374 -0.84,0.669 -1.39,0.883c-0.549,0.215 -1.173,0.322 -1.873,0.322c-0.853,0 -1.63,-0.155 -2.333,-0.464c-0.702,-0.31 -1.302,-0.729 -1.799,-1.257l0.515,-0.847c0.049,-0.067 0.109,-0.124 0.18,-0.17c0.07,-0.046 0.148,-0.069 0.234,-0.069c0.129,0 0.276,0.069 0.442,0.207c0.166,0.138 0.373,0.29 0.621,0.456c0.249,0.166 0.55,0.317 0.902,0.455c0.353,0.139 0.784,0.208 1.294,0.208c0.423,0 0.8,-0.059 1.132,-0.175c0.331,-0.117 0.612,-0.281 0.842,-0.493c0.23,-0.211 0.406,-0.465 0.529,-0.759c0.123,-0.295 0.184,-0.623 0.184,-0.985c0,-0.399 -0.09,-0.725 -0.271,-0.98c-0.181,-0.255 -0.419,-0.468 -0.714,-0.64c-0.294,-0.172 -0.63,-0.317 -1.008,-0.437c-0.377,-0.12 -0.763,-0.242 -1.159,-0.368c-0.396,-0.126 -0.783,-0.272 -1.16,-0.437c-0.377,-0.166 -0.713,-0.381 -1.008,-0.645c-0.294,-0.263 -0.532,-0.593 -0.713,-0.989c-0.181,-0.396 -0.272,-0.885 -0.272,-1.468c0,-0.466 0.091,-0.917 0.272,-1.353c0.181,-0.436 0.443,-0.822 0.787,-1.16c0.343,-0.337 0.768,-0.607 1.275,-0.81c0.506,-0.202 1.087,-0.303 1.744,-0.303c0.736,0 1.408,0.116 2.015,0.349c0.608,0.233 1.139,0.571 1.593,1.013l-0.433,0.847Z" style="fill:#333;fill-rule:nonzero;"/><path d="M414.166,224.397c0.558,0 1.074,0.094 1.546,0.281c0.472,0.187 0.881,0.457 1.224,0.81c0.344,0.353 0.612,0.788 0.805,1.307c0.194,0.518 0.29,1.109 0.29,1.772c0,0.257 -0.027,0.429 -0.082,0.515c-0.056,0.086 -0.16,0.129 -0.313,0.129l-6.204,0c0.012,0.589 0.092,1.101 0.239,1.537c0.148,0.436 0.35,0.799 0.608,1.091c0.258,0.291 0.564,0.509 0.92,0.653c0.356,0.144 0.755,0.216 1.197,0.216c0.411,0 0.765,-0.047 1.063,-0.142c0.297,-0.095 0.554,-0.198 0.768,-0.309c0.215,-0.11 0.395,-0.213 0.539,-0.308c0.144,-0.095 0.268,-0.143 0.373,-0.143c0.135,0 0.239,0.053 0.313,0.157l0.46,0.598c-0.203,0.246 -0.445,0.459 -0.727,0.64c-0.283,0.181 -0.585,0.33 -0.907,0.446c-0.322,0.117 -0.655,0.204 -0.999,0.263c-0.343,0.058 -0.684,0.087 -1.021,0.087c-0.645,0 -1.238,-0.109 -1.781,-0.327c-0.543,-0.218 -1.013,-0.537 -1.408,-0.957c-0.396,-0.42 -0.705,-0.94 -0.925,-1.56c-0.221,-0.62 -0.332,-1.332 -0.332,-2.135c0,-0.651 0.1,-1.258 0.299,-1.823c0.2,-0.564 0.487,-1.054 0.861,-1.468c0.374,-0.414 0.831,-0.739 1.371,-0.975c0.54,-0.237 1.148,-0.355 1.823,-0.355Zm0.037,1.206c-0.792,0 -1.415,0.229 -1.869,0.686c-0.454,0.457 -0.736,1.09 -0.847,1.9l5.072,0c0,-0.38 -0.052,-0.728 -0.157,-1.044c-0.104,-0.316 -0.257,-0.589 -0.46,-0.82c-0.202,-0.23 -0.449,-0.408 -0.741,-0.533c-0.291,-0.126 -0.624,-0.189 -0.998,-0.189Z" style="fill:#333;fill-rule:nonzero;"/><path d="M420.121,233.868l0,-9.324l0.939,0c0.177,0 0.3,0.034 0.368,0.102c0.067,0.067 0.113,0.184 0.138,0.349l0.11,1.455c0.319,-0.651 0.714,-1.158 1.183,-1.524c0.469,-0.365 1.02,-0.547 1.652,-0.547c0.258,0 0.491,0.029 0.7,0.087c0.208,0.059 0.401,0.14 0.579,0.244l-0.211,1.224c-0.043,0.154 -0.138,0.23 -0.286,0.23c-0.086,0 -0.217,-0.029 -0.395,-0.087c-0.178,-0.058 -0.427,-0.087 -0.746,-0.087c-0.571,0 -1.048,0.165 -1.431,0.497c-0.384,0.331 -0.704,0.813 -0.962,1.445l0,5.936l-1.638,0Z" style="fill:#333;fill-rule:nonzero;"/><path d="M426.361,224.544l1.344,0c0.129,0 0.236,0.034 0.322,0.102c0.086,0.067 0.147,0.147 0.184,0.239l2.365,6.001c0.086,0.221 0.154,0.442 0.203,0.663c0.049,0.221 0.095,0.438 0.138,0.653c0.049,-0.215 0.101,-0.432 0.156,-0.653c0.056,-0.221 0.126,-0.442 0.212,-0.663l2.393,-6.001c0.037,-0.098 0.097,-0.179 0.18,-0.244c0.083,-0.064 0.185,-0.097 0.308,-0.097l1.279,0l-3.801,9.324l-1.482,0l-3.801,-9.324Z" style="fill:#333;fill-rule:nonzero;"/><path d="M438.786,224.544l0,9.324l-1.638,0l0,-9.324l1.638,0Zm0.369,-2.926c0,0.159 -0.033,0.308 -0.097,0.446c-0.064,0.138 -0.15,0.261 -0.258,0.368c-0.107,0.108 -0.231,0.192 -0.373,0.253c-0.141,0.062 -0.291,0.092 -0.451,0.092c-0.159,0 -0.308,-0.03 -0.446,-0.092c-0.138,-0.061 -0.261,-0.145 -0.368,-0.253c-0.107,-0.107 -0.192,-0.23 -0.253,-0.368c-0.062,-0.138 -0.092,-0.287 -0.092,-0.446c0,-0.16 0.03,-0.312 0.092,-0.456c0.061,-0.144 0.146,-0.27 0.253,-0.377c0.107,-0.108 0.23,-0.192 0.368,-0.253c0.138,-0.062 0.287,-0.092 0.446,-0.092c0.16,0 0.31,0.03 0.451,0.092c0.142,0.061 0.266,0.145 0.373,0.253c0.108,0.107 0.194,0.233 0.258,0.377c0.064,0.144 0.097,0.296 0.097,0.456Z" style="fill:#333;fill-rule:nonzero;"/><path d="M448.036,226.201c-0.049,0.068 -0.098,0.12 -0.147,0.157c-0.049,0.036 -0.119,0.055 -0.212,0.055c-0.092,0 -0.191,-0.038 -0.299,-0.115c-0.107,-0.077 -0.244,-0.161 -0.409,-0.253c-0.166,-0.092 -0.367,-0.177 -0.603,-0.253c-0.236,-0.077 -0.526,-0.115 -0.87,-0.115c-0.454,0 -0.856,0.081 -1.206,0.243c-0.349,0.163 -0.642,0.398 -0.879,0.705c-0.236,0.306 -0.414,0.678 -0.533,1.113c-0.12,0.436 -0.18,0.924 -0.18,1.464c0,0.564 0.065,1.066 0.193,1.505c0.129,0.438 0.31,0.806 0.543,1.104c0.234,0.298 0.517,0.525 0.852,0.681c0.334,0.157 0.71,0.235 1.127,0.235c0.399,0 0.727,-0.048 0.985,-0.143c0.258,-0.095 0.473,-0.201 0.644,-0.317c0.172,-0.117 0.313,-0.223 0.424,-0.318c0.11,-0.095 0.221,-0.143 0.331,-0.143c0.141,0 0.246,0.053 0.313,0.157l0.46,0.598c-0.405,0.497 -0.911,0.861 -1.518,1.091c-0.608,0.23 -1.249,0.345 -1.924,0.345c-0.583,0 -1.124,-0.107 -1.625,-0.322c-0.5,-0.215 -0.934,-0.526 -1.302,-0.934c-0.368,-0.408 -0.658,-0.91 -0.87,-1.505c-0.211,-0.595 -0.317,-1.273 -0.317,-2.034c0,-0.694 0.096,-1.335 0.29,-1.924c0.193,-0.589 0.475,-1.097 0.846,-1.523c0.372,-0.427 0.83,-0.76 1.376,-0.999c0.547,-0.239 1.172,-0.359 1.878,-0.359c0.651,0 1.227,0.106 1.73,0.318c0.504,0.211 0.948,0.511 1.335,0.897l-0.433,0.589Z" style="fill:#333;fill-rule:nonzero;"/><path d="M453.964,224.397c0.558,0 1.074,0.094 1.546,0.281c0.473,0.187 0.881,0.457 1.224,0.81c0.344,0.353 0.612,0.788 0.806,1.307c0.193,0.518 0.289,1.109 0.289,1.772c0,0.257 -0.027,0.429 -0.082,0.515c-0.056,0.086 -0.16,0.129 -0.313,0.129l-6.204,0c0.012,0.589 0.092,1.101 0.24,1.537c0.147,0.436 0.349,0.799 0.607,1.091c0.258,0.291 0.565,0.509 0.92,0.653c0.356,0.144 0.755,0.216 1.197,0.216c0.411,0 0.765,-0.047 1.063,-0.142c0.298,-0.095 0.554,-0.198 0.769,-0.309c0.214,-0.11 0.394,-0.213 0.538,-0.308c0.144,-0.095 0.268,-0.143 0.373,-0.143c0.135,0 0.239,0.053 0.313,0.157l0.46,0.598c-0.203,0.246 -0.445,0.459 -0.727,0.64c-0.283,0.181 -0.585,0.33 -0.907,0.446c-0.322,0.117 -0.655,0.204 -0.999,0.263c-0.343,0.058 -0.684,0.087 -1.021,0.087c-0.644,0 -1.238,-0.109 -1.781,-0.327c-0.543,-0.218 -1.013,-0.537 -1.408,-0.957c-0.396,-0.42 -0.704,-0.94 -0.925,-1.56c-0.221,-0.62 -0.332,-1.332 -0.332,-2.135c0,-0.651 0.1,-1.258 0.299,-1.823c0.2,-0.564 0.487,-1.054 0.861,-1.468c0.374,-0.414 0.831,-0.739 1.371,-0.975c0.54,-0.237 1.148,-0.355 1.823,-0.355Zm0.037,1.206c-0.792,0 -1.415,0.229 -1.869,0.686c-0.454,0.457 -0.736,1.09 -0.847,1.9l5.072,0c0,-0.38 -0.052,-0.728 -0.157,-1.044c-0.104,-0.316 -0.257,-0.589 -0.46,-0.82c-0.202,-0.23 -0.449,-0.408 -0.741,-0.533c-0.291,-0.126 -0.624,-0.189 -0.998,-0.189Z" style="fill:#333;fill-rule:nonzero;"/><path d="M474.424,233.868l-1.794,0l0,-6.001l-7.106,0l0,6.001l-1.795,0l0,-13.189l1.795,0l0,5.881l7.106,0l0,-5.881l1.794,0l0,13.189Z" style="fill:#333;fill-rule:nonzero;"/><path d="M481.162,224.397c0.681,0 1.296,0.114 1.845,0.341c0.549,0.227 1.016,0.549 1.399,0.966c0.384,0.417 0.678,0.922 0.884,1.514c0.205,0.592 0.308,1.254 0.308,1.984c0,0.736 -0.103,1.399 -0.308,1.988c-0.206,0.589 -0.5,1.092 -0.884,1.509c-0.383,0.417 -0.85,0.738 -1.399,0.962c-0.549,0.224 -1.164,0.336 -1.845,0.336c-0.681,0 -1.297,-0.112 -1.846,-0.336c-0.549,-0.224 -1.017,-0.545 -1.403,-0.962c-0.387,-0.417 -0.685,-0.92 -0.893,-1.509c-0.209,-0.589 -0.313,-1.252 -0.313,-1.988c0,-0.73 0.104,-1.392 0.313,-1.984c0.208,-0.592 0.506,-1.097 0.893,-1.514c0.386,-0.417 0.854,-0.739 1.403,-0.966c0.549,-0.227 1.165,-0.341 1.846,-0.341Zm0,8.321c0.92,0 1.607,-0.309 2.061,-0.925c0.454,-0.617 0.681,-1.478 0.681,-2.582c0,-1.111 -0.227,-1.976 -0.681,-2.596c-0.454,-0.619 -1.141,-0.929 -2.061,-0.929c-0.467,0 -0.872,0.08 -1.215,0.239c-0.344,0.16 -0.631,0.39 -0.861,0.69c-0.23,0.301 -0.402,0.671 -0.515,1.109c-0.114,0.439 -0.171,0.935 -0.171,1.487c0,0.552 0.057,1.046 0.171,1.482c0.113,0.435 0.285,0.802 0.515,1.1c0.23,0.297 0.517,0.526 0.861,0.685c0.343,0.16 0.748,0.24 1.215,0.24Z" style="fill:#333;fill-rule:nonzero;"/><path d="M492.961,226.082c-0.073,0.135 -0.187,0.202 -0.34,0.202c-0.092,0 -0.197,-0.034 -0.313,-0.101c-0.117,-0.068 -0.26,-0.143 -0.428,-0.226c-0.169,-0.083 -0.37,-0.159 -0.603,-0.23c-0.233,-0.07 -0.509,-0.106 -0.829,-0.106c-0.276,0 -0.524,0.036 -0.745,0.106c-0.221,0.071 -0.41,0.167 -0.566,0.29c-0.157,0.123 -0.276,0.266 -0.359,0.428c-0.083,0.163 -0.124,0.339 -0.124,0.529c0,0.24 0.069,0.439 0.207,0.599c0.138,0.159 0.32,0.297 0.547,0.414c0.227,0.116 0.485,0.219 0.774,0.308c0.288,0.089 0.584,0.184 0.888,0.285c0.303,0.102 0.6,0.214 0.888,0.336c0.288,0.123 0.546,0.277 0.773,0.461c0.227,0.184 0.41,0.409 0.548,0.676c0.138,0.267 0.207,0.588 0.207,0.962c0,0.429 -0.077,0.827 -0.23,1.192c-0.154,0.365 -0.381,0.681 -0.681,0.948c-0.301,0.267 -0.669,0.477 -1.105,0.63c-0.436,0.154 -0.939,0.23 -1.509,0.23c-0.651,0 -1.24,-0.105 -1.768,-0.317c-0.527,-0.212 -0.975,-0.483 -1.343,-0.815l0.386,-0.626c0.049,-0.079 0.108,-0.141 0.175,-0.184c0.068,-0.043 0.157,-0.064 0.267,-0.064c0.11,0 0.227,0.043 0.35,0.129c0.123,0.086 0.271,0.181 0.446,0.285c0.175,0.104 0.387,0.2 0.635,0.285c0.249,0.086 0.56,0.129 0.934,0.129c0.32,0 0.599,-0.041 0.838,-0.124c0.239,-0.083 0.439,-0.195 0.598,-0.336c0.16,-0.141 0.278,-0.304 0.355,-0.488c0.076,-0.184 0.115,-0.38 0.115,-0.589c0,-0.257 -0.069,-0.471 -0.207,-0.639c-0.138,-0.169 -0.321,-0.313 -0.548,-0.433c-0.227,-0.12 -0.486,-0.224 -0.778,-0.313c-0.291,-0.089 -0.589,-0.183 -0.893,-0.281c-0.303,-0.098 -0.601,-0.21 -0.892,-0.336c-0.292,-0.125 -0.551,-0.283 -0.778,-0.474c-0.227,-0.19 -0.41,-0.425 -0.548,-0.704c-0.138,-0.279 -0.207,-0.618 -0.207,-1.017c0,-0.356 0.074,-0.698 0.221,-1.026c0.147,-0.328 0.362,-0.617 0.644,-0.865c0.283,-0.249 0.629,-0.447 1.04,-0.594c0.412,-0.147 0.881,-0.221 1.409,-0.221c0.613,0 1.164,0.097 1.652,0.29c0.488,0.193 0.909,0.459 1.265,0.796l-0.368,0.599Z" style="fill:#333;fill-rule:nonzero;"/><path d="M498.438,234.015c-0.737,0 -1.303,-0.205 -1.699,-0.616c-0.395,-0.411 -0.593,-1.003 -0.593,-1.777l0,-5.706l-1.123,0c-0.098,0 -0.181,-0.029 -0.249,-0.088c-0.067,-0.058 -0.101,-0.148 -0.101,-0.271l0,-0.654l1.528,-0.193l0.377,-2.881c0.013,-0.092 0.052,-0.167 0.12,-0.225c0.067,-0.058 0.153,-0.088 0.258,-0.088l0.828,0l0,3.213l2.669,0l0,1.187l-2.669,0l0,5.596c0,0.393 0.095,0.684 0.285,0.874c0.191,0.191 0.436,0.286 0.737,0.286c0.171,0 0.32,-0.023 0.446,-0.069c0.126,-0.046 0.235,-0.097 0.327,-0.152c0.092,-0.055 0.17,-0.106 0.235,-0.152c0.064,-0.046 0.121,-0.069 0.17,-0.069c0.086,0 0.162,0.052 0.23,0.156l0.478,0.783c-0.282,0.263 -0.622,0.471 -1.021,0.621c-0.399,0.15 -0.81,0.225 -1.233,0.225Z" style="fill:#333;fill-rule:nonzero;"/></g><g><path d="M318.444,317.441l-0.727,0c-0.159,0 -0.288,-0.024 -0.387,-0.073c-0.098,-0.049 -0.162,-0.154 -0.193,-0.313l-0.184,-0.865c-0.245,0.22 -0.485,0.418 -0.718,0.593c-0.233,0.175 -0.478,0.322 -0.736,0.442c-0.258,0.12 -0.532,0.21 -0.824,0.272c-0.291,0.061 -0.615,0.092 -0.971,0.092c-0.362,0 -0.701,-0.051 -1.017,-0.153c-0.316,-0.101 -0.591,-0.254 -0.824,-0.457c-0.233,-0.203 -0.418,-0.46 -0.557,-0.771c-0.138,-0.311 -0.207,-0.679 -0.207,-1.104c0,-0.369 0.102,-0.725 0.304,-1.067c0.203,-0.341 0.529,-0.645 0.98,-0.909c0.451,-0.265 1.042,-0.482 1.772,-0.651c0.73,-0.17 1.623,-0.254 2.678,-0.254l0,-0.732c0,-0.729 -0.154,-1.28 -0.464,-1.653c-0.31,-0.374 -0.769,-0.561 -1.376,-0.561c-0.399,0 -0.735,0.051 -1.008,0.152c-0.273,0.101 -0.509,0.215 -0.709,0.341c-0.199,0.126 -0.371,0.239 -0.515,0.34c-0.144,0.102 -0.287,0.152 -0.428,0.152c-0.111,0 -0.207,-0.029 -0.29,-0.087c-0.083,-0.059 -0.149,-0.131 -0.198,-0.217l-0.295,-0.524c0.516,-0.497 1.071,-0.868 1.666,-1.114c0.595,-0.245 1.255,-0.368 1.979,-0.368c0.522,0 0.985,0.086 1.39,0.258c0.405,0.172 0.745,0.411 1.022,0.718c0.276,0.306 0.484,0.678 0.625,1.113c0.142,0.436 0.212,0.915 0.212,1.436l0,5.964Zm-4.252,-1.003c0.288,0 0.552,-0.029 0.791,-0.087c0.24,-0.059 0.465,-0.141 0.677,-0.249c0.212,-0.107 0.414,-0.238 0.607,-0.391c0.194,-0.153 0.382,-0.328 0.566,-0.525l0,-1.923c-0.754,0 -1.395,0.048 -1.923,0.143c-0.528,0.096 -0.957,0.221 -1.289,0.375c-0.331,0.154 -0.572,0.336 -0.722,0.546c-0.151,0.21 -0.226,0.445 -0.226,0.704c0,0.247 0.04,0.46 0.12,0.639c0.08,0.179 0.187,0.325 0.322,0.439c0.135,0.115 0.295,0.198 0.479,0.25c0.184,0.053 0.383,0.079 0.598,0.079Z" style="fill:#333;fill-rule:nonzero;"/><path d="M324.068,307.961c0.405,0 0.784,0.045 1.137,0.134c0.352,0.089 0.673,0.219 0.961,0.391l2.531,0l0,0.607c0,0.203 -0.128,0.332 -0.386,0.387l-1.059,0.147c0.209,0.399 0.313,0.844 0.313,1.335c0,0.454 -0.087,0.866 -0.262,1.238c-0.175,0.371 -0.417,0.688 -0.727,0.952c-0.31,0.264 -0.678,0.467 -1.105,0.608c-0.426,0.141 -0.894,0.211 -1.403,0.211c-0.436,0 -0.847,-0.052 -1.234,-0.156c-0.196,0.127 -0.345,0.263 -0.446,0.409c-0.101,0.146 -0.152,0.289 -0.152,0.428c0,0.229 0.089,0.402 0.267,0.519c0.178,0.117 0.414,0.201 0.709,0.252c0.294,0.051 0.629,0.076 1.003,0.076c0.374,0 0.756,0 1.146,0c0.39,0 0.772,0.034 1.146,0.103c0.374,0.068 0.709,0.18 1.003,0.335c0.295,0.155 0.531,0.37 0.709,0.643c0.178,0.273 0.267,0.627 0.267,1.062c0,0.404 -0.1,0.795 -0.299,1.174c-0.2,0.379 -0.487,0.716 -0.861,1.011c-0.374,0.295 -0.831,0.531 -1.371,0.708c-0.54,0.177 -1.151,0.266 -1.832,0.266c-0.681,0 -1.278,-0.068 -1.79,-0.203c-0.512,-0.135 -0.937,-0.316 -1.275,-0.544c-0.337,-0.227 -0.59,-0.489 -0.759,-0.787c-0.169,-0.298 -0.253,-0.61 -0.253,-0.935c0,-0.461 0.145,-0.853 0.437,-1.175c0.291,-0.323 0.692,-0.579 1.201,-0.77c-0.264,-0.122 -0.474,-0.286 -0.63,-0.491c-0.157,-0.205 -0.235,-0.48 -0.235,-0.823c0,-0.134 0.024,-0.274 0.073,-0.418c0.05,-0.144 0.125,-0.286 0.226,-0.427c0.101,-0.141 0.225,-0.276 0.373,-0.404c0.147,-0.129 0.319,-0.242 0.515,-0.34c-0.46,-0.258 -0.821,-0.6 -1.081,-1.027c-0.261,-0.426 -0.392,-0.925 -0.392,-1.495c0,-0.454 0.088,-0.867 0.263,-1.238c0.175,-0.371 0.419,-0.687 0.732,-0.948c0.312,-0.261 0.685,-0.462 1.118,-0.603c0.432,-0.141 0.906,-0.212 1.422,-0.212Zm2.908,9.953c0,-0.237 -0.064,-0.428 -0.193,-0.572c-0.129,-0.144 -0.304,-0.255 -0.525,-0.333c-0.221,-0.079 -0.475,-0.137 -0.764,-0.174c-0.288,-0.038 -0.592,-0.056 -0.911,-0.056c-0.319,0 -0.644,0 -0.975,0c-0.332,0 -0.648,-0.042 -0.948,-0.125c-0.35,0.166 -0.634,0.369 -0.852,0.609c-0.218,0.239 -0.327,0.525 -0.327,0.857c0,0.209 0.054,0.404 0.162,0.585c0.107,0.182 0.271,0.338 0.492,0.471c0.221,0.132 0.499,0.236 0.833,0.313c0.334,0.077 0.729,0.115 1.183,0.115c0.441,0 0.837,-0.04 1.187,-0.122c0.35,-0.081 0.646,-0.197 0.888,-0.347c0.243,-0.15 0.428,-0.329 0.557,-0.535c0.129,-0.207 0.193,-0.435 0.193,-0.686Zm-2.908,-5.029c0.331,0 0.624,-0.046 0.879,-0.138c0.254,-0.092 0.468,-0.221 0.639,-0.386c0.172,-0.166 0.301,-0.364 0.387,-0.594c0.086,-0.23 0.129,-0.483 0.129,-0.759c0,-0.571 -0.173,-1.025 -0.52,-1.362c-0.347,-0.338 -0.851,-0.507 -1.514,-0.507c-0.657,0 -1.158,0.169 -1.505,0.507c-0.347,0.337 -0.52,0.791 -0.52,1.362c0,0.276 0.044,0.529 0.133,0.759c0.089,0.23 0.22,0.428 0.392,0.594c0.171,0.165 0.383,0.294 0.635,0.386c0.251,0.092 0.54,0.138 0.865,0.138Z" style="fill:#333;fill-rule:nonzero;"/><path d="M336.898,317.441c-0.233,0 -0.38,-0.113 -0.442,-0.34l-0.147,-1.132c-0.399,0.484 -0.854,0.873 -1.367,1.164c-0.512,0.291 -1.1,0.437 -1.762,0.437c-0.534,0 -1.019,-0.103 -1.454,-0.308c-0.436,-0.206 -0.807,-0.508 -1.114,-0.907c-0.307,-0.399 -0.543,-0.896 -0.709,-1.491c-0.166,-0.595 -0.248,-1.279 -0.248,-2.052c0,-0.688 0.092,-1.327 0.276,-1.919c0.184,-0.592 0.449,-1.106 0.796,-1.542c0.347,-0.436 0.768,-0.778 1.265,-1.026c0.497,-0.249 1.062,-0.373 1.694,-0.373c0.571,0 1.058,0.097 1.463,0.29c0.405,0.193 0.767,0.465 1.086,0.814l0,-5.172l1.639,0l0,13.557l-0.976,0Zm-3.175,-1.196c0.534,0 1.002,-0.123 1.403,-0.368c0.402,-0.246 0.772,-0.592 1.109,-1.04l0,-4.51c-0.3,-0.405 -0.63,-0.689 -0.989,-0.852c-0.359,-0.162 -0.756,-0.244 -1.192,-0.244c-0.871,0 -1.54,0.31 -2.006,0.93c-0.467,0.62 -0.7,1.503 -0.7,2.651c0,0.607 0.052,1.127 0.157,1.56c0.104,0.432 0.257,0.788 0.46,1.067c0.202,0.28 0.451,0.484 0.745,0.613c0.295,0.128 0.632,0.193 1.013,0.193Z" style="fill:#333;fill-rule:nonzero;"/><path d="M342.448,308.118l0,9.323l-1.638,0l0,-9.323l1.638,0Zm0.368,-2.927c0,0.159 -0.032,0.308 -0.096,0.446c-0.065,0.138 -0.151,0.261 -0.258,0.368c-0.107,0.108 -0.232,0.192 -0.373,0.253c-0.141,0.062 -0.291,0.092 -0.451,0.092c-0.159,0 -0.308,-0.03 -0.446,-0.092c-0.138,-0.061 -0.261,-0.145 -0.368,-0.253c-0.108,-0.107 -0.192,-0.23 -0.253,-0.368c-0.062,-0.138 -0.092,-0.287 -0.092,-0.446c0,-0.16 0.03,-0.312 0.092,-0.456c0.061,-0.144 0.145,-0.27 0.253,-0.377c0.107,-0.108 0.23,-0.192 0.368,-0.253c0.138,-0.062 0.287,-0.092 0.446,-0.092c0.16,0 0.31,0.03 0.451,0.092c0.141,0.061 0.266,0.145 0.373,0.253c0.107,0.107 0.193,0.233 0.258,0.377c0.064,0.144 0.096,0.296 0.096,0.456Z" style="fill:#333;fill-rule:nonzero;"/><path d="M351.901,317.441c-0.233,0 -0.381,-0.113 -0.442,-0.34l-0.147,-1.132c-0.399,0.484 -0.855,0.873 -1.367,1.164c-0.513,0.291 -1.1,0.437 -1.763,0.437c-0.534,0 -1.018,-0.103 -1.454,-0.308c-0.436,-0.206 -0.807,-0.508 -1.114,-0.907c-0.306,-0.399 -0.543,-0.896 -0.708,-1.491c-0.166,-0.595 -0.249,-1.279 -0.249,-2.052c0,-0.688 0.092,-1.327 0.276,-1.919c0.184,-0.592 0.45,-1.106 0.796,-1.542c0.347,-0.436 0.769,-0.778 1.266,-1.026c0.497,-0.249 1.061,-0.373 1.694,-0.373c0.57,0 1.058,0.097 1.463,0.29c0.405,0.193 0.767,0.465 1.086,0.814l0,-5.172l1.638,0l0,13.557l-0.975,0Zm-3.176,-1.196c0.534,0 1.002,-0.123 1.404,-0.368c0.402,-0.246 0.772,-0.592 1.109,-1.04l0,-4.51c-0.301,-0.405 -0.63,-0.689 -0.989,-0.852c-0.359,-0.162 -0.757,-0.244 -1.192,-0.244c-0.872,0 -1.54,0.31 -2.007,0.93c-0.466,0.62 -0.699,1.503 -0.699,2.651c0,0.607 0.052,1.127 0.156,1.56c0.104,0.432 0.258,0.788 0.46,1.067c0.203,0.28 0.451,0.484 0.746,0.613c0.294,0.128 0.632,0.193 1.012,0.193Z" style="fill:#333;fill-rule:nonzero;"/><path d="M362.476,317.441l-0.727,0c-0.16,0 -0.288,-0.024 -0.387,-0.073c-0.098,-0.049 -0.162,-0.154 -0.193,-0.313l-0.184,-0.865c-0.245,0.22 -0.485,0.418 -0.718,0.593c-0.233,0.175 -0.478,0.322 -0.736,0.442c-0.258,0.12 -0.532,0.21 -0.824,0.272c-0.291,0.061 -0.615,0.092 -0.971,0.092c-0.362,0 -0.701,-0.051 -1.017,-0.153c-0.316,-0.101 -0.591,-0.254 -0.824,-0.457c-0.233,-0.203 -0.419,-0.46 -0.557,-0.771c-0.138,-0.311 -0.207,-0.679 -0.207,-1.104c0,-0.369 0.102,-0.725 0.304,-1.067c0.203,-0.341 0.529,-0.645 0.98,-0.909c0.451,-0.265 1.042,-0.482 1.772,-0.651c0.73,-0.17 1.623,-0.254 2.678,-0.254l0,-0.732c0,-0.729 -0.155,-1.28 -0.464,-1.653c-0.31,-0.374 -0.769,-0.561 -1.376,-0.561c-0.399,0 -0.735,0.051 -1.008,0.152c-0.273,0.101 -0.51,0.215 -0.709,0.341c-0.199,0.126 -0.371,0.239 -0.515,0.34c-0.145,0.102 -0.287,0.152 -0.428,0.152c-0.111,0 -0.207,-0.029 -0.29,-0.087c-0.083,-0.059 -0.149,-0.131 -0.198,-0.217l-0.295,-0.524c0.516,-0.497 1.071,-0.868 1.666,-1.114c0.595,-0.245 1.255,-0.368 1.979,-0.368c0.522,0 0.985,0.086 1.39,0.258c0.405,0.172 0.745,0.411 1.022,0.718c0.276,0.306 0.484,0.678 0.625,1.113c0.142,0.436 0.212,0.915 0.212,1.436l0,5.964Zm-4.252,-1.003c0.288,0 0.552,-0.029 0.791,-0.087c0.24,-0.059 0.465,-0.141 0.677,-0.249c0.212,-0.107 0.414,-0.238 0.607,-0.391c0.194,-0.153 0.382,-0.328 0.566,-0.525l0,-1.923c-0.754,0 -1.396,0.048 -1.923,0.143c-0.528,0.096 -0.957,0.221 -1.289,0.375c-0.331,0.154 -0.572,0.336 -0.722,0.546c-0.151,0.21 -0.226,0.445 -0.226,0.704c0,0.247 0.04,0.46 0.12,0.639c0.08,0.179 0.187,0.325 0.322,0.439c0.135,0.115 0.295,0.198 0.479,0.25c0.184,0.053 0.383,0.079 0.598,0.079Z" style="fill:#333;fill-rule:nonzero;"/><path d="M364.427,316.429c0,-0.16 0.029,-0.31 0.088,-0.451c0.058,-0.141 0.138,-0.264 0.239,-0.368c0.101,-0.105 0.223,-0.187 0.364,-0.249c0.141,-0.061 0.291,-0.092 0.451,-0.092c0.159,0 0.309,0.031 0.451,0.092c0.141,0.062 0.263,0.144 0.368,0.249c0.104,0.104 0.185,0.227 0.244,0.368c0.058,0.141 0.087,0.291 0.087,0.451c0,0.166 -0.029,0.317 -0.087,0.455c-0.059,0.139 -0.14,0.26 -0.244,0.364c-0.105,0.104 -0.227,0.186 -0.368,0.244c-0.142,0.058 -0.292,0.087 -0.451,0.087c-0.16,0 -0.31,-0.029 -0.451,-0.087c-0.141,-0.058 -0.263,-0.14 -0.364,-0.244c-0.101,-0.104 -0.181,-0.225 -0.239,-0.364c-0.059,-0.138 -0.088,-0.289 -0.088,-0.455Z" style="fill:#333;fill-rule:nonzero;"/><path d="M372.554,307.97c0.559,0 1.074,0.094 1.547,0.281c0.472,0.187 0.88,0.457 1.224,0.81c0.343,0.353 0.612,0.789 0.805,1.307c0.194,0.519 0.29,1.109 0.29,1.772c0,0.258 -0.027,0.429 -0.083,0.515c-0.055,0.086 -0.159,0.129 -0.313,0.129l-6.203,0c0.012,0.589 0.092,1.102 0.239,1.537c0.147,0.436 0.35,0.799 0.608,1.091c0.257,0.291 0.564,0.509 0.92,0.653c0.356,0.145 0.755,0.217 1.197,0.217c0.411,0 0.765,-0.048 1.063,-0.143c0.297,-0.095 0.553,-0.198 0.768,-0.308c0.215,-0.111 0.394,-0.214 0.539,-0.309c0.144,-0.095 0.268,-0.142 0.372,-0.142c0.135,0 0.24,0.052 0.313,0.156l0.46,0.598c-0.202,0.246 -0.444,0.459 -0.727,0.64c-0.282,0.181 -0.584,0.33 -0.906,0.446c-0.322,0.117 -0.655,0.204 -0.999,0.263c-0.343,0.058 -0.684,0.087 -1.021,0.087c-0.645,0 -1.238,-0.109 -1.781,-0.327c-0.544,-0.217 -1.013,-0.536 -1.409,-0.957c-0.395,-0.42 -0.704,-0.94 -0.925,-1.56c-0.221,-0.62 -0.331,-1.331 -0.331,-2.135c0,-0.651 0.1,-1.258 0.299,-1.823c0.2,-0.564 0.486,-1.053 0.861,-1.468c0.374,-0.414 0.831,-0.739 1.371,-0.975c0.54,-0.236 1.148,-0.355 1.822,-0.355Zm0.037,1.206c-0.791,0 -1.414,0.229 -1.868,0.686c-0.454,0.457 -0.736,1.09 -0.847,1.9l5.072,0c0,-0.38 -0.053,-0.728 -0.157,-1.044c-0.104,-0.316 -0.258,-0.589 -0.46,-0.819c-0.203,-0.23 -0.45,-0.408 -0.741,-0.534c-0.292,-0.126 -0.624,-0.189 -0.999,-0.189Z" style="fill:#333;fill-rule:nonzero;"/><path d="M380.139,312.664l-3.139,-4.546l1.574,0c0.135,0 0.233,0.021 0.294,0.064c0.062,0.043 0.117,0.104 0.166,0.184l2.283,3.498c0.055,-0.172 0.135,-0.344 0.239,-0.516l2.006,-2.945c0.062,-0.086 0.123,-0.155 0.185,-0.207c0.061,-0.052 0.138,-0.078 0.23,-0.078l1.509,0l-3.138,4.454l3.267,4.869l-1.574,0c-0.135,0 -0.241,-0.035 -0.317,-0.106c-0.077,-0.07 -0.14,-0.148 -0.189,-0.234l-2.347,-3.654c-0.043,0.178 -0.108,0.337 -0.193,0.478l-2.173,3.176c-0.061,0.086 -0.127,0.164 -0.198,0.234c-0.07,0.071 -0.167,0.106 -0.289,0.106l-1.464,0l3.268,-4.777Z" style="fill:#333;fill-rule:nonzero;"/><path d="M390.373,307.97c0.559,0 1.074,0.094 1.547,0.281c0.472,0.187 0.88,0.457 1.224,0.81c0.343,0.353 0.612,0.789 0.805,1.307c0.193,0.519 0.29,1.109 0.29,1.772c0,0.258 -0.028,0.429 -0.083,0.515c-0.055,0.086 -0.159,0.129 -0.313,0.129l-6.203,0c0.012,0.589 0.092,1.102 0.239,1.537c0.147,0.436 0.35,0.799 0.608,1.091c0.257,0.291 0.564,0.509 0.92,0.653c0.356,0.145 0.755,0.217 1.197,0.217c0.411,0 0.765,-0.048 1.063,-0.143c0.297,-0.095 0.553,-0.198 0.768,-0.308c0.215,-0.111 0.394,-0.214 0.539,-0.309c0.144,-0.095 0.268,-0.142 0.372,-0.142c0.135,0 0.24,0.052 0.313,0.156l0.46,0.598c-0.202,0.246 -0.444,0.459 -0.727,0.64c-0.282,0.181 -0.584,0.33 -0.906,0.446c-0.322,0.117 -0.655,0.204 -0.999,0.263c-0.344,0.058 -0.684,0.087 -1.022,0.087c-0.644,0 -1.237,-0.109 -1.781,-0.327c-0.543,-0.217 -1.012,-0.536 -1.408,-0.957c-0.396,-0.42 -0.704,-0.94 -0.925,-1.56c-0.221,-0.62 -0.331,-1.331 -0.331,-2.135c0,-0.651 0.1,-1.258 0.299,-1.823c0.199,-0.564 0.486,-1.053 0.861,-1.468c0.374,-0.414 0.831,-0.739 1.371,-0.975c0.54,-0.236 1.147,-0.355 1.822,-0.355Zm0.037,1.206c-0.791,0 -1.414,0.229 -1.868,0.686c-0.454,0.457 -0.737,1.09 -0.847,1.9l5.071,0c0,-0.38 -0.052,-0.728 -0.156,-1.044c-0.104,-0.316 -0.258,-0.589 -0.46,-0.819c-0.203,-0.23 -0.45,-0.408 -0.741,-0.534c-0.292,-0.126 -0.624,-0.189 -0.999,-0.189Z" style="fill:#333;fill-rule:nonzero;"/><path d="M406.02,316.144c0.356,0 0.683,-0.017 0.98,-0.051c0.298,-0.034 0.579,-0.084 0.843,-0.152c0.263,-0.067 0.512,-0.149 0.745,-0.244c0.233,-0.095 0.466,-0.204 0.7,-0.327l0,-2.908l-2.044,0c-0.116,0 -0.21,-0.034 -0.28,-0.101c-0.071,-0.068 -0.106,-0.151 -0.106,-0.249l0,-1.012l4.05,0l0,5.062c-0.332,0.239 -0.677,0.448 -1.036,0.626c-0.359,0.178 -0.742,0.327 -1.15,0.446c-0.408,0.12 -0.846,0.209 -1.312,0.267c-0.466,0.058 -0.973,0.088 -1.519,0.088c-0.957,0 -1.834,-0.165 -2.632,-0.493c-0.798,-0.328 -1.485,-0.788 -2.062,-1.38c-0.576,-0.593 -1.026,-1.303 -1.348,-2.131c-0.322,-0.829 -0.483,-1.74 -0.483,-2.734c0,-1.006 0.158,-1.923 0.474,-2.752c0.316,-0.828 0.767,-1.538 1.353,-2.13c0.586,-0.593 1.294,-1.051 2.126,-1.376c0.831,-0.326 1.762,-0.488 2.793,-0.488c0.522,0 1.007,0.038 1.454,0.115c0.448,0.076 0.864,0.187 1.248,0.331c0.383,0.144 0.737,0.319 1.063,0.525c0.325,0.205 0.629,0.437 0.911,0.695l-0.506,0.81c-0.105,0.165 -0.24,0.248 -0.405,0.248c-0.099,0 -0.206,-0.034 -0.322,-0.101c-0.154,-0.086 -0.326,-0.19 -0.516,-0.313c-0.19,-0.123 -0.422,-0.241 -0.695,-0.354c-0.273,-0.114 -0.595,-0.211 -0.966,-0.29c-0.371,-0.08 -0.812,-0.12 -1.321,-0.12c-0.742,0 -1.414,0.121 -2.016,0.364c-0.601,0.242 -1.113,0.589 -1.537,1.04c-0.423,0.451 -0.748,0.997 -0.975,1.638c-0.227,0.641 -0.341,1.361 -0.341,2.158c0,0.835 0.118,1.579 0.354,2.232c0.237,0.654 0.57,1.207 0.999,1.662c0.43,0.454 0.939,0.8 1.528,1.04c0.589,0.239 1.239,0.359 1.951,0.359Z" style="fill:#333;fill-rule:nonzero;"/><path d="M425.082,310.851c0,0.988 -0.157,1.887 -0.47,2.697c-0.313,0.81 -0.754,1.503 -1.325,2.08c-0.571,0.577 -1.255,1.023 -2.053,1.339c-0.797,0.316 -1.681,0.474 -2.65,0.474l-4.934,0l0,-13.189l4.934,0c0.969,0 1.853,0.158 2.65,0.474c0.798,0.316 1.482,0.764 2.053,1.344c0.571,0.58 1.012,1.275 1.325,2.084c0.313,0.81 0.47,1.709 0.47,2.697Zm-1.832,0c0,-0.81 -0.11,-1.534 -0.331,-2.172c-0.221,-0.638 -0.534,-1.178 -0.939,-1.62c-0.405,-0.442 -0.896,-0.779 -1.473,-1.012c-0.576,-0.233 -1.218,-0.35 -1.923,-0.35l-3.139,0l0,10.299l3.139,0c0.705,0 1.347,-0.116 1.923,-0.349c0.577,-0.234 1.068,-0.57 1.473,-1.008c0.405,-0.439 0.718,-0.977 0.939,-1.616c0.221,-0.638 0.331,-1.362 0.331,-2.172Z" style="fill:#333;fill-rule:nonzero;"/><rect x="427.843" y="304.252" width="1.786" height="13.189" style="fill:#333;fill-rule:nonzero;"/><path d="M444.594,310.851c0,0.988 -0.156,1.887 -0.469,2.697c-0.313,0.81 -0.755,1.503 -1.326,2.08c-0.57,0.577 -1.254,1.023 -2.052,1.339c-0.798,0.316 -1.681,0.474 -2.651,0.474l-4.933,0l0,-13.189l4.933,0c0.97,0 1.853,0.158 2.651,0.474c0.798,0.316 1.482,0.764 2.052,1.344c0.571,0.58 1.013,1.275 1.326,2.084c0.313,0.81 0.469,1.709 0.469,2.697Zm-1.831,0c0,-0.81 -0.111,-1.534 -0.332,-2.172c-0.221,-0.638 -0.534,-1.178 -0.939,-1.62c-0.405,-0.442 -0.895,-0.779 -1.472,-1.012c-0.577,-0.233 -1.218,-0.35 -1.924,-0.35l-3.138,0l0,10.299l3.138,0c0.706,0 1.347,-0.116 1.924,-0.349c0.577,-0.234 1.067,-0.57 1.472,-1.008c0.405,-0.439 0.718,-0.977 0.939,-1.616c0.221,-0.638 0.332,-1.362 0.332,-2.172Z" style="fill:#333;fill-rule:nonzero;"/><path d="M461.428,317.441l-1.38,0c-0.16,0 -0.289,-0.04 -0.387,-0.119c-0.098,-0.08 -0.172,-0.181 -0.221,-0.304l-1.233,-3.185l-5.918,0l-1.234,3.185c-0.043,0.11 -0.116,0.209 -0.221,0.294c-0.104,0.086 -0.233,0.129 -0.386,0.129l-1.381,0l5.274,-13.189l1.813,0l5.274,13.189Zm-8.642,-4.896l4.924,0l-2.071,-5.366c-0.135,-0.331 -0.267,-0.746 -0.396,-1.243c-0.067,0.252 -0.133,0.484 -0.198,0.695c-0.064,0.212 -0.127,0.398 -0.188,0.557l-2.071,5.357Z" style="fill:#333;fill-rule:nonzero;"/><path d="M464.254,308.118l0,5.945c0,0.706 0.162,1.252 0.488,1.639c0.325,0.386 0.816,0.58 1.472,0.58c0.479,0 0.93,-0.114 1.353,-0.341c0.424,-0.227 0.813,-0.543 1.169,-0.948l0,-6.875l1.639,0l0,9.323l-0.976,0c-0.233,0 -0.381,-0.113 -0.442,-0.34l-0.129,-1.003c-0.405,0.447 -0.859,0.808 -1.362,1.081c-0.503,0.273 -1.08,0.41 -1.73,0.41c-0.51,0 -0.959,-0.085 -1.349,-0.254c-0.389,-0.168 -0.716,-0.406 -0.98,-0.713c-0.264,-0.307 -0.462,-0.678 -0.594,-1.114c-0.131,-0.435 -0.197,-0.917 -0.197,-1.445l0,-5.945l1.638,0Z" style="fill:#333;fill-rule:nonzero;"/><path d="M475.897,317.589c-0.736,0 -1.302,-0.206 -1.698,-0.617c-0.396,-0.411 -0.594,-1.003 -0.594,-1.776l0,-5.707l-1.123,0c-0.098,0 -0.181,-0.029 -0.248,-0.087c-0.068,-0.059 -0.102,-0.149 -0.102,-0.272l0,-0.653l1.528,-0.194l0.378,-2.881c0.012,-0.092 0.052,-0.167 0.119,-0.225c0.068,-0.058 0.154,-0.087 0.258,-0.087l0.828,0l0,3.212l2.67,0l0,1.187l-2.67,0l0,5.596c0,0.393 0.096,0.684 0.286,0.874c0.19,0.191 0.435,0.286 0.736,0.286c0.172,0 0.321,-0.023 0.446,-0.069c0.126,-0.046 0.235,-0.097 0.327,-0.152c0.092,-0.055 0.171,-0.106 0.235,-0.152c0.064,-0.046 0.121,-0.069 0.17,-0.069c0.086,0 0.163,0.052 0.23,0.156l0.479,0.783c-0.282,0.264 -0.623,0.471 -1.022,0.621c-0.399,0.15 -0.81,0.226 -1.233,0.226Z" style="fill:#333;fill-rule:nonzero;"/><path d="M479.937,317.441l0,-13.557l1.639,0l0,5.485c0.399,-0.423 0.84,-0.762 1.325,-1.017c0.485,-0.254 1.043,-0.382 1.675,-0.382c0.51,0 0.959,0.085 1.349,0.254c0.389,0.168 0.715,0.408 0.975,0.717c0.261,0.31 0.459,0.683 0.594,1.119c0.135,0.435 0.202,0.917 0.202,1.445l0,5.936l-1.638,0l0,-5.936c0,-0.706 -0.161,-1.254 -0.483,-1.643c-0.322,-0.39 -0.815,-0.585 -1.477,-0.585c-0.485,0 -0.938,0.117 -1.358,0.35c-0.42,0.233 -0.808,0.549 -1.164,0.948l0,6.866l-1.639,0Z" style="fill:#333;fill-rule:nonzero;"/><path d="M493.946,307.97c0.681,0 1.296,0.114 1.845,0.341c0.55,0.227 1.016,0.549 1.399,0.966c0.384,0.418 0.678,0.922 0.884,1.514c0.206,0.593 0.308,1.254 0.308,1.984c0,0.736 -0.102,1.399 -0.308,1.988c-0.206,0.589 -0.5,1.092 -0.884,1.509c-0.383,0.418 -0.849,0.738 -1.399,0.962c-0.549,0.224 -1.164,0.336 -1.845,0.336c-0.681,0 -1.296,-0.112 -1.845,-0.336c-0.55,-0.224 -1.017,-0.544 -1.404,-0.962c-0.387,-0.417 -0.684,-0.92 -0.893,-1.509c-0.208,-0.589 -0.313,-1.252 -0.313,-1.988c0,-0.73 0.105,-1.391 0.313,-1.984c0.209,-0.592 0.506,-1.096 0.893,-1.514c0.387,-0.417 0.854,-0.739 1.404,-0.966c0.549,-0.227 1.164,-0.341 1.845,-0.341Zm0,8.321c0.92,0 1.608,-0.309 2.062,-0.925c0.454,-0.617 0.681,-1.477 0.681,-2.582c0,-1.111 -0.227,-1.976 -0.681,-2.595c-0.454,-0.62 -1.142,-0.93 -2.062,-0.93c-0.466,0 -0.871,0.08 -1.215,0.239c-0.344,0.16 -0.63,0.39 -0.861,0.691c-0.23,0.3 -0.401,0.67 -0.515,1.109c-0.113,0.438 -0.17,0.934 -0.17,1.486c0,0.552 0.057,1.046 0.17,1.482c0.114,0.436 0.285,0.802 0.515,1.1c0.231,0.297 0.517,0.526 0.861,0.686c0.344,0.159 0.749,0.239 1.215,0.239Z" style="fill:#333;fill-rule:nonzero;"/><path d="M500.407,317.441l0,-9.323l0.939,0c0.178,0 0.301,0.033 0.368,0.101c0.068,0.067 0.114,0.184 0.138,0.35l0.111,1.454c0.319,-0.651 0.713,-1.158 1.182,-1.523c0.47,-0.365 1.02,-0.548 1.652,-0.548c0.258,0 0.491,0.029 0.7,0.087c0.209,0.059 0.402,0.14 0.58,0.244l-0.212,1.224c-0.043,0.154 -0.138,0.231 -0.285,0.231c-0.086,0 -0.218,-0.03 -0.396,-0.088c-0.178,-0.058 -0.426,-0.087 -0.745,-0.087c-0.571,0 -1.048,0.165 -1.432,0.497c-0.383,0.331 -0.704,0.813 -0.962,1.445l0,5.936l-1.638,0Z" style="fill:#333;fill-rule:nonzero;"/><path d="M509.648,308.118l0,9.323l-1.638,0l0,-9.323l1.638,0Zm0.368,-2.927c0,0.159 -0.032,0.308 -0.096,0.446c-0.065,0.138 -0.151,0.261 -0.258,0.368c-0.108,0.108 -0.232,0.192 -0.373,0.253c-0.141,0.062 -0.291,0.092 -0.451,0.092c-0.16,0 -0.308,-0.03 -0.446,-0.092c-0.138,-0.061 -0.261,-0.145 -0.369,-0.253c-0.107,-0.107 -0.191,-0.23 -0.253,-0.368c-0.061,-0.138 -0.092,-0.287 -0.092,-0.446c0,-0.16 0.031,-0.312 0.092,-0.456c0.062,-0.144 0.146,-0.27 0.253,-0.377c0.108,-0.108 0.231,-0.192 0.369,-0.253c0.138,-0.062 0.286,-0.092 0.446,-0.092c0.16,0 0.31,0.03 0.451,0.092c0.141,0.061 0.265,0.145 0.373,0.253c0.107,0.107 0.193,0.233 0.258,0.377c0.064,0.144 0.096,0.296 0.096,0.456Z" style="fill:#333;fill-rule:nonzero;"/><path d="M515.364,317.589c-0.737,0 -1.303,-0.206 -1.698,-0.617c-0.396,-0.411 -0.594,-1.003 -0.594,-1.776l0,-5.707l-1.123,0c-0.098,0 -0.181,-0.029 -0.249,-0.087c-0.067,-0.059 -0.101,-0.149 -0.101,-0.272l0,-0.653l1.528,-0.194l0.377,-2.881c0.013,-0.092 0.053,-0.167 0.12,-0.225c0.068,-0.058 0.154,-0.087 0.258,-0.087l0.828,0l0,3.212l2.669,0l0,1.187l-2.669,0l0,5.596c0,0.393 0.095,0.684 0.286,0.874c0.19,0.191 0.435,0.286 0.736,0.286c0.172,0 0.32,-0.023 0.446,-0.069c0.126,-0.046 0.235,-0.097 0.327,-0.152c0.092,-0.055 0.17,-0.106 0.235,-0.152c0.064,-0.046 0.121,-0.069 0.17,-0.069c0.086,0 0.163,0.052 0.23,0.156l0.479,0.783c-0.283,0.264 -0.623,0.471 -1.022,0.621c-0.399,0.15 -0.81,0.226 -1.233,0.226Z" style="fill:#333;fill-rule:nonzero;"/><path d="M522.138,320.193c-0.055,0.123 -0.124,0.221 -0.207,0.295c-0.083,0.073 -0.21,0.11 -0.382,0.11l-1.215,0l1.703,-3.7l-3.848,-8.78l1.418,0c0.141,0 0.251,0.035 0.331,0.106c0.08,0.07 0.138,0.148 0.175,0.234l2.494,5.872c0.055,0.135 0.103,0.27 0.143,0.405c0.04,0.135 0.075,0.273 0.106,0.415c0.043,-0.142 0.086,-0.28 0.129,-0.415c0.043,-0.135 0.092,-0.273 0.147,-0.414l2.42,-5.863c0.037,-0.098 0.1,-0.179 0.189,-0.244c0.089,-0.064 0.186,-0.096 0.29,-0.096l1.307,0l-5.2,12.075Z" style="fill:#333;fill-rule:nonzero;"/></g><g><path d="M187.448,66.051l0,246.291l97.656,0" style="fill:none;stroke:#333;stroke-width:1px;"/><path d="M285.104,141.984l-97.656,0" style="fill:none;stroke:#333;stroke-width:1px;"/><path d="M285.104,227.163l-97.656,0" style="fill:none;stroke:#333;stroke-width:1px;"/></g></g></svg>